G04 #@! TF.FileFunction,Legend,Top*
%FSLAX46Y46*%
G04 Gerber Fmt 4.6, Leading zero omitted, Abs format (unit mm)*
G04 Created by KiCad (PCBNEW 4.0.7) date 04/27/18 14:22:45*
%MOMM*%
%LPD*%
G01*
G04 APERTURE LIST*
%ADD10C,0.150000*%
G04 APERTURE END LIST*
D10*
X125331786Y-121306025D02*
X125062412Y-121575399D01*
X124496727Y-121009714D01*
X125224036Y-120821152D02*
X125412598Y-120632589D01*
X125789722Y-120848089D02*
X125520348Y-121117463D01*
X124954662Y-120551778D01*
X125224037Y-120282403D01*
X126032159Y-120605652D02*
X125466473Y-120039967D01*
X125601160Y-119905280D01*
X125708910Y-119851405D01*
X125816659Y-119851404D01*
X125897472Y-119878342D01*
X126032159Y-119959154D01*
X126112971Y-120039967D01*
X126193784Y-120174654D01*
X126220721Y-120255465D01*
X126220721Y-120363216D01*
X126166846Y-120470965D01*
X126032159Y-120605652D01*
X125978284Y-119528156D02*
X126328470Y-119177970D01*
X126355408Y-119582031D01*
X126436220Y-119501219D01*
X126517032Y-119474281D01*
X126570907Y-119474281D01*
X126651719Y-119501219D01*
X126786406Y-119635905D01*
X126813343Y-119716717D01*
X126813343Y-119770593D01*
X126786406Y-119851405D01*
X126624781Y-120013030D01*
X126543970Y-120039967D01*
X126490095Y-120039966D01*
X123877167Y-120166770D02*
X123984916Y-120112895D01*
X124119603Y-119978208D01*
X124146540Y-119897396D01*
X124146540Y-119843520D01*
X124119603Y-119762709D01*
X124065728Y-119708833D01*
X123984916Y-119681896D01*
X123931041Y-119681897D01*
X123850229Y-119708833D01*
X123715542Y-119789646D01*
X123634729Y-119816584D01*
X123580855Y-119816584D01*
X123500043Y-119789646D01*
X123446168Y-119735771D01*
X123419230Y-119654959D01*
X123419230Y-119601084D01*
X123446168Y-119520272D01*
X123580855Y-119385585D01*
X123688605Y-119331710D01*
X123850229Y-119116211D02*
X124550602Y-119547209D01*
X124254290Y-119035398D01*
X124766101Y-119331710D01*
X124335102Y-118631338D01*
X125035475Y-119170085D02*
X125466473Y-118739087D01*
X124900788Y-118065652D02*
X125224037Y-117742403D01*
X125628098Y-118469713D02*
X125062413Y-117904027D01*
X125520348Y-117446092D02*
X125628098Y-117338342D01*
X125708911Y-117311404D01*
X125816659Y-117311404D01*
X125951346Y-117392216D01*
X126139908Y-117580778D01*
X126220721Y-117715465D01*
X126220721Y-117823215D01*
X126193784Y-117904027D01*
X126086034Y-118011777D01*
X126005222Y-118038714D01*
X125897472Y-118038714D01*
X125762785Y-117957902D01*
X125574223Y-117769340D01*
X125493411Y-117634653D01*
X125493411Y-117526903D01*
X125520348Y-117446092D01*
X126570907Y-117526904D02*
X126005222Y-116961219D01*
X126220721Y-116745719D01*
X126301533Y-116718781D01*
X126355408Y-116718781D01*
X126436220Y-116745719D01*
X126517032Y-116826531D01*
X126543970Y-116907343D01*
X126543970Y-116961218D01*
X126517032Y-117042030D01*
X126301532Y-117257530D01*
X126815810Y-114223334D02*
X126853905Y-114109048D01*
X126853905Y-113918572D01*
X126815810Y-113842382D01*
X126777714Y-113804286D01*
X126701524Y-113766191D01*
X126625333Y-113766191D01*
X126549143Y-113804286D01*
X126511048Y-113842382D01*
X126472952Y-113918572D01*
X126434857Y-114070953D01*
X126396762Y-114147144D01*
X126358667Y-114185239D01*
X126282476Y-114223334D01*
X126206286Y-114223334D01*
X126130095Y-114185239D01*
X126092000Y-114147144D01*
X126053905Y-114070953D01*
X126053905Y-113880477D01*
X126092000Y-113766191D01*
X126053905Y-113499524D02*
X126853905Y-113309048D01*
X126282476Y-113156667D01*
X126853905Y-113004286D01*
X126053905Y-112813810D01*
X126930095Y-112699524D02*
X126930095Y-112090000D01*
X126853905Y-111899524D02*
X126053905Y-111899524D01*
X126625333Y-111632857D01*
X126053905Y-111366190D01*
X126853905Y-111366190D01*
X126472952Y-110832857D02*
X126853905Y-110832857D01*
X126053905Y-111099524D02*
X126472952Y-110832857D01*
X126053905Y-110566190D01*
X123877167Y-118134770D02*
X123984916Y-118080895D01*
X124119603Y-117946208D01*
X124146540Y-117865396D01*
X124146540Y-117811520D01*
X124119603Y-117730709D01*
X124065728Y-117676833D01*
X123984916Y-117649896D01*
X123931041Y-117649897D01*
X123850229Y-117676833D01*
X123715542Y-117757646D01*
X123634729Y-117784584D01*
X123580855Y-117784584D01*
X123500043Y-117757646D01*
X123446168Y-117703771D01*
X123419230Y-117622959D01*
X123419230Y-117569084D01*
X123446168Y-117488272D01*
X123580855Y-117353585D01*
X123688605Y-117299710D01*
X123850229Y-117084211D02*
X124550602Y-117515209D01*
X124254290Y-117003398D01*
X124766101Y-117299710D01*
X124335102Y-116599338D01*
X125035475Y-117138085D02*
X125466473Y-116707087D01*
X125439536Y-116033652D02*
X125547286Y-115979776D01*
X125601161Y-115979777D01*
X125681973Y-116006714D01*
X125762785Y-116087527D01*
X125789722Y-116168338D01*
X125789723Y-116222214D01*
X125762785Y-116303026D01*
X125547286Y-116518525D01*
X124981600Y-115952840D01*
X125170162Y-115764278D01*
X125250974Y-115737341D01*
X125304849Y-115737340D01*
X125385662Y-115764278D01*
X125439536Y-115818152D01*
X125466474Y-115898965D01*
X125466473Y-115952840D01*
X125439536Y-116033652D01*
X125250974Y-116222214D01*
X125655035Y-115279405D02*
X125762785Y-115171655D01*
X125843597Y-115144717D01*
X125951346Y-115144717D01*
X126086033Y-115225530D01*
X126274595Y-115414092D01*
X126355408Y-115548778D01*
X126355408Y-115656528D01*
X126328470Y-115737341D01*
X126220721Y-115845090D01*
X126139909Y-115872027D01*
X126032159Y-115872027D01*
X125897472Y-115791215D01*
X125708910Y-115602653D01*
X125628097Y-115467966D01*
X125628098Y-115360216D01*
X125655035Y-115279405D01*
X126059096Y-114875344D02*
X126382345Y-114552095D01*
X126786406Y-115279405D02*
X126220721Y-114713719D01*
X123807786Y-114956025D02*
X123538412Y-115225399D01*
X122972727Y-114659714D01*
X123700036Y-114471152D02*
X123888598Y-114282589D01*
X124265722Y-114498089D02*
X123996348Y-114767463D01*
X123430662Y-114201778D01*
X123700037Y-113932403D01*
X124508159Y-114255652D02*
X123942473Y-113689967D01*
X124077160Y-113555280D01*
X124184910Y-113501405D01*
X124292659Y-113501404D01*
X124373472Y-113528342D01*
X124508159Y-113609154D01*
X124588971Y-113689967D01*
X124669784Y-113824654D01*
X124696721Y-113905465D01*
X124696721Y-114013216D01*
X124642846Y-114120965D01*
X124508159Y-114255652D01*
X124535096Y-113205093D02*
X124535096Y-113151219D01*
X124562034Y-113070406D01*
X124696721Y-112935719D01*
X124777532Y-112908782D01*
X124831408Y-112908781D01*
X124912220Y-112935719D01*
X124966095Y-112989594D01*
X125019970Y-113097343D01*
X125019970Y-113743841D01*
X125370156Y-113393655D01*
X119112794Y-117057142D02*
X119220544Y-117003267D01*
X119355231Y-116868580D01*
X119382168Y-116787768D01*
X119382168Y-116733892D01*
X119355231Y-116653081D01*
X119301356Y-116599206D01*
X119220544Y-116572268D01*
X119166669Y-116572269D01*
X119085856Y-116599206D01*
X118951170Y-116680018D01*
X118870357Y-116706956D01*
X118816483Y-116706956D01*
X118735670Y-116680018D01*
X118681796Y-116626144D01*
X118654858Y-116545331D01*
X118654858Y-116491457D01*
X118681796Y-116410644D01*
X118816483Y-116275957D01*
X118924232Y-116222082D01*
X119085857Y-116006583D02*
X119786229Y-116437582D01*
X119489918Y-115925771D01*
X120001729Y-116222082D01*
X119570730Y-115521710D01*
X120271102Y-116060457D02*
X120702101Y-115629459D01*
X120782913Y-115440898D02*
X120217228Y-114875212D01*
X120432727Y-114659713D01*
X120513540Y-114632775D01*
X120567414Y-114632775D01*
X120648227Y-114659713D01*
X120729038Y-114740525D01*
X120755976Y-114821337D01*
X120755976Y-114875211D01*
X120729038Y-114956024D01*
X120513539Y-115171523D01*
X121671848Y-114551963D02*
X121213911Y-114471151D01*
X121348599Y-114875212D02*
X120782913Y-114309527D01*
X120998413Y-114094027D01*
X121079225Y-114067089D01*
X121133100Y-114067089D01*
X121213912Y-114094027D01*
X121294724Y-114174839D01*
X121321662Y-114255652D01*
X121321662Y-114309526D01*
X121294724Y-114390338D01*
X121079224Y-114605838D01*
X121456348Y-113636092D02*
X121564098Y-113528342D01*
X121644911Y-113501404D01*
X121752659Y-113501404D01*
X121887346Y-113582216D01*
X122075908Y-113770778D01*
X122156721Y-113905465D01*
X122156721Y-114013215D01*
X122129784Y-114094027D01*
X122022034Y-114201777D01*
X121941222Y-114228714D01*
X121833472Y-114228714D01*
X121698785Y-114147902D01*
X121510223Y-113959340D01*
X121429411Y-113824653D01*
X121429411Y-113716903D01*
X121456348Y-113636092D01*
X122264470Y-112881844D02*
X122183658Y-112908782D01*
X122102846Y-112989594D01*
X122048971Y-113097343D01*
X122048970Y-113205093D01*
X122075908Y-113285905D01*
X122156721Y-113420592D01*
X122237533Y-113501405D01*
X122372220Y-113582217D01*
X122453032Y-113609154D01*
X122560782Y-113609154D01*
X122668532Y-113555279D01*
X122722406Y-113501405D01*
X122776281Y-113393655D01*
X122776281Y-113339780D01*
X122587719Y-113151219D01*
X122479970Y-113258968D01*
X118727786Y-114956025D02*
X118458412Y-115225399D01*
X117892727Y-114659714D01*
X118620036Y-114471152D02*
X118808598Y-114282589D01*
X119185722Y-114498089D02*
X118916348Y-114767463D01*
X118350662Y-114201778D01*
X118620037Y-113932403D01*
X119428159Y-114255652D02*
X118862473Y-113689967D01*
X118997160Y-113555280D01*
X119104910Y-113501405D01*
X119212659Y-113501404D01*
X119293472Y-113528342D01*
X119428159Y-113609154D01*
X119508971Y-113689967D01*
X119589784Y-113824654D01*
X119616721Y-113905465D01*
X119616721Y-114013216D01*
X119562846Y-114120965D01*
X119428159Y-114255652D01*
X120290156Y-113393655D02*
X119966907Y-113716904D01*
X120128531Y-113555280D02*
X119562846Y-112989595D01*
X119589783Y-113124281D01*
X119589783Y-113232031D01*
X119562846Y-113312843D01*
X112778300Y-118565636D02*
X112886050Y-118511761D01*
X113020737Y-118377074D01*
X113047674Y-118296263D01*
X113047674Y-118242387D01*
X113020737Y-118161575D01*
X112966861Y-118107700D01*
X112886050Y-118080763D01*
X112832175Y-118080763D01*
X112751362Y-118107700D01*
X112616675Y-118188512D01*
X112535863Y-118215450D01*
X112481988Y-118215450D01*
X112401176Y-118188512D01*
X112347302Y-118134638D01*
X112320364Y-118053825D01*
X112320364Y-117999951D01*
X112347302Y-117919139D01*
X112481988Y-117784452D01*
X112589738Y-117730576D01*
X112751363Y-117515077D02*
X113451735Y-117946076D01*
X113155424Y-117434265D01*
X113667234Y-117730576D01*
X113236236Y-117030204D01*
X113936608Y-117568952D02*
X114367607Y-117137953D01*
X114717793Y-116572268D02*
X114717794Y-116626143D01*
X114663918Y-116733892D01*
X114610044Y-116787767D01*
X114502294Y-116841642D01*
X114394544Y-116841642D01*
X114313732Y-116814705D01*
X114179045Y-116733892D01*
X114098233Y-116653080D01*
X114017421Y-116518393D01*
X113990483Y-116437581D01*
X113990483Y-116329831D01*
X114044359Y-116222082D01*
X114098233Y-116168207D01*
X114205983Y-116114332D01*
X114259857Y-116114332D01*
X115014105Y-116383706D02*
X114448419Y-115818021D01*
X114717793Y-116087395D02*
X115041042Y-115764146D01*
X115337354Y-116060457D02*
X114771668Y-115494772D01*
X115418165Y-115656396D02*
X115687539Y-115387022D01*
X115525915Y-115871896D02*
X115148791Y-115117649D01*
X115903039Y-115494772D01*
X116091600Y-115306211D02*
X115525915Y-114740525D01*
X116414849Y-114982962D01*
X115849164Y-114417276D01*
X116684223Y-114713588D02*
X116118538Y-114147903D01*
X117007472Y-114390339D01*
X116441786Y-113824654D01*
X116980534Y-113824654D02*
X117169096Y-113636092D01*
X117546220Y-113851591D02*
X117276846Y-114120965D01*
X116711160Y-113555280D01*
X116980535Y-113285905D01*
X118058031Y-113339780D02*
X117788657Y-113609154D01*
X117222971Y-113043469D01*
X112273979Y-116329832D02*
X112004605Y-116599206D01*
X111438919Y-116033521D01*
X112166229Y-115844959D02*
X112354791Y-115656397D01*
X112731915Y-115871896D02*
X112462540Y-116141271D01*
X111896855Y-115575585D01*
X112166229Y-115306211D01*
X112974351Y-115629460D02*
X112408666Y-115063774D01*
X112543353Y-114929087D01*
X112651102Y-114875212D01*
X112758852Y-114875211D01*
X112839665Y-114902149D01*
X112974351Y-114982962D01*
X113055164Y-115063774D01*
X113135976Y-115198461D01*
X113162913Y-115279273D01*
X113162913Y-115387023D01*
X113109038Y-115494773D01*
X112974351Y-115629460D01*
X113459224Y-115252335D02*
X113890223Y-114821337D01*
X113863286Y-114147902D02*
X113971035Y-114094027D01*
X114024911Y-114094027D01*
X114105722Y-114120965D01*
X114186535Y-114201777D01*
X114213472Y-114282589D01*
X114213473Y-114336464D01*
X114186535Y-114417276D01*
X113971035Y-114632776D01*
X113405350Y-114067090D01*
X113593912Y-113878528D01*
X113674724Y-113851591D01*
X113728599Y-113851590D01*
X113809411Y-113878528D01*
X113863286Y-113932403D01*
X113890224Y-114013215D01*
X113890223Y-114067090D01*
X113863286Y-114147902D01*
X113674724Y-114336464D01*
X114348159Y-113932403D02*
X114617532Y-113663029D01*
X114455908Y-114147903D02*
X114078785Y-113393655D01*
X114833032Y-113770778D01*
X114375096Y-113097344D02*
X114698345Y-112774095D01*
X115102406Y-113501405D02*
X114536721Y-112935719D01*
X111361786Y-114956025D02*
X111092412Y-115225399D01*
X110526727Y-114659714D01*
X111254036Y-114471152D02*
X111442598Y-114282589D01*
X111819722Y-114498089D02*
X111550348Y-114767463D01*
X110984662Y-114201778D01*
X111254037Y-113932403D01*
X112062159Y-114255652D02*
X111496473Y-113689967D01*
X111631160Y-113555280D01*
X111738910Y-113501405D01*
X111846659Y-113501404D01*
X111927472Y-113528342D01*
X112062159Y-113609154D01*
X112142971Y-113689967D01*
X112223784Y-113824654D01*
X112250721Y-113905465D01*
X112250721Y-114013216D01*
X112196846Y-114120965D01*
X112062159Y-114255652D01*
X112493157Y-113070406D02*
X112870281Y-113447530D01*
X112142971Y-112989595D02*
X112412345Y-113528342D01*
X112762531Y-113178156D01*
X108640978Y-115213835D02*
X109071976Y-114782836D01*
X109071976Y-115213835D02*
X108640978Y-114782836D01*
X108937289Y-114217151D02*
X109287475Y-113866965D01*
X109314413Y-114271026D01*
X109395225Y-114190214D01*
X109476037Y-114163276D01*
X109529912Y-114163276D01*
X109610724Y-114190214D01*
X109745411Y-114324900D01*
X109772348Y-114405712D01*
X109772348Y-114459588D01*
X109745411Y-114540400D01*
X109583786Y-114702025D01*
X109502975Y-114728962D01*
X109449100Y-114728961D01*
X110041722Y-114136338D02*
X110095597Y-114136339D01*
X110095597Y-114190214D01*
X110041723Y-114190214D01*
X110041722Y-114136338D01*
X110095597Y-114190214D01*
X109745411Y-113409029D02*
X110095597Y-113058843D01*
X110122535Y-113462904D01*
X110203347Y-113382092D01*
X110284159Y-113355154D01*
X110338034Y-113355154D01*
X110418846Y-113382092D01*
X110553533Y-113516778D01*
X110580470Y-113597590D01*
X110580470Y-113651466D01*
X110553533Y-113732278D01*
X110391908Y-113893903D01*
X110311097Y-113920840D01*
X110257222Y-113920839D01*
X110257222Y-112897219D02*
X111011469Y-113274342D01*
X110634346Y-112520095D01*
X117691048Y-123043905D02*
X117691048Y-122243905D01*
X118529143Y-122967714D02*
X118491048Y-123005810D01*
X118376762Y-123043905D01*
X118300572Y-123043905D01*
X118186286Y-123005810D01*
X118110095Y-122929619D01*
X118072000Y-122853429D01*
X118033905Y-122701048D01*
X118033905Y-122586762D01*
X118072000Y-122434381D01*
X118110095Y-122358190D01*
X118186286Y-122282000D01*
X118300572Y-122243905D01*
X118376762Y-122243905D01*
X118491048Y-122282000D01*
X118529143Y-122320095D01*
X118833905Y-123005810D02*
X118948191Y-123043905D01*
X119138667Y-123043905D01*
X119214857Y-123005810D01*
X119252953Y-122967714D01*
X119291048Y-122891524D01*
X119291048Y-122815333D01*
X119252953Y-122739143D01*
X119214857Y-122701048D01*
X119138667Y-122662952D01*
X118986286Y-122624857D01*
X118910095Y-122586762D01*
X118872000Y-122548667D01*
X118833905Y-122472476D01*
X118833905Y-122396286D01*
X118872000Y-122320095D01*
X118910095Y-122282000D01*
X118986286Y-122243905D01*
X119176762Y-122243905D01*
X119291048Y-122282000D01*
X119633905Y-123043905D02*
X119633905Y-122243905D01*
X119938667Y-122243905D01*
X120014858Y-122282000D01*
X120052953Y-122320095D01*
X120091048Y-122396286D01*
X120091048Y-122510571D01*
X120052953Y-122586762D01*
X120014858Y-122624857D01*
X119938667Y-122662952D01*
X119633905Y-122662952D01*
X109118477Y-124314000D02*
X109042286Y-124275905D01*
X108928001Y-124275905D01*
X108813715Y-124314000D01*
X108737524Y-124390190D01*
X108699429Y-124466381D01*
X108661334Y-124618762D01*
X108661334Y-124733048D01*
X108699429Y-124885429D01*
X108737524Y-124961619D01*
X108813715Y-125037810D01*
X108928001Y-125075905D01*
X109004191Y-125075905D01*
X109118477Y-125037810D01*
X109156572Y-124999714D01*
X109156572Y-124733048D01*
X109004191Y-124733048D01*
X109499429Y-125075905D02*
X109499429Y-124275905D01*
X109956572Y-125075905D01*
X109956572Y-124275905D01*
X110337524Y-125075905D02*
X110337524Y-124275905D01*
X110528000Y-124275905D01*
X110642286Y-124314000D01*
X110718477Y-124390190D01*
X110756572Y-124466381D01*
X110794667Y-124618762D01*
X110794667Y-124733048D01*
X110756572Y-124885429D01*
X110718477Y-124961619D01*
X110642286Y-125037810D01*
X110528000Y-125075905D01*
X110337524Y-125075905D01*
X111824000Y-127542000D02*
X125824000Y-127542000D01*
X125824000Y-123442000D02*
X111824000Y-123442000D01*
X111824000Y-123442000D02*
X111824000Y-127542000D01*
X125824000Y-123442000D02*
X125824000Y-127542000D01*
X111824000Y-127142000D02*
X112224000Y-127542000D01*
X114585715Y-124912381D02*
X114014286Y-124912381D01*
X114300000Y-124912381D02*
X114300000Y-123912381D01*
X114204762Y-124055238D01*
X114109524Y-124150476D01*
X114014286Y-124198095D01*
M02*
