M48
;DRILL file {KiCad 4.0.7} date 04/27/18 14:22:50
;FORMAT={-:-/ absolute / metric / decimal}
FMAT,2
METRIC,TZ
T1C0.400
%
G90
G05
M71
T1
X109.728Y-118.364
X110.744Y-116.84
X110.998Y-125.476
X113.792Y-119.126
X116.078Y-117.348
X116.078Y-119.888
X117.094Y-124.46
X117.602Y-116.078
X118.618Y-111.76
X120.396Y-114.046
X121.158Y-111.76
X121.158Y-120.904
X122.682Y-116.84
X122.682Y-126.492
X122.936Y-116.078
X123.444Y-118.11
X123.444Y-123.698
X123.444Y-126.746
X125.222Y-118.618
X125.476Y-115.824
X125.476Y-117.348
X125.984Y-111.76
X125.984Y-115.062
X126.238Y-116.84
X126.746Y-114.046
T0
M30
