G04 #@! TF.FileFunction,Soldermask,Bot*
%FSLAX46Y46*%
G04 Gerber Fmt 4.6, Leading zero omitted, Abs format (unit mm)*
G04 Created by KiCad (PCBNEW 4.0.7) date 04/27/18 14:22:45*
%MOMM*%
%LPD*%
G01*
G04 APERTURE LIST*
%ADD10C,0.150000*%
%ADD11R,1.700000X0.850000*%
%ADD12R,1.900000X1.900000*%
%ADD13R,1.600000X1.900000*%
%ADD14C,1.600000*%
%ADD15R,1.900000X1.650000*%
%ADD16R,1.650000X1.900000*%
%ADD17R,1.900000X1.700000*%
%ADD18R,1.700000X1.900000*%
%ADD19R,1.600000X0.800000*%
%ADD20R,1.850000X0.850000*%
G04 APERTURE END LIST*
D10*
D11*
X129291000Y-125700000D03*
X129291000Y-126350000D03*
X129291000Y-127000000D03*
X129291000Y-127650000D03*
X129291000Y-128300000D03*
D12*
X129691000Y-123650000D03*
X129691000Y-130350000D03*
D13*
X132441000Y-123650000D03*
X132441000Y-130350000D03*
D14*
X124824000Y-125492000D03*
X112824000Y-125492000D03*
D15*
X114534000Y-114808000D03*
X112034000Y-114808000D03*
X127234000Y-122936000D03*
X124734000Y-122936000D03*
D16*
X119380000Y-123210000D03*
X119380000Y-125710000D03*
X121412000Y-123210000D03*
X121412000Y-125710000D03*
X109728000Y-122194000D03*
X109728000Y-124694000D03*
D15*
X114534000Y-112776000D03*
X112034000Y-112776000D03*
X119654000Y-120904000D03*
X122154000Y-120904000D03*
D17*
X124634000Y-120904000D03*
X127334000Y-120904000D03*
D18*
X117348000Y-123110000D03*
X117348000Y-125810000D03*
D17*
X112442000Y-122936000D03*
X115142000Y-122936000D03*
D18*
X119380000Y-115998000D03*
X119380000Y-118698000D03*
X109728000Y-119714000D03*
X109728000Y-117014000D03*
D17*
X122762000Y-112776000D03*
X120062000Y-112776000D03*
X125142000Y-112776000D03*
X127842000Y-112776000D03*
D19*
X117408000Y-116649500D03*
X117408000Y-117284500D03*
X117408000Y-117919500D03*
X117408000Y-118554500D03*
X117408000Y-119189500D03*
X117408000Y-119824500D03*
X117408000Y-120459500D03*
X117408000Y-121094500D03*
X112208000Y-121094500D03*
X112208000Y-120459500D03*
X112208000Y-119824500D03*
X112208000Y-119189500D03*
X112208000Y-118554500D03*
X112208000Y-117919500D03*
X112208000Y-117284500D03*
X112208000Y-116649500D03*
D20*
X121510000Y-118790000D03*
X121510000Y-118140000D03*
X121510000Y-117490000D03*
X121510000Y-116840000D03*
X121510000Y-116190000D03*
X121510000Y-115540000D03*
X121510000Y-114890000D03*
X127410000Y-114890000D03*
X127410000Y-115540000D03*
X127410000Y-116190000D03*
X127410000Y-116840000D03*
X127410000Y-117490000D03*
X127410000Y-118140000D03*
X127410000Y-118790000D03*
M02*
