G04 #@! TF.FileFunction,Copper,L2,Bot,Signal*
%FSLAX46Y46*%
G04 Gerber Fmt 4.6, Leading zero omitted, Abs format (unit mm)*
G04 Created by KiCad (PCBNEW 4.0.7) date 04/27/18 14:22:45*
%MOMM*%
%LPD*%
G01*
G04 APERTURE LIST*
%ADD10C,0.150000*%
%ADD11R,1.300000X0.450000*%
%ADD12R,1.500000X1.500000*%
%ADD13R,1.200000X1.500000*%
%ADD14R,1.500000X1.250000*%
%ADD15R,1.250000X1.500000*%
%ADD16R,1.500000X1.300000*%
%ADD17R,1.300000X1.500000*%
%ADD18R,1.200000X0.400000*%
%ADD19R,1.450000X0.450000*%
%ADD20C,0.600000*%
%ADD21C,0.200000*%
G04 APERTURE END LIST*
D10*
D11*
X129291000Y-125700000D03*
X129291000Y-126350000D03*
X129291000Y-127000000D03*
X129291000Y-127650000D03*
X129291000Y-128300000D03*
D12*
X129691000Y-123650000D03*
X129691000Y-130350000D03*
D13*
X132441000Y-123650000D03*
X132441000Y-130350000D03*
D14*
X114534000Y-114808000D03*
X112034000Y-114808000D03*
X127234000Y-122936000D03*
X124734000Y-122936000D03*
D15*
X119380000Y-123210000D03*
X119380000Y-125710000D03*
X121412000Y-123210000D03*
X121412000Y-125710000D03*
X109728000Y-122194000D03*
X109728000Y-124694000D03*
D14*
X114534000Y-112776000D03*
X112034000Y-112776000D03*
X119654000Y-120904000D03*
X122154000Y-120904000D03*
D16*
X124634000Y-120904000D03*
X127334000Y-120904000D03*
D17*
X117348000Y-123110000D03*
X117348000Y-125810000D03*
D16*
X112442000Y-122936000D03*
X115142000Y-122936000D03*
D17*
X119380000Y-115998000D03*
X119380000Y-118698000D03*
X109728000Y-119714000D03*
X109728000Y-117014000D03*
D16*
X122762000Y-112776000D03*
X120062000Y-112776000D03*
X125142000Y-112776000D03*
X127842000Y-112776000D03*
D18*
X117408000Y-116649500D03*
X117408000Y-117284500D03*
X117408000Y-117919500D03*
X117408000Y-118554500D03*
X117408000Y-119189500D03*
X117408000Y-119824500D03*
X117408000Y-120459500D03*
X117408000Y-121094500D03*
X112208000Y-121094500D03*
X112208000Y-120459500D03*
X112208000Y-119824500D03*
X112208000Y-119189500D03*
X112208000Y-118554500D03*
X112208000Y-117919500D03*
X112208000Y-117284500D03*
X112208000Y-116649500D03*
D19*
X121510000Y-118790000D03*
X121510000Y-118140000D03*
X121510000Y-117490000D03*
X121510000Y-116840000D03*
X121510000Y-116190000D03*
X121510000Y-115540000D03*
X121510000Y-114890000D03*
X127410000Y-114890000D03*
X127410000Y-115540000D03*
X127410000Y-116190000D03*
X127410000Y-116840000D03*
X127410000Y-117490000D03*
X127410000Y-118140000D03*
X127410000Y-118790000D03*
D20*
X113792000Y-119126000D03*
X121158000Y-120904000D03*
X110998000Y-125476000D03*
X117094000Y-124460000D03*
X122682000Y-126492000D03*
X123444000Y-123698000D03*
X123444000Y-126746000D03*
X109728000Y-118364000D03*
X122682000Y-116840000D03*
X121158000Y-111760000D03*
X125984000Y-111760000D03*
X126238000Y-116840000D03*
X120396000Y-114046000D03*
X125476000Y-115824000D03*
X126746000Y-114046000D03*
X125984000Y-115062000D03*
X118618000Y-111760000D03*
X123444000Y-118110000D03*
X125222000Y-118618000D03*
X125476000Y-117348000D03*
X110744000Y-116840000D03*
X117602000Y-116078000D03*
X122936000Y-116078000D03*
X116078000Y-119888000D03*
X116078000Y-117348000D03*
D21*
X113792000Y-119126000D02*
X113792000Y-119189500D01*
X113792000Y-119189500D02*
X113792000Y-119126000D01*
X113792000Y-119126000D02*
X113792000Y-119189500D01*
X114534000Y-112776000D02*
X114534000Y-114808000D01*
X114534000Y-114808000D02*
X114534000Y-118892000D01*
X114534000Y-118892000D02*
X114236500Y-119189500D01*
X114236500Y-119189500D02*
X113792000Y-119189500D01*
X113792000Y-119189500D02*
X112208000Y-119189500D01*
X122154000Y-120904000D02*
X121158000Y-120904000D01*
X122154000Y-120904000D02*
X124634000Y-120904000D01*
X121510000Y-118790000D02*
X122154000Y-119434000D01*
X122154000Y-119434000D02*
X122154000Y-120904000D01*
X110998000Y-125476000D02*
X110216000Y-124694000D01*
X110216000Y-124694000D02*
X109728000Y-124694000D01*
X121412000Y-125710000D02*
X121900000Y-125710000D01*
X121900000Y-125710000D02*
X122682000Y-126492000D01*
X127762000Y-127000000D02*
X129714000Y-127000000D01*
X125222000Y-124460000D02*
X127762000Y-127000000D01*
X120630000Y-124460000D02*
X125222000Y-124460000D01*
X119380000Y-123210000D02*
X120630000Y-124460000D01*
X117348000Y-125810000D02*
X119380000Y-123778000D01*
X119380000Y-123778000D02*
X119380000Y-123210000D01*
X129714000Y-126350000D02*
X127874000Y-126350000D01*
X127874000Y-126350000D02*
X125476000Y-123952000D01*
X123444000Y-126746000D02*
X122936000Y-127254000D01*
X122936000Y-127254000D02*
X121920000Y-127254000D01*
X115142000Y-122936000D02*
X115142000Y-126318000D01*
X116078000Y-127254000D02*
X121920000Y-127254000D01*
X115142000Y-126318000D02*
X116078000Y-127254000D01*
X123444000Y-123698000D02*
X123444000Y-123952000D01*
X122154000Y-123952000D02*
X121412000Y-123210000D01*
X125476000Y-123952000D02*
X123444000Y-123952000D01*
X123444000Y-123952000D02*
X122154000Y-123952000D01*
X112208000Y-120459500D02*
X112208000Y-119824500D01*
X109728000Y-119714000D02*
X109728000Y-118364000D01*
X117408000Y-117919500D02*
X118046500Y-117919500D01*
X118046500Y-117919500D02*
X119380000Y-116586000D01*
X119380000Y-116586000D02*
X119380000Y-115998000D01*
X112208000Y-119824500D02*
X114363500Y-119824500D01*
X116268500Y-117919500D02*
X117408000Y-117919500D01*
X114363500Y-119824500D02*
X116268500Y-117919500D01*
X109728000Y-122194000D02*
X109728000Y-119714000D01*
X109728000Y-119714000D02*
X109838500Y-119824500D01*
X109838500Y-119824500D02*
X112208000Y-119824500D01*
X122682000Y-116840000D02*
X121510000Y-116840000D01*
X122762000Y-112776000D02*
X122174000Y-112776000D01*
X122174000Y-112776000D02*
X121158000Y-111760000D01*
X125142000Y-112776000D02*
X125142000Y-112602000D01*
X125142000Y-112602000D02*
X125984000Y-111760000D01*
X125142000Y-112776000D02*
X125396000Y-112522000D01*
X127410000Y-116840000D02*
X126238000Y-116840000D01*
X121510000Y-117490000D02*
X123302000Y-117490000D01*
X120650000Y-114300000D02*
X120396000Y-114046000D01*
X122428000Y-114300000D02*
X120650000Y-114300000D01*
X123698000Y-115570000D02*
X122428000Y-114300000D01*
X123698000Y-117094000D02*
X123698000Y-115570000D01*
X123302000Y-117490000D02*
X123698000Y-117094000D01*
X127410000Y-116190000D02*
X125842000Y-116190000D01*
X125842000Y-116190000D02*
X125476000Y-115824000D01*
X126746000Y-114226000D02*
X127410000Y-114890000D01*
X126746000Y-114046000D02*
X126746000Y-114226000D01*
X127410000Y-115540000D02*
X126462000Y-115540000D01*
X126462000Y-115540000D02*
X125984000Y-115062000D01*
X121510000Y-114890000D02*
X120224000Y-114890000D01*
X118618000Y-113284000D02*
X118618000Y-111760000D01*
X120224000Y-114890000D02*
X118618000Y-113284000D01*
X123414000Y-118140000D02*
X123444000Y-118110000D01*
X123414000Y-118140000D02*
X121510000Y-118140000D01*
X127410000Y-118140000D02*
X125700000Y-118140000D01*
X125700000Y-118140000D02*
X125222000Y-118618000D01*
X124714000Y-118110000D02*
X125222000Y-118618000D01*
X121920000Y-113792000D02*
X124460000Y-113792000D01*
X124460000Y-113792000D02*
X124714000Y-114046000D01*
X124714000Y-114046000D02*
X124714000Y-116586000D01*
X120904000Y-112776000D02*
X120062000Y-112776000D01*
X124714000Y-118110000D02*
X124714000Y-116586000D01*
X120904000Y-112776000D02*
X121920000Y-113792000D01*
X125476000Y-117348000D02*
X125618000Y-117490000D01*
X127410000Y-117490000D02*
X125618000Y-117490000D01*
X127410000Y-117490000D02*
X128382000Y-117490000D01*
X128524000Y-113458000D02*
X127842000Y-112776000D01*
X128524000Y-117348000D02*
X128524000Y-113458000D01*
X128382000Y-117490000D02*
X128524000Y-117348000D01*
X117348000Y-123110000D02*
X117348000Y-121154500D01*
X117348000Y-121154500D02*
X117408000Y-121094500D01*
X112208000Y-121094500D02*
X112208000Y-122702000D01*
X112208000Y-122702000D02*
X112442000Y-122936000D01*
X119380000Y-118698000D02*
X120396000Y-117682000D01*
X120680000Y-115540000D02*
X121510000Y-115540000D01*
X120396000Y-115824000D02*
X120680000Y-115540000D01*
X120396000Y-117682000D02*
X120396000Y-115824000D01*
X117408000Y-118554500D02*
X119236500Y-118554500D01*
X119236500Y-118554500D02*
X119380000Y-118698000D01*
X110570000Y-117014000D02*
X109728000Y-117014000D01*
X110744000Y-116840000D02*
X110570000Y-117014000D01*
X121510000Y-116190000D02*
X122824000Y-116190000D01*
X117408000Y-116272000D02*
X117408000Y-116649500D01*
X117602000Y-116078000D02*
X117408000Y-116272000D01*
X122824000Y-116190000D02*
X122936000Y-116078000D01*
X117408000Y-117284500D02*
X116141500Y-117284500D01*
X116141500Y-119824500D02*
X117408000Y-119824500D01*
X116078000Y-119888000D02*
X116141500Y-119824500D01*
X116141500Y-117284500D02*
X116078000Y-117348000D01*
X129714000Y-125700000D02*
X127986000Y-125700000D01*
X127986000Y-125700000D02*
X127234000Y-124948000D01*
X127234000Y-124948000D02*
X127234000Y-122936000D01*
X127234000Y-122936000D02*
X127234000Y-121004000D01*
X127234000Y-121004000D02*
X127334000Y-120904000D01*
X127234000Y-123170000D02*
X127234000Y-122936000D01*
G36*
X129165000Y-121412000D02*
X129193545Y-121555507D01*
X129274835Y-121677165D01*
X130036835Y-122439165D01*
X130158494Y-122520455D01*
X130302000Y-122549000D01*
X133229000Y-122549000D01*
X133229000Y-122663736D01*
X133210936Y-122645672D01*
X133100673Y-122600000D01*
X132616000Y-122600000D01*
X132541000Y-122675000D01*
X132541000Y-123550000D01*
X132561000Y-123550000D01*
X132561000Y-123750000D01*
X132541000Y-123750000D01*
X132541000Y-124625000D01*
X132616000Y-124700000D01*
X133100673Y-124700000D01*
X133210936Y-124654328D01*
X133229000Y-124636264D01*
X133229000Y-129363736D01*
X133210936Y-129345672D01*
X133100673Y-129300000D01*
X132616000Y-129300000D01*
X132541000Y-129375000D01*
X132541000Y-130250000D01*
X132561000Y-130250000D01*
X132561000Y-130450000D01*
X132541000Y-130450000D01*
X132541000Y-131325000D01*
X132616000Y-131400000D01*
X133100673Y-131400000D01*
X133210936Y-131354328D01*
X133229000Y-131336264D01*
X133229000Y-131705000D01*
X128899000Y-131705000D01*
X128899000Y-131400000D01*
X129516000Y-131400000D01*
X129591000Y-131325000D01*
X129591000Y-130450000D01*
X129791000Y-130450000D01*
X129791000Y-131325000D01*
X129866000Y-131400000D01*
X130500673Y-131400000D01*
X130610936Y-131354328D01*
X130695328Y-131269937D01*
X130741000Y-131159674D01*
X130741000Y-130525000D01*
X131541000Y-130525000D01*
X131541000Y-131159674D01*
X131586672Y-131269937D01*
X131671064Y-131354328D01*
X131781327Y-131400000D01*
X132266000Y-131400000D01*
X132341000Y-131325000D01*
X132341000Y-130450000D01*
X131616000Y-130450000D01*
X131541000Y-130525000D01*
X130741000Y-130525000D01*
X130666000Y-130450000D01*
X129791000Y-130450000D01*
X129591000Y-130450000D01*
X129571000Y-130450000D01*
X129571000Y-130250000D01*
X129591000Y-130250000D01*
X129591000Y-129375000D01*
X129791000Y-129375000D01*
X129791000Y-130250000D01*
X130666000Y-130250000D01*
X130741000Y-130175000D01*
X130741000Y-129540326D01*
X131541000Y-129540326D01*
X131541000Y-130175000D01*
X131616000Y-130250000D01*
X132341000Y-130250000D01*
X132341000Y-129375000D01*
X132266000Y-129300000D01*
X131781327Y-129300000D01*
X131671064Y-129345672D01*
X131586672Y-129430063D01*
X131541000Y-129540326D01*
X130741000Y-129540326D01*
X130695328Y-129430063D01*
X130610936Y-129345672D01*
X130500673Y-129300000D01*
X129866000Y-129300000D01*
X129791000Y-129375000D01*
X129591000Y-129375000D01*
X129516000Y-129300000D01*
X128899000Y-129300000D01*
X128899000Y-128825000D01*
X129116000Y-128825000D01*
X129191000Y-128750000D01*
X129191000Y-128400000D01*
X129391000Y-128400000D01*
X129391000Y-128750000D01*
X129466000Y-128825000D01*
X130000673Y-128825000D01*
X130110936Y-128779328D01*
X130195328Y-128694937D01*
X130241000Y-128584674D01*
X130241000Y-128475000D01*
X130166000Y-128400000D01*
X129391000Y-128400000D01*
X129191000Y-128400000D01*
X129171000Y-128400000D01*
X129171000Y-128200000D01*
X129191000Y-128200000D01*
X129191000Y-127750000D01*
X129391000Y-127750000D01*
X129391000Y-128200000D01*
X130166000Y-128200000D01*
X130241000Y-128125000D01*
X130241000Y-128015326D01*
X130224297Y-127975000D01*
X130241000Y-127934674D01*
X130241000Y-127825000D01*
X130166000Y-127750000D01*
X129391000Y-127750000D01*
X129191000Y-127750000D01*
X128533915Y-127750000D01*
X128413507Y-127669545D01*
X128270000Y-127641000D01*
X123001356Y-127641000D01*
X123089074Y-127623552D01*
X123218843Y-127536843D01*
X123409715Y-127345971D01*
X123562824Y-127346104D01*
X123783429Y-127254952D01*
X123952359Y-127086317D01*
X124043896Y-126865871D01*
X124044104Y-126627176D01*
X123952952Y-126406571D01*
X123784317Y-126237641D01*
X123563871Y-126146104D01*
X123325176Y-126145896D01*
X123104571Y-126237048D01*
X122935641Y-126405683D01*
X122844104Y-126626129D01*
X122843970Y-126780345D01*
X122770314Y-126854000D01*
X118061120Y-126854000D01*
X118109173Y-126844958D01*
X118211279Y-126779255D01*
X118279778Y-126679003D01*
X118303877Y-126560000D01*
X118303877Y-125885000D01*
X118455000Y-125885000D01*
X118455000Y-126519674D01*
X118500672Y-126629937D01*
X118585064Y-126714328D01*
X118695327Y-126760000D01*
X119205000Y-126760000D01*
X119280000Y-126685000D01*
X119280000Y-125810000D01*
X119480000Y-125810000D01*
X119480000Y-126685000D01*
X119555000Y-126760000D01*
X120064673Y-126760000D01*
X120174936Y-126714328D01*
X120259328Y-126629937D01*
X120305000Y-126519674D01*
X120305000Y-125885000D01*
X120487000Y-125885000D01*
X120487000Y-126519674D01*
X120532672Y-126629937D01*
X120617064Y-126714328D01*
X120727327Y-126760000D01*
X121237000Y-126760000D01*
X121312000Y-126685000D01*
X121312000Y-125810000D01*
X121512000Y-125810000D01*
X121512000Y-126685000D01*
X121587000Y-126760000D01*
X122096673Y-126760000D01*
X122206936Y-126714328D01*
X122291328Y-126629937D01*
X122337000Y-126519674D01*
X122337000Y-125885000D01*
X122262000Y-125810000D01*
X121512000Y-125810000D01*
X121312000Y-125810000D01*
X120562000Y-125810000D01*
X120487000Y-125885000D01*
X120305000Y-125885000D01*
X120230000Y-125810000D01*
X119480000Y-125810000D01*
X119280000Y-125810000D01*
X118530000Y-125810000D01*
X118455000Y-125885000D01*
X118303877Y-125885000D01*
X118303877Y-125419809D01*
X118455000Y-125268686D01*
X118455000Y-125535000D01*
X118530000Y-125610000D01*
X119280000Y-125610000D01*
X119280000Y-124735000D01*
X119480000Y-124735000D01*
X119480000Y-125610000D01*
X120230000Y-125610000D01*
X120305000Y-125535000D01*
X120305000Y-124900326D01*
X120259328Y-124790063D01*
X120174936Y-124705672D01*
X120064673Y-124660000D01*
X119555000Y-124660000D01*
X119480000Y-124735000D01*
X119280000Y-124735000D01*
X119205000Y-124660000D01*
X119063686Y-124660000D01*
X119457809Y-124265877D01*
X119870191Y-124265877D01*
X120347157Y-124742843D01*
X120476926Y-124829552D01*
X120513317Y-124836791D01*
X120487000Y-124900326D01*
X120487000Y-125535000D01*
X120562000Y-125610000D01*
X121312000Y-125610000D01*
X121312000Y-125590000D01*
X121512000Y-125590000D01*
X121512000Y-125610000D01*
X122262000Y-125610000D01*
X122337000Y-125535000D01*
X122337000Y-124900326D01*
X122320297Y-124860000D01*
X124183199Y-124860000D01*
X124061462Y-124981525D01*
X123924157Y-125312194D01*
X123923844Y-125670236D01*
X124060572Y-126001143D01*
X124313525Y-126254538D01*
X124644194Y-126391843D01*
X125002236Y-126392156D01*
X125333143Y-126255428D01*
X125586538Y-126002475D01*
X125723843Y-125671806D01*
X125723969Y-125527655D01*
X127479155Y-127282840D01*
X127479157Y-127282843D01*
X127608927Y-127369552D01*
X127762000Y-127400000D01*
X128341000Y-127400000D01*
X128341000Y-127475000D01*
X128416000Y-127550000D01*
X129191000Y-127550000D01*
X129191000Y-127530877D01*
X129391000Y-127530877D01*
X129391000Y-127550000D01*
X130166000Y-127550000D01*
X130241000Y-127475000D01*
X130241000Y-127365326D01*
X130225861Y-127328778D01*
X130246877Y-127225000D01*
X130246877Y-126775000D01*
X130227370Y-126671329D01*
X130246877Y-126575000D01*
X130246877Y-126125000D01*
X130227370Y-126021329D01*
X130246877Y-125925000D01*
X130246877Y-125475000D01*
X130225958Y-125363827D01*
X130160255Y-125261721D01*
X130060003Y-125193222D01*
X129941000Y-125169123D01*
X128641000Y-125169123D01*
X128529827Y-125190042D01*
X128427721Y-125255745D01*
X128397483Y-125300000D01*
X128151685Y-125300000D01*
X127634000Y-124782314D01*
X127634000Y-123866877D01*
X127984000Y-123866877D01*
X128095173Y-123845958D01*
X128127742Y-123825000D01*
X128641000Y-123825000D01*
X128641000Y-124459674D01*
X128686672Y-124569937D01*
X128771064Y-124654328D01*
X128881327Y-124700000D01*
X129516000Y-124700000D01*
X129591000Y-124625000D01*
X129591000Y-123750000D01*
X129791000Y-123750000D01*
X129791000Y-124625000D01*
X129866000Y-124700000D01*
X130500673Y-124700000D01*
X130610936Y-124654328D01*
X130695328Y-124569937D01*
X130741000Y-124459674D01*
X130741000Y-123825000D01*
X131541000Y-123825000D01*
X131541000Y-124459674D01*
X131586672Y-124569937D01*
X131671064Y-124654328D01*
X131781327Y-124700000D01*
X132266000Y-124700000D01*
X132341000Y-124625000D01*
X132341000Y-123750000D01*
X131616000Y-123750000D01*
X131541000Y-123825000D01*
X130741000Y-123825000D01*
X130666000Y-123750000D01*
X129791000Y-123750000D01*
X129591000Y-123750000D01*
X128716000Y-123750000D01*
X128641000Y-123825000D01*
X128127742Y-123825000D01*
X128197279Y-123780255D01*
X128265778Y-123680003D01*
X128289877Y-123561000D01*
X128289877Y-122840326D01*
X128641000Y-122840326D01*
X128641000Y-123475000D01*
X128716000Y-123550000D01*
X129591000Y-123550000D01*
X129591000Y-122675000D01*
X129791000Y-122675000D01*
X129791000Y-123550000D01*
X130666000Y-123550000D01*
X130741000Y-123475000D01*
X130741000Y-122840326D01*
X131541000Y-122840326D01*
X131541000Y-123475000D01*
X131616000Y-123550000D01*
X132341000Y-123550000D01*
X132341000Y-122675000D01*
X132266000Y-122600000D01*
X131781327Y-122600000D01*
X131671064Y-122645672D01*
X131586672Y-122730063D01*
X131541000Y-122840326D01*
X130741000Y-122840326D01*
X130695328Y-122730063D01*
X130610936Y-122645672D01*
X130500673Y-122600000D01*
X129866000Y-122600000D01*
X129791000Y-122675000D01*
X129591000Y-122675000D01*
X129516000Y-122600000D01*
X128881327Y-122600000D01*
X128771064Y-122645672D01*
X128686672Y-122730063D01*
X128641000Y-122840326D01*
X128289877Y-122840326D01*
X128289877Y-122311000D01*
X128268958Y-122199827D01*
X128203255Y-122097721D01*
X128103003Y-122029222D01*
X127984000Y-122005123D01*
X127634000Y-122005123D01*
X127634000Y-121859877D01*
X128084000Y-121859877D01*
X128195173Y-121838958D01*
X128297279Y-121773255D01*
X128365778Y-121673003D01*
X128389877Y-121554000D01*
X128389877Y-120254000D01*
X128368958Y-120142827D01*
X128303255Y-120040721D01*
X128203003Y-119972222D01*
X128084000Y-119948123D01*
X126584000Y-119948123D01*
X126472827Y-119969042D01*
X126370721Y-120034745D01*
X126302222Y-120134997D01*
X126278123Y-120254000D01*
X126278123Y-121554000D01*
X126299042Y-121665173D01*
X126364745Y-121767279D01*
X126464997Y-121835778D01*
X126584000Y-121859877D01*
X126834000Y-121859877D01*
X126834000Y-122005123D01*
X126484000Y-122005123D01*
X126372827Y-122026042D01*
X126270721Y-122091745D01*
X126202222Y-122191997D01*
X126178123Y-122311000D01*
X126178123Y-123561000D01*
X126199042Y-123672173D01*
X126264745Y-123774279D01*
X126364997Y-123842778D01*
X126484000Y-123866877D01*
X126834000Y-123866877D01*
X126834000Y-124744314D01*
X125762431Y-123672745D01*
X125784000Y-123620673D01*
X125784000Y-123111000D01*
X125709000Y-123036000D01*
X124834000Y-123036000D01*
X124834000Y-123056000D01*
X124634000Y-123056000D01*
X124634000Y-123036000D01*
X123759000Y-123036000D01*
X123684000Y-123111000D01*
X123684000Y-123147986D01*
X123563871Y-123098104D01*
X123325176Y-123097896D01*
X123104571Y-123189048D01*
X122935641Y-123357683D01*
X122854954Y-123552000D01*
X122342877Y-123552000D01*
X122342877Y-122460000D01*
X122321958Y-122348827D01*
X122259219Y-122251327D01*
X123684000Y-122251327D01*
X123684000Y-122761000D01*
X123759000Y-122836000D01*
X124634000Y-122836000D01*
X124634000Y-122086000D01*
X124834000Y-122086000D01*
X124834000Y-122836000D01*
X125709000Y-122836000D01*
X125784000Y-122761000D01*
X125784000Y-122251327D01*
X125738328Y-122141064D01*
X125653937Y-122056672D01*
X125543674Y-122011000D01*
X124909000Y-122011000D01*
X124834000Y-122086000D01*
X124634000Y-122086000D01*
X124559000Y-122011000D01*
X123924326Y-122011000D01*
X123814063Y-122056672D01*
X123729672Y-122141064D01*
X123684000Y-122251327D01*
X122259219Y-122251327D01*
X122256255Y-122246721D01*
X122156003Y-122178222D01*
X122037000Y-122154123D01*
X120787000Y-122154123D01*
X120675827Y-122175042D01*
X120573721Y-122240745D01*
X120505222Y-122340997D01*
X120481123Y-122460000D01*
X120481123Y-123745437D01*
X120310877Y-123575191D01*
X120310877Y-122460000D01*
X120289958Y-122348827D01*
X120224255Y-122246721D01*
X120124003Y-122178222D01*
X120005000Y-122154123D01*
X118755000Y-122154123D01*
X118643827Y-122175042D01*
X118541721Y-122240745D01*
X118473222Y-122340997D01*
X118449123Y-122460000D01*
X118449123Y-123960000D01*
X118470042Y-124071173D01*
X118490049Y-124102265D01*
X117838191Y-124754123D01*
X116698000Y-124754123D01*
X116586827Y-124775042D01*
X116484721Y-124840745D01*
X116416222Y-124940997D01*
X116392123Y-125060000D01*
X116392123Y-126560000D01*
X116413042Y-126671173D01*
X116478745Y-126773279D01*
X116578997Y-126841778D01*
X116639350Y-126854000D01*
X116243686Y-126854000D01*
X115542000Y-126152314D01*
X115542000Y-123891877D01*
X115892000Y-123891877D01*
X116003173Y-123870958D01*
X116105279Y-123805255D01*
X116173778Y-123705003D01*
X116197877Y-123586000D01*
X116197877Y-122286000D01*
X116176958Y-122174827D01*
X116111255Y-122072721D01*
X116011003Y-122004222D01*
X115892000Y-121980123D01*
X114392000Y-121980123D01*
X114280827Y-122001042D01*
X114178721Y-122066745D01*
X114110222Y-122166997D01*
X114086123Y-122286000D01*
X114086123Y-123586000D01*
X114107042Y-123697173D01*
X114172745Y-123799279D01*
X114272997Y-123867778D01*
X114392000Y-123891877D01*
X114742000Y-123891877D01*
X114742000Y-126318000D01*
X114772448Y-126471074D01*
X114859157Y-126600843D01*
X115795157Y-127536843D01*
X115924926Y-127623552D01*
X116012644Y-127641000D01*
X108579000Y-127641000D01*
X108579000Y-124869000D01*
X108803000Y-124869000D01*
X108803000Y-125503674D01*
X108848672Y-125613937D01*
X108933064Y-125698328D01*
X109043327Y-125744000D01*
X109553000Y-125744000D01*
X109628000Y-125669000D01*
X109628000Y-124794000D01*
X109828000Y-124794000D01*
X109828000Y-125669000D01*
X109903000Y-125744000D01*
X110412673Y-125744000D01*
X110522936Y-125698328D01*
X110551028Y-125670236D01*
X111923844Y-125670236D01*
X112060572Y-126001143D01*
X112313525Y-126254538D01*
X112644194Y-126391843D01*
X113002236Y-126392156D01*
X113333143Y-126255428D01*
X113586538Y-126002475D01*
X113723843Y-125671806D01*
X113724156Y-125313764D01*
X113587428Y-124982857D01*
X113334475Y-124729462D01*
X113003806Y-124592157D01*
X112645764Y-124591844D01*
X112314857Y-124728572D01*
X112061462Y-124981525D01*
X111924157Y-125312194D01*
X111923844Y-125670236D01*
X110551028Y-125670236D01*
X110607328Y-125613937D01*
X110653000Y-125503674D01*
X110653000Y-124869000D01*
X110578000Y-124794000D01*
X109828000Y-124794000D01*
X109628000Y-124794000D01*
X108878000Y-124794000D01*
X108803000Y-124869000D01*
X108579000Y-124869000D01*
X108579000Y-123884326D01*
X108803000Y-123884326D01*
X108803000Y-124519000D01*
X108878000Y-124594000D01*
X109628000Y-124594000D01*
X109628000Y-123719000D01*
X109828000Y-123719000D01*
X109828000Y-124594000D01*
X110578000Y-124594000D01*
X110653000Y-124519000D01*
X110653000Y-123884326D01*
X110607328Y-123774063D01*
X110522936Y-123689672D01*
X110412673Y-123644000D01*
X109903000Y-123644000D01*
X109828000Y-123719000D01*
X109628000Y-123719000D01*
X109553000Y-123644000D01*
X109043327Y-123644000D01*
X108933064Y-123689672D01*
X108848672Y-123774063D01*
X108803000Y-123884326D01*
X108579000Y-123884326D01*
X108579000Y-116264000D01*
X108772123Y-116264000D01*
X108772123Y-117764000D01*
X108793042Y-117875173D01*
X108858745Y-117977279D01*
X108958997Y-118045778D01*
X109078000Y-118069877D01*
X109200460Y-118069877D01*
X109128104Y-118244129D01*
X109127896Y-118482824D01*
X109200328Y-118658123D01*
X109078000Y-118658123D01*
X108966827Y-118679042D01*
X108864721Y-118744745D01*
X108796222Y-118844997D01*
X108772123Y-118964000D01*
X108772123Y-120464000D01*
X108793042Y-120575173D01*
X108858745Y-120677279D01*
X108958997Y-120745778D01*
X109078000Y-120769877D01*
X109328000Y-120769877D01*
X109328000Y-121138123D01*
X109103000Y-121138123D01*
X108991827Y-121159042D01*
X108889721Y-121224745D01*
X108821222Y-121324997D01*
X108797123Y-121444000D01*
X108797123Y-122944000D01*
X108818042Y-123055173D01*
X108883745Y-123157279D01*
X108983997Y-123225778D01*
X109103000Y-123249877D01*
X110353000Y-123249877D01*
X110464173Y-123228958D01*
X110566279Y-123163255D01*
X110634778Y-123063003D01*
X110658877Y-122944000D01*
X110658877Y-121444000D01*
X110637958Y-121332827D01*
X110572255Y-121230721D01*
X110472003Y-121162222D01*
X110353000Y-121138123D01*
X110128000Y-121138123D01*
X110128000Y-120769877D01*
X110378000Y-120769877D01*
X110489173Y-120748958D01*
X110591279Y-120683255D01*
X110659778Y-120583003D01*
X110683877Y-120464000D01*
X110683877Y-120224500D01*
X111309211Y-120224500D01*
X111302123Y-120259500D01*
X111302123Y-120659500D01*
X111323042Y-120770673D01*
X111326204Y-120775587D01*
X111302123Y-120894500D01*
X111302123Y-121294500D01*
X111323042Y-121405673D01*
X111388745Y-121507779D01*
X111488997Y-121576278D01*
X111608000Y-121600377D01*
X111808000Y-121600377D01*
X111808000Y-121980123D01*
X111692000Y-121980123D01*
X111580827Y-122001042D01*
X111478721Y-122066745D01*
X111410222Y-122166997D01*
X111386123Y-122286000D01*
X111386123Y-123586000D01*
X111407042Y-123697173D01*
X111472745Y-123799279D01*
X111572997Y-123867778D01*
X111692000Y-123891877D01*
X113192000Y-123891877D01*
X113303173Y-123870958D01*
X113405279Y-123805255D01*
X113473778Y-123705003D01*
X113497877Y-123586000D01*
X113497877Y-122286000D01*
X113476958Y-122174827D01*
X113411255Y-122072721D01*
X113311003Y-122004222D01*
X113192000Y-121980123D01*
X112608000Y-121980123D01*
X112608000Y-121600377D01*
X112808000Y-121600377D01*
X112919173Y-121579458D01*
X113021279Y-121513755D01*
X113089778Y-121413503D01*
X113113877Y-121294500D01*
X113113877Y-120894500D01*
X113092958Y-120783327D01*
X113089796Y-120778413D01*
X113113877Y-120659500D01*
X113113877Y-120259500D01*
X113107291Y-120224500D01*
X114363500Y-120224500D01*
X114516574Y-120194052D01*
X114646343Y-120107343D01*
X114746862Y-120006824D01*
X115477896Y-120006824D01*
X115569048Y-120227429D01*
X115737683Y-120396359D01*
X115958129Y-120487896D01*
X116196824Y-120488104D01*
X116417429Y-120396952D01*
X116502123Y-120312406D01*
X116502123Y-120659500D01*
X116523042Y-120770673D01*
X116526204Y-120775587D01*
X116502123Y-120894500D01*
X116502123Y-121294500D01*
X116523042Y-121405673D01*
X116588745Y-121507779D01*
X116688997Y-121576278D01*
X116808000Y-121600377D01*
X116948000Y-121600377D01*
X116948000Y-122054123D01*
X116698000Y-122054123D01*
X116586827Y-122075042D01*
X116484721Y-122140745D01*
X116416222Y-122240997D01*
X116392123Y-122360000D01*
X116392123Y-123860000D01*
X116413042Y-123971173D01*
X116478745Y-124073279D01*
X116578997Y-124141778D01*
X116698000Y-124165877D01*
X117998000Y-124165877D01*
X118109173Y-124144958D01*
X118211279Y-124079255D01*
X118279778Y-123979003D01*
X118303877Y-123860000D01*
X118303877Y-122360000D01*
X118282958Y-122248827D01*
X118217255Y-122146721D01*
X118117003Y-122078222D01*
X117998000Y-122054123D01*
X117748000Y-122054123D01*
X117748000Y-121600377D01*
X118008000Y-121600377D01*
X118119173Y-121579458D01*
X118221279Y-121513755D01*
X118289778Y-121413503D01*
X118313877Y-121294500D01*
X118313877Y-121079000D01*
X118604000Y-121079000D01*
X118604000Y-121588673D01*
X118649672Y-121698936D01*
X118734063Y-121783328D01*
X118844326Y-121829000D01*
X119479000Y-121829000D01*
X119554000Y-121754000D01*
X119554000Y-121004000D01*
X118679000Y-121004000D01*
X118604000Y-121079000D01*
X118313877Y-121079000D01*
X118313877Y-120894500D01*
X118292958Y-120783327D01*
X118289796Y-120778413D01*
X118313877Y-120659500D01*
X118313877Y-120259500D01*
X118306318Y-120219327D01*
X118604000Y-120219327D01*
X118604000Y-120729000D01*
X118679000Y-120804000D01*
X119554000Y-120804000D01*
X119554000Y-120054000D01*
X119479000Y-119979000D01*
X118844326Y-119979000D01*
X118734063Y-120024672D01*
X118649672Y-120109064D01*
X118604000Y-120219327D01*
X118306318Y-120219327D01*
X118292958Y-120148327D01*
X118289796Y-120143413D01*
X118313877Y-120024500D01*
X118313877Y-119624500D01*
X118292958Y-119513327D01*
X118285943Y-119502425D01*
X118308000Y-119449173D01*
X118308000Y-119364500D01*
X118233000Y-119289500D01*
X117508000Y-119289500D01*
X117508000Y-119309500D01*
X117308000Y-119309500D01*
X117308000Y-119289500D01*
X116583000Y-119289500D01*
X116508000Y-119364500D01*
X116508000Y-119424500D01*
X116463098Y-119424500D01*
X116418317Y-119379641D01*
X116197871Y-119288104D01*
X115959176Y-119287896D01*
X115738571Y-119379048D01*
X115569641Y-119547683D01*
X115478104Y-119768129D01*
X115477896Y-120006824D01*
X114746862Y-120006824D01*
X116434186Y-118319500D01*
X116509211Y-118319500D01*
X116502123Y-118354500D01*
X116502123Y-118754500D01*
X116523042Y-118865673D01*
X116530057Y-118876575D01*
X116508000Y-118929827D01*
X116508000Y-119014500D01*
X116583000Y-119089500D01*
X117308000Y-119089500D01*
X117308000Y-119069500D01*
X117508000Y-119069500D01*
X117508000Y-119089500D01*
X118233000Y-119089500D01*
X118308000Y-119014500D01*
X118308000Y-118954500D01*
X118424123Y-118954500D01*
X118424123Y-119448000D01*
X118445042Y-119559173D01*
X118510745Y-119661279D01*
X118610997Y-119729778D01*
X118730000Y-119753877D01*
X120030000Y-119753877D01*
X120141173Y-119732958D01*
X120243279Y-119667255D01*
X120311778Y-119567003D01*
X120335877Y-119448000D01*
X120335877Y-118307809D01*
X120479123Y-118164563D01*
X120479123Y-118365000D01*
X120498630Y-118468671D01*
X120479123Y-118565000D01*
X120479123Y-119015000D01*
X120500042Y-119126173D01*
X120565745Y-119228279D01*
X120665997Y-119296778D01*
X120785000Y-119320877D01*
X121475191Y-119320877D01*
X121754000Y-119599685D01*
X121754000Y-119973123D01*
X121404000Y-119973123D01*
X121292827Y-119994042D01*
X121190721Y-120059745D01*
X121122222Y-120159997D01*
X121098123Y-120279000D01*
X121098123Y-120303947D01*
X121039176Y-120303896D01*
X120818571Y-120395048D01*
X120704000Y-120509419D01*
X120704000Y-120219327D01*
X120658328Y-120109064D01*
X120573937Y-120024672D01*
X120463674Y-119979000D01*
X119829000Y-119979000D01*
X119754000Y-120054000D01*
X119754000Y-120804000D01*
X119774000Y-120804000D01*
X119774000Y-121004000D01*
X119754000Y-121004000D01*
X119754000Y-121754000D01*
X119829000Y-121829000D01*
X120463674Y-121829000D01*
X120573937Y-121783328D01*
X120658328Y-121698936D01*
X120704000Y-121588673D01*
X120704000Y-121298477D01*
X120817683Y-121412359D01*
X121038129Y-121503896D01*
X121098123Y-121503948D01*
X121098123Y-121529000D01*
X121119042Y-121640173D01*
X121184745Y-121742279D01*
X121284997Y-121810778D01*
X121404000Y-121834877D01*
X122904000Y-121834877D01*
X123015173Y-121813958D01*
X123117279Y-121748255D01*
X123185778Y-121648003D01*
X123209877Y-121529000D01*
X123209877Y-121304000D01*
X123578123Y-121304000D01*
X123578123Y-121554000D01*
X123599042Y-121665173D01*
X123664745Y-121767279D01*
X123764997Y-121835778D01*
X123884000Y-121859877D01*
X125384000Y-121859877D01*
X125495173Y-121838958D01*
X125597279Y-121773255D01*
X125665778Y-121673003D01*
X125689877Y-121554000D01*
X125689877Y-120254000D01*
X125668958Y-120142827D01*
X125603255Y-120040721D01*
X125503003Y-119972222D01*
X125384000Y-119948123D01*
X123884000Y-119948123D01*
X123772827Y-119969042D01*
X123670721Y-120034745D01*
X123602222Y-120134997D01*
X123578123Y-120254000D01*
X123578123Y-120504000D01*
X123209877Y-120504000D01*
X123209877Y-120279000D01*
X123188958Y-120167827D01*
X123123255Y-120065721D01*
X123023003Y-119997222D01*
X122904000Y-119973123D01*
X122554000Y-119973123D01*
X122554000Y-119434005D01*
X122554001Y-119434000D01*
X122523552Y-119280927D01*
X122499429Y-119244824D01*
X122470569Y-119201632D01*
X122516778Y-119134003D01*
X122540877Y-119015000D01*
X122540877Y-118565000D01*
X122536173Y-118540000D01*
X123025461Y-118540000D01*
X123103683Y-118618359D01*
X123324129Y-118709896D01*
X123562824Y-118710104D01*
X123783429Y-118618952D01*
X123952359Y-118450317D01*
X124043896Y-118229871D01*
X124044104Y-117991176D01*
X123952952Y-117770571D01*
X123784317Y-117601641D01*
X123764340Y-117593346D01*
X123980840Y-117376845D01*
X123980843Y-117376843D01*
X124067552Y-117247073D01*
X124071320Y-117228129D01*
X124098001Y-117094000D01*
X124098000Y-117093995D01*
X124098000Y-115570000D01*
X124079721Y-115478104D01*
X124067552Y-115416926D01*
X123980843Y-115287157D01*
X122885686Y-114192000D01*
X124294314Y-114192000D01*
X124314000Y-114211686D01*
X124314000Y-118110000D01*
X124344448Y-118263074D01*
X124431157Y-118392843D01*
X124622029Y-118583715D01*
X124621896Y-118736824D01*
X124713048Y-118957429D01*
X124881683Y-119126359D01*
X125102129Y-119217896D01*
X125340824Y-119218104D01*
X125561429Y-119126952D01*
X125723664Y-118965000D01*
X126385000Y-118965000D01*
X126385000Y-119074673D01*
X126430672Y-119184936D01*
X126515063Y-119269328D01*
X126625326Y-119315000D01*
X127235000Y-119315000D01*
X127310000Y-119240000D01*
X127310000Y-118890000D01*
X127510000Y-118890000D01*
X127510000Y-119240000D01*
X127585000Y-119315000D01*
X128194674Y-119315000D01*
X128304937Y-119269328D01*
X128389328Y-119184936D01*
X128435000Y-119074673D01*
X128435000Y-118965000D01*
X128360000Y-118890000D01*
X127510000Y-118890000D01*
X127310000Y-118890000D01*
X126460000Y-118890000D01*
X126385000Y-118965000D01*
X125723664Y-118965000D01*
X125730359Y-118958317D01*
X125821896Y-118737871D01*
X125822030Y-118583656D01*
X125865686Y-118540000D01*
X126385000Y-118540000D01*
X126385000Y-118615000D01*
X126460000Y-118690000D01*
X127310000Y-118690000D01*
X127310000Y-118670877D01*
X127510000Y-118670877D01*
X127510000Y-118690000D01*
X128360000Y-118690000D01*
X128435000Y-118615000D01*
X128435000Y-118505327D01*
X128419861Y-118468778D01*
X128440877Y-118365000D01*
X128440877Y-117915000D01*
X128434218Y-117879613D01*
X128535074Y-117859552D01*
X128664843Y-117772843D01*
X128806840Y-117630845D01*
X128806843Y-117630843D01*
X128893552Y-117501073D01*
X128924000Y-117348000D01*
X128924000Y-113458005D01*
X128924001Y-113458000D01*
X128897877Y-113326669D01*
X128897877Y-112126000D01*
X128876958Y-112014827D01*
X128811255Y-111912721D01*
X128711003Y-111844222D01*
X128592000Y-111820123D01*
X127092000Y-111820123D01*
X126980827Y-111841042D01*
X126878721Y-111906745D01*
X126810222Y-112006997D01*
X126786123Y-112126000D01*
X126786123Y-113426000D01*
X126789893Y-113446038D01*
X126627176Y-113445896D01*
X126406571Y-113537048D01*
X126237641Y-113705683D01*
X126146104Y-113926129D01*
X126145896Y-114164824D01*
X126237048Y-114385429D01*
X126402229Y-114550899D01*
X126388628Y-114618064D01*
X126324317Y-114553641D01*
X126103871Y-114462104D01*
X125865176Y-114461896D01*
X125644571Y-114553048D01*
X125475641Y-114721683D01*
X125384104Y-114942129D01*
X125383896Y-115180824D01*
X125401709Y-115223935D01*
X125357176Y-115223896D01*
X125136571Y-115315048D01*
X125114000Y-115337580D01*
X125114000Y-114046000D01*
X125093925Y-113945074D01*
X125083552Y-113892926D01*
X124996843Y-113763157D01*
X124965563Y-113731877D01*
X125892000Y-113731877D01*
X126003173Y-113710958D01*
X126105279Y-113645255D01*
X126173778Y-113545003D01*
X126197877Y-113426000D01*
X126197877Y-112320829D01*
X126323429Y-112268952D01*
X126492359Y-112100317D01*
X126583896Y-111879871D01*
X126584104Y-111641176D01*
X126492952Y-111420571D01*
X126324317Y-111251641D01*
X126103871Y-111160104D01*
X125865176Y-111159896D01*
X125644571Y-111251048D01*
X125475641Y-111419683D01*
X125384104Y-111640129D01*
X125383970Y-111794344D01*
X125358191Y-111820123D01*
X124392000Y-111820123D01*
X124280827Y-111841042D01*
X124178721Y-111906745D01*
X124110222Y-112006997D01*
X124086123Y-112126000D01*
X124086123Y-113392000D01*
X123817877Y-113392000D01*
X123817877Y-112126000D01*
X123796958Y-112014827D01*
X123731255Y-111912721D01*
X123631003Y-111844222D01*
X123512000Y-111820123D01*
X122012000Y-111820123D01*
X121900827Y-111841042D01*
X121842354Y-111878668D01*
X121757971Y-111794285D01*
X121758104Y-111641176D01*
X121666952Y-111420571D01*
X121498317Y-111251641D01*
X121277871Y-111160104D01*
X121039176Y-111159896D01*
X120818571Y-111251048D01*
X120649641Y-111419683D01*
X120558104Y-111640129D01*
X120557947Y-111820123D01*
X119312000Y-111820123D01*
X119217933Y-111837823D01*
X119218104Y-111641176D01*
X119126952Y-111420571D01*
X118958317Y-111251641D01*
X118737871Y-111160104D01*
X118499176Y-111159896D01*
X118278571Y-111251048D01*
X118109641Y-111419683D01*
X118018104Y-111640129D01*
X118017896Y-111878824D01*
X118109048Y-112099429D01*
X118218000Y-112208572D01*
X118218000Y-113284000D01*
X118248448Y-113437074D01*
X118335157Y-113566843D01*
X119710437Y-114942123D01*
X118730000Y-114942123D01*
X118618827Y-114963042D01*
X118516721Y-115028745D01*
X118448222Y-115128997D01*
X118424123Y-115248000D01*
X118424123Y-116748000D01*
X118445042Y-116859173D01*
X118482668Y-116917646D01*
X118313877Y-117086437D01*
X118313877Y-117084500D01*
X118292958Y-116973327D01*
X118289796Y-116968413D01*
X118313877Y-116849500D01*
X118313877Y-116449500D01*
X118292958Y-116338327D01*
X118227255Y-116236221D01*
X118195096Y-116214248D01*
X118201896Y-116197871D01*
X118202104Y-115959176D01*
X118110952Y-115738571D01*
X117942317Y-115569641D01*
X117721871Y-115478104D01*
X117483176Y-115477896D01*
X117262571Y-115569048D01*
X117093641Y-115737683D01*
X117002104Y-115958129D01*
X117001942Y-116143623D01*
X116808000Y-116143623D01*
X116696827Y-116164542D01*
X116594721Y-116230245D01*
X116526222Y-116330497D01*
X116502123Y-116449500D01*
X116502123Y-116849500D01*
X116508709Y-116884500D01*
X116463098Y-116884500D01*
X116418317Y-116839641D01*
X116197871Y-116748104D01*
X115959176Y-116747896D01*
X115738571Y-116839048D01*
X115569641Y-117007683D01*
X115478104Y-117228129D01*
X115477896Y-117466824D01*
X115569048Y-117687429D01*
X115737683Y-117856359D01*
X115757660Y-117864654D01*
X114934000Y-118688314D01*
X114934000Y-115738877D01*
X115284000Y-115738877D01*
X115395173Y-115717958D01*
X115497279Y-115652255D01*
X115565778Y-115552003D01*
X115589877Y-115433000D01*
X115589877Y-114183000D01*
X115568958Y-114071827D01*
X115503255Y-113969721D01*
X115403003Y-113901222D01*
X115284000Y-113877123D01*
X114934000Y-113877123D01*
X114934000Y-113706877D01*
X115284000Y-113706877D01*
X115395173Y-113685958D01*
X115497279Y-113620255D01*
X115565778Y-113520003D01*
X115589877Y-113401000D01*
X115589877Y-112151000D01*
X115568958Y-112039827D01*
X115503255Y-111937721D01*
X115403003Y-111869222D01*
X115284000Y-111845123D01*
X113784000Y-111845123D01*
X113672827Y-111866042D01*
X113570721Y-111931745D01*
X113502222Y-112031997D01*
X113478123Y-112151000D01*
X113478123Y-113401000D01*
X113499042Y-113512173D01*
X113564745Y-113614279D01*
X113664997Y-113682778D01*
X113784000Y-113706877D01*
X114134000Y-113706877D01*
X114134000Y-113877123D01*
X113784000Y-113877123D01*
X113672827Y-113898042D01*
X113570721Y-113963745D01*
X113502222Y-114063997D01*
X113478123Y-114183000D01*
X113478123Y-115433000D01*
X113499042Y-115544173D01*
X113564745Y-115646279D01*
X113664997Y-115714778D01*
X113784000Y-115738877D01*
X114134000Y-115738877D01*
X114134000Y-118619327D01*
X114132317Y-118617641D01*
X113911871Y-118526104D01*
X113673176Y-118525896D01*
X113452571Y-118617048D01*
X113283641Y-118785683D01*
X113282056Y-118789500D01*
X113108000Y-118789500D01*
X113108000Y-118729500D01*
X113033000Y-118654500D01*
X112308000Y-118654500D01*
X112308000Y-118674500D01*
X112108000Y-118674500D01*
X112108000Y-118654500D01*
X111383000Y-118654500D01*
X111308000Y-118729500D01*
X111308000Y-118814173D01*
X111329402Y-118865843D01*
X111326222Y-118870497D01*
X111302123Y-118989500D01*
X111302123Y-119389500D01*
X111308709Y-119424500D01*
X110683877Y-119424500D01*
X110683877Y-118964000D01*
X110662958Y-118852827D01*
X110597255Y-118750721D01*
X110497003Y-118682222D01*
X110378000Y-118658123D01*
X110255540Y-118658123D01*
X110327896Y-118483871D01*
X110328104Y-118245176D01*
X110255672Y-118069877D01*
X110378000Y-118069877D01*
X110489173Y-118048958D01*
X110591279Y-117983255D01*
X110659778Y-117883003D01*
X110683877Y-117764000D01*
X110683877Y-117439948D01*
X110862824Y-117440104D01*
X111083429Y-117348952D01*
X111252359Y-117180317D01*
X111311621Y-117037598D01*
X111302123Y-117084500D01*
X111302123Y-117484500D01*
X111323042Y-117595673D01*
X111326204Y-117600587D01*
X111302123Y-117719500D01*
X111302123Y-118119500D01*
X111323042Y-118230673D01*
X111330057Y-118241575D01*
X111308000Y-118294827D01*
X111308000Y-118379500D01*
X111383000Y-118454500D01*
X112108000Y-118454500D01*
X112108000Y-118434500D01*
X112308000Y-118434500D01*
X112308000Y-118454500D01*
X113033000Y-118454500D01*
X113108000Y-118379500D01*
X113108000Y-118294827D01*
X113086598Y-118243157D01*
X113089778Y-118238503D01*
X113113877Y-118119500D01*
X113113877Y-117719500D01*
X113092958Y-117608327D01*
X113089796Y-117603413D01*
X113113877Y-117484500D01*
X113113877Y-117084500D01*
X113092958Y-116973327D01*
X113089796Y-116968413D01*
X113113877Y-116849500D01*
X113113877Y-116449500D01*
X113092958Y-116338327D01*
X113027255Y-116236221D01*
X112927003Y-116167722D01*
X112808000Y-116143623D01*
X111608000Y-116143623D01*
X111496827Y-116164542D01*
X111394721Y-116230245D01*
X111326222Y-116330497D01*
X111302123Y-116449500D01*
X111302123Y-116619574D01*
X111252952Y-116500571D01*
X111084317Y-116331641D01*
X110863871Y-116240104D01*
X110679350Y-116239943D01*
X110662958Y-116152827D01*
X110597255Y-116050721D01*
X110497003Y-115982222D01*
X110378000Y-115958123D01*
X109078000Y-115958123D01*
X108966827Y-115979042D01*
X108864721Y-116044745D01*
X108796222Y-116144997D01*
X108772123Y-116264000D01*
X108579000Y-116264000D01*
X108579000Y-114983000D01*
X110984000Y-114983000D01*
X110984000Y-115492673D01*
X111029672Y-115602936D01*
X111114063Y-115687328D01*
X111224326Y-115733000D01*
X111859000Y-115733000D01*
X111934000Y-115658000D01*
X111934000Y-114908000D01*
X112134000Y-114908000D01*
X112134000Y-115658000D01*
X112209000Y-115733000D01*
X112843674Y-115733000D01*
X112953937Y-115687328D01*
X113038328Y-115602936D01*
X113084000Y-115492673D01*
X113084000Y-114983000D01*
X113009000Y-114908000D01*
X112134000Y-114908000D01*
X111934000Y-114908000D01*
X111059000Y-114908000D01*
X110984000Y-114983000D01*
X108579000Y-114983000D01*
X108579000Y-114123327D01*
X110984000Y-114123327D01*
X110984000Y-114633000D01*
X111059000Y-114708000D01*
X111934000Y-114708000D01*
X111934000Y-113958000D01*
X112134000Y-113958000D01*
X112134000Y-114708000D01*
X113009000Y-114708000D01*
X113084000Y-114633000D01*
X113084000Y-114123327D01*
X113038328Y-114013064D01*
X112953937Y-113928672D01*
X112843674Y-113883000D01*
X112209000Y-113883000D01*
X112134000Y-113958000D01*
X111934000Y-113958000D01*
X111859000Y-113883000D01*
X111224326Y-113883000D01*
X111114063Y-113928672D01*
X111029672Y-114013064D01*
X110984000Y-114123327D01*
X108579000Y-114123327D01*
X108579000Y-112951000D01*
X110984000Y-112951000D01*
X110984000Y-113460673D01*
X111029672Y-113570936D01*
X111114063Y-113655328D01*
X111224326Y-113701000D01*
X111859000Y-113701000D01*
X111934000Y-113626000D01*
X111934000Y-112876000D01*
X112134000Y-112876000D01*
X112134000Y-113626000D01*
X112209000Y-113701000D01*
X112843674Y-113701000D01*
X112953937Y-113655328D01*
X113038328Y-113570936D01*
X113084000Y-113460673D01*
X113084000Y-112951000D01*
X113009000Y-112876000D01*
X112134000Y-112876000D01*
X111934000Y-112876000D01*
X111059000Y-112876000D01*
X110984000Y-112951000D01*
X108579000Y-112951000D01*
X108579000Y-112091327D01*
X110984000Y-112091327D01*
X110984000Y-112601000D01*
X111059000Y-112676000D01*
X111934000Y-112676000D01*
X111934000Y-111926000D01*
X112134000Y-111926000D01*
X112134000Y-112676000D01*
X113009000Y-112676000D01*
X113084000Y-112601000D01*
X113084000Y-112091327D01*
X113038328Y-111981064D01*
X112953937Y-111896672D01*
X112843674Y-111851000D01*
X112209000Y-111851000D01*
X112134000Y-111926000D01*
X111934000Y-111926000D01*
X111859000Y-111851000D01*
X111224326Y-111851000D01*
X111114063Y-111896672D01*
X111029672Y-111981064D01*
X110984000Y-112091327D01*
X108579000Y-112091327D01*
X108579000Y-110611000D01*
X129165000Y-110611000D01*
X129165000Y-121412000D01*
X129165000Y-121412000D01*
G37*
X129165000Y-121412000D02*
X129193545Y-121555507D01*
X129274835Y-121677165D01*
X130036835Y-122439165D01*
X130158494Y-122520455D01*
X130302000Y-122549000D01*
X133229000Y-122549000D01*
X133229000Y-122663736D01*
X133210936Y-122645672D01*
X133100673Y-122600000D01*
X132616000Y-122600000D01*
X132541000Y-122675000D01*
X132541000Y-123550000D01*
X132561000Y-123550000D01*
X132561000Y-123750000D01*
X132541000Y-123750000D01*
X132541000Y-124625000D01*
X132616000Y-124700000D01*
X133100673Y-124700000D01*
X133210936Y-124654328D01*
X133229000Y-124636264D01*
X133229000Y-129363736D01*
X133210936Y-129345672D01*
X133100673Y-129300000D01*
X132616000Y-129300000D01*
X132541000Y-129375000D01*
X132541000Y-130250000D01*
X132561000Y-130250000D01*
X132561000Y-130450000D01*
X132541000Y-130450000D01*
X132541000Y-131325000D01*
X132616000Y-131400000D01*
X133100673Y-131400000D01*
X133210936Y-131354328D01*
X133229000Y-131336264D01*
X133229000Y-131705000D01*
X128899000Y-131705000D01*
X128899000Y-131400000D01*
X129516000Y-131400000D01*
X129591000Y-131325000D01*
X129591000Y-130450000D01*
X129791000Y-130450000D01*
X129791000Y-131325000D01*
X129866000Y-131400000D01*
X130500673Y-131400000D01*
X130610936Y-131354328D01*
X130695328Y-131269937D01*
X130741000Y-131159674D01*
X130741000Y-130525000D01*
X131541000Y-130525000D01*
X131541000Y-131159674D01*
X131586672Y-131269937D01*
X131671064Y-131354328D01*
X131781327Y-131400000D01*
X132266000Y-131400000D01*
X132341000Y-131325000D01*
X132341000Y-130450000D01*
X131616000Y-130450000D01*
X131541000Y-130525000D01*
X130741000Y-130525000D01*
X130666000Y-130450000D01*
X129791000Y-130450000D01*
X129591000Y-130450000D01*
X129571000Y-130450000D01*
X129571000Y-130250000D01*
X129591000Y-130250000D01*
X129591000Y-129375000D01*
X129791000Y-129375000D01*
X129791000Y-130250000D01*
X130666000Y-130250000D01*
X130741000Y-130175000D01*
X130741000Y-129540326D01*
X131541000Y-129540326D01*
X131541000Y-130175000D01*
X131616000Y-130250000D01*
X132341000Y-130250000D01*
X132341000Y-129375000D01*
X132266000Y-129300000D01*
X131781327Y-129300000D01*
X131671064Y-129345672D01*
X131586672Y-129430063D01*
X131541000Y-129540326D01*
X130741000Y-129540326D01*
X130695328Y-129430063D01*
X130610936Y-129345672D01*
X130500673Y-129300000D01*
X129866000Y-129300000D01*
X129791000Y-129375000D01*
X129591000Y-129375000D01*
X129516000Y-129300000D01*
X128899000Y-129300000D01*
X128899000Y-128825000D01*
X129116000Y-128825000D01*
X129191000Y-128750000D01*
X129191000Y-128400000D01*
X129391000Y-128400000D01*
X129391000Y-128750000D01*
X129466000Y-128825000D01*
X130000673Y-128825000D01*
X130110936Y-128779328D01*
X130195328Y-128694937D01*
X130241000Y-128584674D01*
X130241000Y-128475000D01*
X130166000Y-128400000D01*
X129391000Y-128400000D01*
X129191000Y-128400000D01*
X129171000Y-128400000D01*
X129171000Y-128200000D01*
X129191000Y-128200000D01*
X129191000Y-127750000D01*
X129391000Y-127750000D01*
X129391000Y-128200000D01*
X130166000Y-128200000D01*
X130241000Y-128125000D01*
X130241000Y-128015326D01*
X130224297Y-127975000D01*
X130241000Y-127934674D01*
X130241000Y-127825000D01*
X130166000Y-127750000D01*
X129391000Y-127750000D01*
X129191000Y-127750000D01*
X128533915Y-127750000D01*
X128413507Y-127669545D01*
X128270000Y-127641000D01*
X123001356Y-127641000D01*
X123089074Y-127623552D01*
X123218843Y-127536843D01*
X123409715Y-127345971D01*
X123562824Y-127346104D01*
X123783429Y-127254952D01*
X123952359Y-127086317D01*
X124043896Y-126865871D01*
X124044104Y-126627176D01*
X123952952Y-126406571D01*
X123784317Y-126237641D01*
X123563871Y-126146104D01*
X123325176Y-126145896D01*
X123104571Y-126237048D01*
X122935641Y-126405683D01*
X122844104Y-126626129D01*
X122843970Y-126780345D01*
X122770314Y-126854000D01*
X118061120Y-126854000D01*
X118109173Y-126844958D01*
X118211279Y-126779255D01*
X118279778Y-126679003D01*
X118303877Y-126560000D01*
X118303877Y-125885000D01*
X118455000Y-125885000D01*
X118455000Y-126519674D01*
X118500672Y-126629937D01*
X118585064Y-126714328D01*
X118695327Y-126760000D01*
X119205000Y-126760000D01*
X119280000Y-126685000D01*
X119280000Y-125810000D01*
X119480000Y-125810000D01*
X119480000Y-126685000D01*
X119555000Y-126760000D01*
X120064673Y-126760000D01*
X120174936Y-126714328D01*
X120259328Y-126629937D01*
X120305000Y-126519674D01*
X120305000Y-125885000D01*
X120487000Y-125885000D01*
X120487000Y-126519674D01*
X120532672Y-126629937D01*
X120617064Y-126714328D01*
X120727327Y-126760000D01*
X121237000Y-126760000D01*
X121312000Y-126685000D01*
X121312000Y-125810000D01*
X121512000Y-125810000D01*
X121512000Y-126685000D01*
X121587000Y-126760000D01*
X122096673Y-126760000D01*
X122206936Y-126714328D01*
X122291328Y-126629937D01*
X122337000Y-126519674D01*
X122337000Y-125885000D01*
X122262000Y-125810000D01*
X121512000Y-125810000D01*
X121312000Y-125810000D01*
X120562000Y-125810000D01*
X120487000Y-125885000D01*
X120305000Y-125885000D01*
X120230000Y-125810000D01*
X119480000Y-125810000D01*
X119280000Y-125810000D01*
X118530000Y-125810000D01*
X118455000Y-125885000D01*
X118303877Y-125885000D01*
X118303877Y-125419809D01*
X118455000Y-125268686D01*
X118455000Y-125535000D01*
X118530000Y-125610000D01*
X119280000Y-125610000D01*
X119280000Y-124735000D01*
X119480000Y-124735000D01*
X119480000Y-125610000D01*
X120230000Y-125610000D01*
X120305000Y-125535000D01*
X120305000Y-124900326D01*
X120259328Y-124790063D01*
X120174936Y-124705672D01*
X120064673Y-124660000D01*
X119555000Y-124660000D01*
X119480000Y-124735000D01*
X119280000Y-124735000D01*
X119205000Y-124660000D01*
X119063686Y-124660000D01*
X119457809Y-124265877D01*
X119870191Y-124265877D01*
X120347157Y-124742843D01*
X120476926Y-124829552D01*
X120513317Y-124836791D01*
X120487000Y-124900326D01*
X120487000Y-125535000D01*
X120562000Y-125610000D01*
X121312000Y-125610000D01*
X121312000Y-125590000D01*
X121512000Y-125590000D01*
X121512000Y-125610000D01*
X122262000Y-125610000D01*
X122337000Y-125535000D01*
X122337000Y-124900326D01*
X122320297Y-124860000D01*
X124183199Y-124860000D01*
X124061462Y-124981525D01*
X123924157Y-125312194D01*
X123923844Y-125670236D01*
X124060572Y-126001143D01*
X124313525Y-126254538D01*
X124644194Y-126391843D01*
X125002236Y-126392156D01*
X125333143Y-126255428D01*
X125586538Y-126002475D01*
X125723843Y-125671806D01*
X125723969Y-125527655D01*
X127479155Y-127282840D01*
X127479157Y-127282843D01*
X127608927Y-127369552D01*
X127762000Y-127400000D01*
X128341000Y-127400000D01*
X128341000Y-127475000D01*
X128416000Y-127550000D01*
X129191000Y-127550000D01*
X129191000Y-127530877D01*
X129391000Y-127530877D01*
X129391000Y-127550000D01*
X130166000Y-127550000D01*
X130241000Y-127475000D01*
X130241000Y-127365326D01*
X130225861Y-127328778D01*
X130246877Y-127225000D01*
X130246877Y-126775000D01*
X130227370Y-126671329D01*
X130246877Y-126575000D01*
X130246877Y-126125000D01*
X130227370Y-126021329D01*
X130246877Y-125925000D01*
X130246877Y-125475000D01*
X130225958Y-125363827D01*
X130160255Y-125261721D01*
X130060003Y-125193222D01*
X129941000Y-125169123D01*
X128641000Y-125169123D01*
X128529827Y-125190042D01*
X128427721Y-125255745D01*
X128397483Y-125300000D01*
X128151685Y-125300000D01*
X127634000Y-124782314D01*
X127634000Y-123866877D01*
X127984000Y-123866877D01*
X128095173Y-123845958D01*
X128127742Y-123825000D01*
X128641000Y-123825000D01*
X128641000Y-124459674D01*
X128686672Y-124569937D01*
X128771064Y-124654328D01*
X128881327Y-124700000D01*
X129516000Y-124700000D01*
X129591000Y-124625000D01*
X129591000Y-123750000D01*
X129791000Y-123750000D01*
X129791000Y-124625000D01*
X129866000Y-124700000D01*
X130500673Y-124700000D01*
X130610936Y-124654328D01*
X130695328Y-124569937D01*
X130741000Y-124459674D01*
X130741000Y-123825000D01*
X131541000Y-123825000D01*
X131541000Y-124459674D01*
X131586672Y-124569937D01*
X131671064Y-124654328D01*
X131781327Y-124700000D01*
X132266000Y-124700000D01*
X132341000Y-124625000D01*
X132341000Y-123750000D01*
X131616000Y-123750000D01*
X131541000Y-123825000D01*
X130741000Y-123825000D01*
X130666000Y-123750000D01*
X129791000Y-123750000D01*
X129591000Y-123750000D01*
X128716000Y-123750000D01*
X128641000Y-123825000D01*
X128127742Y-123825000D01*
X128197279Y-123780255D01*
X128265778Y-123680003D01*
X128289877Y-123561000D01*
X128289877Y-122840326D01*
X128641000Y-122840326D01*
X128641000Y-123475000D01*
X128716000Y-123550000D01*
X129591000Y-123550000D01*
X129591000Y-122675000D01*
X129791000Y-122675000D01*
X129791000Y-123550000D01*
X130666000Y-123550000D01*
X130741000Y-123475000D01*
X130741000Y-122840326D01*
X131541000Y-122840326D01*
X131541000Y-123475000D01*
X131616000Y-123550000D01*
X132341000Y-123550000D01*
X132341000Y-122675000D01*
X132266000Y-122600000D01*
X131781327Y-122600000D01*
X131671064Y-122645672D01*
X131586672Y-122730063D01*
X131541000Y-122840326D01*
X130741000Y-122840326D01*
X130695328Y-122730063D01*
X130610936Y-122645672D01*
X130500673Y-122600000D01*
X129866000Y-122600000D01*
X129791000Y-122675000D01*
X129591000Y-122675000D01*
X129516000Y-122600000D01*
X128881327Y-122600000D01*
X128771064Y-122645672D01*
X128686672Y-122730063D01*
X128641000Y-122840326D01*
X128289877Y-122840326D01*
X128289877Y-122311000D01*
X128268958Y-122199827D01*
X128203255Y-122097721D01*
X128103003Y-122029222D01*
X127984000Y-122005123D01*
X127634000Y-122005123D01*
X127634000Y-121859877D01*
X128084000Y-121859877D01*
X128195173Y-121838958D01*
X128297279Y-121773255D01*
X128365778Y-121673003D01*
X128389877Y-121554000D01*
X128389877Y-120254000D01*
X128368958Y-120142827D01*
X128303255Y-120040721D01*
X128203003Y-119972222D01*
X128084000Y-119948123D01*
X126584000Y-119948123D01*
X126472827Y-119969042D01*
X126370721Y-120034745D01*
X126302222Y-120134997D01*
X126278123Y-120254000D01*
X126278123Y-121554000D01*
X126299042Y-121665173D01*
X126364745Y-121767279D01*
X126464997Y-121835778D01*
X126584000Y-121859877D01*
X126834000Y-121859877D01*
X126834000Y-122005123D01*
X126484000Y-122005123D01*
X126372827Y-122026042D01*
X126270721Y-122091745D01*
X126202222Y-122191997D01*
X126178123Y-122311000D01*
X126178123Y-123561000D01*
X126199042Y-123672173D01*
X126264745Y-123774279D01*
X126364997Y-123842778D01*
X126484000Y-123866877D01*
X126834000Y-123866877D01*
X126834000Y-124744314D01*
X125762431Y-123672745D01*
X125784000Y-123620673D01*
X125784000Y-123111000D01*
X125709000Y-123036000D01*
X124834000Y-123036000D01*
X124834000Y-123056000D01*
X124634000Y-123056000D01*
X124634000Y-123036000D01*
X123759000Y-123036000D01*
X123684000Y-123111000D01*
X123684000Y-123147986D01*
X123563871Y-123098104D01*
X123325176Y-123097896D01*
X123104571Y-123189048D01*
X122935641Y-123357683D01*
X122854954Y-123552000D01*
X122342877Y-123552000D01*
X122342877Y-122460000D01*
X122321958Y-122348827D01*
X122259219Y-122251327D01*
X123684000Y-122251327D01*
X123684000Y-122761000D01*
X123759000Y-122836000D01*
X124634000Y-122836000D01*
X124634000Y-122086000D01*
X124834000Y-122086000D01*
X124834000Y-122836000D01*
X125709000Y-122836000D01*
X125784000Y-122761000D01*
X125784000Y-122251327D01*
X125738328Y-122141064D01*
X125653937Y-122056672D01*
X125543674Y-122011000D01*
X124909000Y-122011000D01*
X124834000Y-122086000D01*
X124634000Y-122086000D01*
X124559000Y-122011000D01*
X123924326Y-122011000D01*
X123814063Y-122056672D01*
X123729672Y-122141064D01*
X123684000Y-122251327D01*
X122259219Y-122251327D01*
X122256255Y-122246721D01*
X122156003Y-122178222D01*
X122037000Y-122154123D01*
X120787000Y-122154123D01*
X120675827Y-122175042D01*
X120573721Y-122240745D01*
X120505222Y-122340997D01*
X120481123Y-122460000D01*
X120481123Y-123745437D01*
X120310877Y-123575191D01*
X120310877Y-122460000D01*
X120289958Y-122348827D01*
X120224255Y-122246721D01*
X120124003Y-122178222D01*
X120005000Y-122154123D01*
X118755000Y-122154123D01*
X118643827Y-122175042D01*
X118541721Y-122240745D01*
X118473222Y-122340997D01*
X118449123Y-122460000D01*
X118449123Y-123960000D01*
X118470042Y-124071173D01*
X118490049Y-124102265D01*
X117838191Y-124754123D01*
X116698000Y-124754123D01*
X116586827Y-124775042D01*
X116484721Y-124840745D01*
X116416222Y-124940997D01*
X116392123Y-125060000D01*
X116392123Y-126560000D01*
X116413042Y-126671173D01*
X116478745Y-126773279D01*
X116578997Y-126841778D01*
X116639350Y-126854000D01*
X116243686Y-126854000D01*
X115542000Y-126152314D01*
X115542000Y-123891877D01*
X115892000Y-123891877D01*
X116003173Y-123870958D01*
X116105279Y-123805255D01*
X116173778Y-123705003D01*
X116197877Y-123586000D01*
X116197877Y-122286000D01*
X116176958Y-122174827D01*
X116111255Y-122072721D01*
X116011003Y-122004222D01*
X115892000Y-121980123D01*
X114392000Y-121980123D01*
X114280827Y-122001042D01*
X114178721Y-122066745D01*
X114110222Y-122166997D01*
X114086123Y-122286000D01*
X114086123Y-123586000D01*
X114107042Y-123697173D01*
X114172745Y-123799279D01*
X114272997Y-123867778D01*
X114392000Y-123891877D01*
X114742000Y-123891877D01*
X114742000Y-126318000D01*
X114772448Y-126471074D01*
X114859157Y-126600843D01*
X115795157Y-127536843D01*
X115924926Y-127623552D01*
X116012644Y-127641000D01*
X108579000Y-127641000D01*
X108579000Y-124869000D01*
X108803000Y-124869000D01*
X108803000Y-125503674D01*
X108848672Y-125613937D01*
X108933064Y-125698328D01*
X109043327Y-125744000D01*
X109553000Y-125744000D01*
X109628000Y-125669000D01*
X109628000Y-124794000D01*
X109828000Y-124794000D01*
X109828000Y-125669000D01*
X109903000Y-125744000D01*
X110412673Y-125744000D01*
X110522936Y-125698328D01*
X110551028Y-125670236D01*
X111923844Y-125670236D01*
X112060572Y-126001143D01*
X112313525Y-126254538D01*
X112644194Y-126391843D01*
X113002236Y-126392156D01*
X113333143Y-126255428D01*
X113586538Y-126002475D01*
X113723843Y-125671806D01*
X113724156Y-125313764D01*
X113587428Y-124982857D01*
X113334475Y-124729462D01*
X113003806Y-124592157D01*
X112645764Y-124591844D01*
X112314857Y-124728572D01*
X112061462Y-124981525D01*
X111924157Y-125312194D01*
X111923844Y-125670236D01*
X110551028Y-125670236D01*
X110607328Y-125613937D01*
X110653000Y-125503674D01*
X110653000Y-124869000D01*
X110578000Y-124794000D01*
X109828000Y-124794000D01*
X109628000Y-124794000D01*
X108878000Y-124794000D01*
X108803000Y-124869000D01*
X108579000Y-124869000D01*
X108579000Y-123884326D01*
X108803000Y-123884326D01*
X108803000Y-124519000D01*
X108878000Y-124594000D01*
X109628000Y-124594000D01*
X109628000Y-123719000D01*
X109828000Y-123719000D01*
X109828000Y-124594000D01*
X110578000Y-124594000D01*
X110653000Y-124519000D01*
X110653000Y-123884326D01*
X110607328Y-123774063D01*
X110522936Y-123689672D01*
X110412673Y-123644000D01*
X109903000Y-123644000D01*
X109828000Y-123719000D01*
X109628000Y-123719000D01*
X109553000Y-123644000D01*
X109043327Y-123644000D01*
X108933064Y-123689672D01*
X108848672Y-123774063D01*
X108803000Y-123884326D01*
X108579000Y-123884326D01*
X108579000Y-116264000D01*
X108772123Y-116264000D01*
X108772123Y-117764000D01*
X108793042Y-117875173D01*
X108858745Y-117977279D01*
X108958997Y-118045778D01*
X109078000Y-118069877D01*
X109200460Y-118069877D01*
X109128104Y-118244129D01*
X109127896Y-118482824D01*
X109200328Y-118658123D01*
X109078000Y-118658123D01*
X108966827Y-118679042D01*
X108864721Y-118744745D01*
X108796222Y-118844997D01*
X108772123Y-118964000D01*
X108772123Y-120464000D01*
X108793042Y-120575173D01*
X108858745Y-120677279D01*
X108958997Y-120745778D01*
X109078000Y-120769877D01*
X109328000Y-120769877D01*
X109328000Y-121138123D01*
X109103000Y-121138123D01*
X108991827Y-121159042D01*
X108889721Y-121224745D01*
X108821222Y-121324997D01*
X108797123Y-121444000D01*
X108797123Y-122944000D01*
X108818042Y-123055173D01*
X108883745Y-123157279D01*
X108983997Y-123225778D01*
X109103000Y-123249877D01*
X110353000Y-123249877D01*
X110464173Y-123228958D01*
X110566279Y-123163255D01*
X110634778Y-123063003D01*
X110658877Y-122944000D01*
X110658877Y-121444000D01*
X110637958Y-121332827D01*
X110572255Y-121230721D01*
X110472003Y-121162222D01*
X110353000Y-121138123D01*
X110128000Y-121138123D01*
X110128000Y-120769877D01*
X110378000Y-120769877D01*
X110489173Y-120748958D01*
X110591279Y-120683255D01*
X110659778Y-120583003D01*
X110683877Y-120464000D01*
X110683877Y-120224500D01*
X111309211Y-120224500D01*
X111302123Y-120259500D01*
X111302123Y-120659500D01*
X111323042Y-120770673D01*
X111326204Y-120775587D01*
X111302123Y-120894500D01*
X111302123Y-121294500D01*
X111323042Y-121405673D01*
X111388745Y-121507779D01*
X111488997Y-121576278D01*
X111608000Y-121600377D01*
X111808000Y-121600377D01*
X111808000Y-121980123D01*
X111692000Y-121980123D01*
X111580827Y-122001042D01*
X111478721Y-122066745D01*
X111410222Y-122166997D01*
X111386123Y-122286000D01*
X111386123Y-123586000D01*
X111407042Y-123697173D01*
X111472745Y-123799279D01*
X111572997Y-123867778D01*
X111692000Y-123891877D01*
X113192000Y-123891877D01*
X113303173Y-123870958D01*
X113405279Y-123805255D01*
X113473778Y-123705003D01*
X113497877Y-123586000D01*
X113497877Y-122286000D01*
X113476958Y-122174827D01*
X113411255Y-122072721D01*
X113311003Y-122004222D01*
X113192000Y-121980123D01*
X112608000Y-121980123D01*
X112608000Y-121600377D01*
X112808000Y-121600377D01*
X112919173Y-121579458D01*
X113021279Y-121513755D01*
X113089778Y-121413503D01*
X113113877Y-121294500D01*
X113113877Y-120894500D01*
X113092958Y-120783327D01*
X113089796Y-120778413D01*
X113113877Y-120659500D01*
X113113877Y-120259500D01*
X113107291Y-120224500D01*
X114363500Y-120224500D01*
X114516574Y-120194052D01*
X114646343Y-120107343D01*
X114746862Y-120006824D01*
X115477896Y-120006824D01*
X115569048Y-120227429D01*
X115737683Y-120396359D01*
X115958129Y-120487896D01*
X116196824Y-120488104D01*
X116417429Y-120396952D01*
X116502123Y-120312406D01*
X116502123Y-120659500D01*
X116523042Y-120770673D01*
X116526204Y-120775587D01*
X116502123Y-120894500D01*
X116502123Y-121294500D01*
X116523042Y-121405673D01*
X116588745Y-121507779D01*
X116688997Y-121576278D01*
X116808000Y-121600377D01*
X116948000Y-121600377D01*
X116948000Y-122054123D01*
X116698000Y-122054123D01*
X116586827Y-122075042D01*
X116484721Y-122140745D01*
X116416222Y-122240997D01*
X116392123Y-122360000D01*
X116392123Y-123860000D01*
X116413042Y-123971173D01*
X116478745Y-124073279D01*
X116578997Y-124141778D01*
X116698000Y-124165877D01*
X117998000Y-124165877D01*
X118109173Y-124144958D01*
X118211279Y-124079255D01*
X118279778Y-123979003D01*
X118303877Y-123860000D01*
X118303877Y-122360000D01*
X118282958Y-122248827D01*
X118217255Y-122146721D01*
X118117003Y-122078222D01*
X117998000Y-122054123D01*
X117748000Y-122054123D01*
X117748000Y-121600377D01*
X118008000Y-121600377D01*
X118119173Y-121579458D01*
X118221279Y-121513755D01*
X118289778Y-121413503D01*
X118313877Y-121294500D01*
X118313877Y-121079000D01*
X118604000Y-121079000D01*
X118604000Y-121588673D01*
X118649672Y-121698936D01*
X118734063Y-121783328D01*
X118844326Y-121829000D01*
X119479000Y-121829000D01*
X119554000Y-121754000D01*
X119554000Y-121004000D01*
X118679000Y-121004000D01*
X118604000Y-121079000D01*
X118313877Y-121079000D01*
X118313877Y-120894500D01*
X118292958Y-120783327D01*
X118289796Y-120778413D01*
X118313877Y-120659500D01*
X118313877Y-120259500D01*
X118306318Y-120219327D01*
X118604000Y-120219327D01*
X118604000Y-120729000D01*
X118679000Y-120804000D01*
X119554000Y-120804000D01*
X119554000Y-120054000D01*
X119479000Y-119979000D01*
X118844326Y-119979000D01*
X118734063Y-120024672D01*
X118649672Y-120109064D01*
X118604000Y-120219327D01*
X118306318Y-120219327D01*
X118292958Y-120148327D01*
X118289796Y-120143413D01*
X118313877Y-120024500D01*
X118313877Y-119624500D01*
X118292958Y-119513327D01*
X118285943Y-119502425D01*
X118308000Y-119449173D01*
X118308000Y-119364500D01*
X118233000Y-119289500D01*
X117508000Y-119289500D01*
X117508000Y-119309500D01*
X117308000Y-119309500D01*
X117308000Y-119289500D01*
X116583000Y-119289500D01*
X116508000Y-119364500D01*
X116508000Y-119424500D01*
X116463098Y-119424500D01*
X116418317Y-119379641D01*
X116197871Y-119288104D01*
X115959176Y-119287896D01*
X115738571Y-119379048D01*
X115569641Y-119547683D01*
X115478104Y-119768129D01*
X115477896Y-120006824D01*
X114746862Y-120006824D01*
X116434186Y-118319500D01*
X116509211Y-118319500D01*
X116502123Y-118354500D01*
X116502123Y-118754500D01*
X116523042Y-118865673D01*
X116530057Y-118876575D01*
X116508000Y-118929827D01*
X116508000Y-119014500D01*
X116583000Y-119089500D01*
X117308000Y-119089500D01*
X117308000Y-119069500D01*
X117508000Y-119069500D01*
X117508000Y-119089500D01*
X118233000Y-119089500D01*
X118308000Y-119014500D01*
X118308000Y-118954500D01*
X118424123Y-118954500D01*
X118424123Y-119448000D01*
X118445042Y-119559173D01*
X118510745Y-119661279D01*
X118610997Y-119729778D01*
X118730000Y-119753877D01*
X120030000Y-119753877D01*
X120141173Y-119732958D01*
X120243279Y-119667255D01*
X120311778Y-119567003D01*
X120335877Y-119448000D01*
X120335877Y-118307809D01*
X120479123Y-118164563D01*
X120479123Y-118365000D01*
X120498630Y-118468671D01*
X120479123Y-118565000D01*
X120479123Y-119015000D01*
X120500042Y-119126173D01*
X120565745Y-119228279D01*
X120665997Y-119296778D01*
X120785000Y-119320877D01*
X121475191Y-119320877D01*
X121754000Y-119599685D01*
X121754000Y-119973123D01*
X121404000Y-119973123D01*
X121292827Y-119994042D01*
X121190721Y-120059745D01*
X121122222Y-120159997D01*
X121098123Y-120279000D01*
X121098123Y-120303947D01*
X121039176Y-120303896D01*
X120818571Y-120395048D01*
X120704000Y-120509419D01*
X120704000Y-120219327D01*
X120658328Y-120109064D01*
X120573937Y-120024672D01*
X120463674Y-119979000D01*
X119829000Y-119979000D01*
X119754000Y-120054000D01*
X119754000Y-120804000D01*
X119774000Y-120804000D01*
X119774000Y-121004000D01*
X119754000Y-121004000D01*
X119754000Y-121754000D01*
X119829000Y-121829000D01*
X120463674Y-121829000D01*
X120573937Y-121783328D01*
X120658328Y-121698936D01*
X120704000Y-121588673D01*
X120704000Y-121298477D01*
X120817683Y-121412359D01*
X121038129Y-121503896D01*
X121098123Y-121503948D01*
X121098123Y-121529000D01*
X121119042Y-121640173D01*
X121184745Y-121742279D01*
X121284997Y-121810778D01*
X121404000Y-121834877D01*
X122904000Y-121834877D01*
X123015173Y-121813958D01*
X123117279Y-121748255D01*
X123185778Y-121648003D01*
X123209877Y-121529000D01*
X123209877Y-121304000D01*
X123578123Y-121304000D01*
X123578123Y-121554000D01*
X123599042Y-121665173D01*
X123664745Y-121767279D01*
X123764997Y-121835778D01*
X123884000Y-121859877D01*
X125384000Y-121859877D01*
X125495173Y-121838958D01*
X125597279Y-121773255D01*
X125665778Y-121673003D01*
X125689877Y-121554000D01*
X125689877Y-120254000D01*
X125668958Y-120142827D01*
X125603255Y-120040721D01*
X125503003Y-119972222D01*
X125384000Y-119948123D01*
X123884000Y-119948123D01*
X123772827Y-119969042D01*
X123670721Y-120034745D01*
X123602222Y-120134997D01*
X123578123Y-120254000D01*
X123578123Y-120504000D01*
X123209877Y-120504000D01*
X123209877Y-120279000D01*
X123188958Y-120167827D01*
X123123255Y-120065721D01*
X123023003Y-119997222D01*
X122904000Y-119973123D01*
X122554000Y-119973123D01*
X122554000Y-119434005D01*
X122554001Y-119434000D01*
X122523552Y-119280927D01*
X122499429Y-119244824D01*
X122470569Y-119201632D01*
X122516778Y-119134003D01*
X122540877Y-119015000D01*
X122540877Y-118565000D01*
X122536173Y-118540000D01*
X123025461Y-118540000D01*
X123103683Y-118618359D01*
X123324129Y-118709896D01*
X123562824Y-118710104D01*
X123783429Y-118618952D01*
X123952359Y-118450317D01*
X124043896Y-118229871D01*
X124044104Y-117991176D01*
X123952952Y-117770571D01*
X123784317Y-117601641D01*
X123764340Y-117593346D01*
X123980840Y-117376845D01*
X123980843Y-117376843D01*
X124067552Y-117247073D01*
X124071320Y-117228129D01*
X124098001Y-117094000D01*
X124098000Y-117093995D01*
X124098000Y-115570000D01*
X124079721Y-115478104D01*
X124067552Y-115416926D01*
X123980843Y-115287157D01*
X122885686Y-114192000D01*
X124294314Y-114192000D01*
X124314000Y-114211686D01*
X124314000Y-118110000D01*
X124344448Y-118263074D01*
X124431157Y-118392843D01*
X124622029Y-118583715D01*
X124621896Y-118736824D01*
X124713048Y-118957429D01*
X124881683Y-119126359D01*
X125102129Y-119217896D01*
X125340824Y-119218104D01*
X125561429Y-119126952D01*
X125723664Y-118965000D01*
X126385000Y-118965000D01*
X126385000Y-119074673D01*
X126430672Y-119184936D01*
X126515063Y-119269328D01*
X126625326Y-119315000D01*
X127235000Y-119315000D01*
X127310000Y-119240000D01*
X127310000Y-118890000D01*
X127510000Y-118890000D01*
X127510000Y-119240000D01*
X127585000Y-119315000D01*
X128194674Y-119315000D01*
X128304937Y-119269328D01*
X128389328Y-119184936D01*
X128435000Y-119074673D01*
X128435000Y-118965000D01*
X128360000Y-118890000D01*
X127510000Y-118890000D01*
X127310000Y-118890000D01*
X126460000Y-118890000D01*
X126385000Y-118965000D01*
X125723664Y-118965000D01*
X125730359Y-118958317D01*
X125821896Y-118737871D01*
X125822030Y-118583656D01*
X125865686Y-118540000D01*
X126385000Y-118540000D01*
X126385000Y-118615000D01*
X126460000Y-118690000D01*
X127310000Y-118690000D01*
X127310000Y-118670877D01*
X127510000Y-118670877D01*
X127510000Y-118690000D01*
X128360000Y-118690000D01*
X128435000Y-118615000D01*
X128435000Y-118505327D01*
X128419861Y-118468778D01*
X128440877Y-118365000D01*
X128440877Y-117915000D01*
X128434218Y-117879613D01*
X128535074Y-117859552D01*
X128664843Y-117772843D01*
X128806840Y-117630845D01*
X128806843Y-117630843D01*
X128893552Y-117501073D01*
X128924000Y-117348000D01*
X128924000Y-113458005D01*
X128924001Y-113458000D01*
X128897877Y-113326669D01*
X128897877Y-112126000D01*
X128876958Y-112014827D01*
X128811255Y-111912721D01*
X128711003Y-111844222D01*
X128592000Y-111820123D01*
X127092000Y-111820123D01*
X126980827Y-111841042D01*
X126878721Y-111906745D01*
X126810222Y-112006997D01*
X126786123Y-112126000D01*
X126786123Y-113426000D01*
X126789893Y-113446038D01*
X126627176Y-113445896D01*
X126406571Y-113537048D01*
X126237641Y-113705683D01*
X126146104Y-113926129D01*
X126145896Y-114164824D01*
X126237048Y-114385429D01*
X126402229Y-114550899D01*
X126388628Y-114618064D01*
X126324317Y-114553641D01*
X126103871Y-114462104D01*
X125865176Y-114461896D01*
X125644571Y-114553048D01*
X125475641Y-114721683D01*
X125384104Y-114942129D01*
X125383896Y-115180824D01*
X125401709Y-115223935D01*
X125357176Y-115223896D01*
X125136571Y-115315048D01*
X125114000Y-115337580D01*
X125114000Y-114046000D01*
X125093925Y-113945074D01*
X125083552Y-113892926D01*
X124996843Y-113763157D01*
X124965563Y-113731877D01*
X125892000Y-113731877D01*
X126003173Y-113710958D01*
X126105279Y-113645255D01*
X126173778Y-113545003D01*
X126197877Y-113426000D01*
X126197877Y-112320829D01*
X126323429Y-112268952D01*
X126492359Y-112100317D01*
X126583896Y-111879871D01*
X126584104Y-111641176D01*
X126492952Y-111420571D01*
X126324317Y-111251641D01*
X126103871Y-111160104D01*
X125865176Y-111159896D01*
X125644571Y-111251048D01*
X125475641Y-111419683D01*
X125384104Y-111640129D01*
X125383970Y-111794344D01*
X125358191Y-111820123D01*
X124392000Y-111820123D01*
X124280827Y-111841042D01*
X124178721Y-111906745D01*
X124110222Y-112006997D01*
X124086123Y-112126000D01*
X124086123Y-113392000D01*
X123817877Y-113392000D01*
X123817877Y-112126000D01*
X123796958Y-112014827D01*
X123731255Y-111912721D01*
X123631003Y-111844222D01*
X123512000Y-111820123D01*
X122012000Y-111820123D01*
X121900827Y-111841042D01*
X121842354Y-111878668D01*
X121757971Y-111794285D01*
X121758104Y-111641176D01*
X121666952Y-111420571D01*
X121498317Y-111251641D01*
X121277871Y-111160104D01*
X121039176Y-111159896D01*
X120818571Y-111251048D01*
X120649641Y-111419683D01*
X120558104Y-111640129D01*
X120557947Y-111820123D01*
X119312000Y-111820123D01*
X119217933Y-111837823D01*
X119218104Y-111641176D01*
X119126952Y-111420571D01*
X118958317Y-111251641D01*
X118737871Y-111160104D01*
X118499176Y-111159896D01*
X118278571Y-111251048D01*
X118109641Y-111419683D01*
X118018104Y-111640129D01*
X118017896Y-111878824D01*
X118109048Y-112099429D01*
X118218000Y-112208572D01*
X118218000Y-113284000D01*
X118248448Y-113437074D01*
X118335157Y-113566843D01*
X119710437Y-114942123D01*
X118730000Y-114942123D01*
X118618827Y-114963042D01*
X118516721Y-115028745D01*
X118448222Y-115128997D01*
X118424123Y-115248000D01*
X118424123Y-116748000D01*
X118445042Y-116859173D01*
X118482668Y-116917646D01*
X118313877Y-117086437D01*
X118313877Y-117084500D01*
X118292958Y-116973327D01*
X118289796Y-116968413D01*
X118313877Y-116849500D01*
X118313877Y-116449500D01*
X118292958Y-116338327D01*
X118227255Y-116236221D01*
X118195096Y-116214248D01*
X118201896Y-116197871D01*
X118202104Y-115959176D01*
X118110952Y-115738571D01*
X117942317Y-115569641D01*
X117721871Y-115478104D01*
X117483176Y-115477896D01*
X117262571Y-115569048D01*
X117093641Y-115737683D01*
X117002104Y-115958129D01*
X117001942Y-116143623D01*
X116808000Y-116143623D01*
X116696827Y-116164542D01*
X116594721Y-116230245D01*
X116526222Y-116330497D01*
X116502123Y-116449500D01*
X116502123Y-116849500D01*
X116508709Y-116884500D01*
X116463098Y-116884500D01*
X116418317Y-116839641D01*
X116197871Y-116748104D01*
X115959176Y-116747896D01*
X115738571Y-116839048D01*
X115569641Y-117007683D01*
X115478104Y-117228129D01*
X115477896Y-117466824D01*
X115569048Y-117687429D01*
X115737683Y-117856359D01*
X115757660Y-117864654D01*
X114934000Y-118688314D01*
X114934000Y-115738877D01*
X115284000Y-115738877D01*
X115395173Y-115717958D01*
X115497279Y-115652255D01*
X115565778Y-115552003D01*
X115589877Y-115433000D01*
X115589877Y-114183000D01*
X115568958Y-114071827D01*
X115503255Y-113969721D01*
X115403003Y-113901222D01*
X115284000Y-113877123D01*
X114934000Y-113877123D01*
X114934000Y-113706877D01*
X115284000Y-113706877D01*
X115395173Y-113685958D01*
X115497279Y-113620255D01*
X115565778Y-113520003D01*
X115589877Y-113401000D01*
X115589877Y-112151000D01*
X115568958Y-112039827D01*
X115503255Y-111937721D01*
X115403003Y-111869222D01*
X115284000Y-111845123D01*
X113784000Y-111845123D01*
X113672827Y-111866042D01*
X113570721Y-111931745D01*
X113502222Y-112031997D01*
X113478123Y-112151000D01*
X113478123Y-113401000D01*
X113499042Y-113512173D01*
X113564745Y-113614279D01*
X113664997Y-113682778D01*
X113784000Y-113706877D01*
X114134000Y-113706877D01*
X114134000Y-113877123D01*
X113784000Y-113877123D01*
X113672827Y-113898042D01*
X113570721Y-113963745D01*
X113502222Y-114063997D01*
X113478123Y-114183000D01*
X113478123Y-115433000D01*
X113499042Y-115544173D01*
X113564745Y-115646279D01*
X113664997Y-115714778D01*
X113784000Y-115738877D01*
X114134000Y-115738877D01*
X114134000Y-118619327D01*
X114132317Y-118617641D01*
X113911871Y-118526104D01*
X113673176Y-118525896D01*
X113452571Y-118617048D01*
X113283641Y-118785683D01*
X113282056Y-118789500D01*
X113108000Y-118789500D01*
X113108000Y-118729500D01*
X113033000Y-118654500D01*
X112308000Y-118654500D01*
X112308000Y-118674500D01*
X112108000Y-118674500D01*
X112108000Y-118654500D01*
X111383000Y-118654500D01*
X111308000Y-118729500D01*
X111308000Y-118814173D01*
X111329402Y-118865843D01*
X111326222Y-118870497D01*
X111302123Y-118989500D01*
X111302123Y-119389500D01*
X111308709Y-119424500D01*
X110683877Y-119424500D01*
X110683877Y-118964000D01*
X110662958Y-118852827D01*
X110597255Y-118750721D01*
X110497003Y-118682222D01*
X110378000Y-118658123D01*
X110255540Y-118658123D01*
X110327896Y-118483871D01*
X110328104Y-118245176D01*
X110255672Y-118069877D01*
X110378000Y-118069877D01*
X110489173Y-118048958D01*
X110591279Y-117983255D01*
X110659778Y-117883003D01*
X110683877Y-117764000D01*
X110683877Y-117439948D01*
X110862824Y-117440104D01*
X111083429Y-117348952D01*
X111252359Y-117180317D01*
X111311621Y-117037598D01*
X111302123Y-117084500D01*
X111302123Y-117484500D01*
X111323042Y-117595673D01*
X111326204Y-117600587D01*
X111302123Y-117719500D01*
X111302123Y-118119500D01*
X111323042Y-118230673D01*
X111330057Y-118241575D01*
X111308000Y-118294827D01*
X111308000Y-118379500D01*
X111383000Y-118454500D01*
X112108000Y-118454500D01*
X112108000Y-118434500D01*
X112308000Y-118434500D01*
X112308000Y-118454500D01*
X113033000Y-118454500D01*
X113108000Y-118379500D01*
X113108000Y-118294827D01*
X113086598Y-118243157D01*
X113089778Y-118238503D01*
X113113877Y-118119500D01*
X113113877Y-117719500D01*
X113092958Y-117608327D01*
X113089796Y-117603413D01*
X113113877Y-117484500D01*
X113113877Y-117084500D01*
X113092958Y-116973327D01*
X113089796Y-116968413D01*
X113113877Y-116849500D01*
X113113877Y-116449500D01*
X113092958Y-116338327D01*
X113027255Y-116236221D01*
X112927003Y-116167722D01*
X112808000Y-116143623D01*
X111608000Y-116143623D01*
X111496827Y-116164542D01*
X111394721Y-116230245D01*
X111326222Y-116330497D01*
X111302123Y-116449500D01*
X111302123Y-116619574D01*
X111252952Y-116500571D01*
X111084317Y-116331641D01*
X110863871Y-116240104D01*
X110679350Y-116239943D01*
X110662958Y-116152827D01*
X110597255Y-116050721D01*
X110497003Y-115982222D01*
X110378000Y-115958123D01*
X109078000Y-115958123D01*
X108966827Y-115979042D01*
X108864721Y-116044745D01*
X108796222Y-116144997D01*
X108772123Y-116264000D01*
X108579000Y-116264000D01*
X108579000Y-114983000D01*
X110984000Y-114983000D01*
X110984000Y-115492673D01*
X111029672Y-115602936D01*
X111114063Y-115687328D01*
X111224326Y-115733000D01*
X111859000Y-115733000D01*
X111934000Y-115658000D01*
X111934000Y-114908000D01*
X112134000Y-114908000D01*
X112134000Y-115658000D01*
X112209000Y-115733000D01*
X112843674Y-115733000D01*
X112953937Y-115687328D01*
X113038328Y-115602936D01*
X113084000Y-115492673D01*
X113084000Y-114983000D01*
X113009000Y-114908000D01*
X112134000Y-114908000D01*
X111934000Y-114908000D01*
X111059000Y-114908000D01*
X110984000Y-114983000D01*
X108579000Y-114983000D01*
X108579000Y-114123327D01*
X110984000Y-114123327D01*
X110984000Y-114633000D01*
X111059000Y-114708000D01*
X111934000Y-114708000D01*
X111934000Y-113958000D01*
X112134000Y-113958000D01*
X112134000Y-114708000D01*
X113009000Y-114708000D01*
X113084000Y-114633000D01*
X113084000Y-114123327D01*
X113038328Y-114013064D01*
X112953937Y-113928672D01*
X112843674Y-113883000D01*
X112209000Y-113883000D01*
X112134000Y-113958000D01*
X111934000Y-113958000D01*
X111859000Y-113883000D01*
X111224326Y-113883000D01*
X111114063Y-113928672D01*
X111029672Y-114013064D01*
X110984000Y-114123327D01*
X108579000Y-114123327D01*
X108579000Y-112951000D01*
X110984000Y-112951000D01*
X110984000Y-113460673D01*
X111029672Y-113570936D01*
X111114063Y-113655328D01*
X111224326Y-113701000D01*
X111859000Y-113701000D01*
X111934000Y-113626000D01*
X111934000Y-112876000D01*
X112134000Y-112876000D01*
X112134000Y-113626000D01*
X112209000Y-113701000D01*
X112843674Y-113701000D01*
X112953937Y-113655328D01*
X113038328Y-113570936D01*
X113084000Y-113460673D01*
X113084000Y-112951000D01*
X113009000Y-112876000D01*
X112134000Y-112876000D01*
X111934000Y-112876000D01*
X111059000Y-112876000D01*
X110984000Y-112951000D01*
X108579000Y-112951000D01*
X108579000Y-112091327D01*
X110984000Y-112091327D01*
X110984000Y-112601000D01*
X111059000Y-112676000D01*
X111934000Y-112676000D01*
X111934000Y-111926000D01*
X112134000Y-111926000D01*
X112134000Y-112676000D01*
X113009000Y-112676000D01*
X113084000Y-112601000D01*
X113084000Y-112091327D01*
X113038328Y-111981064D01*
X112953937Y-111896672D01*
X112843674Y-111851000D01*
X112209000Y-111851000D01*
X112134000Y-111926000D01*
X111934000Y-111926000D01*
X111859000Y-111851000D01*
X111224326Y-111851000D01*
X111114063Y-111896672D01*
X111029672Y-111981064D01*
X110984000Y-112091327D01*
X108579000Y-112091327D01*
X108579000Y-110611000D01*
X129165000Y-110611000D01*
X129165000Y-121412000D01*
M02*
