G04 #@! TF.FileFunction,Copper,L1,Top,Signal*
%FSLAX46Y46*%
G04 Gerber Fmt 4.6, Leading zero omitted, Abs format (unit mm)*
G04 Created by KiCad (PCBNEW 4.0.7) date 04/27/18 14:22:45*
%MOMM*%
%LPD*%
G01*
G04 APERTURE LIST*
%ADD10C,0.150000*%
%ADD11R,0.900000X1.700000*%
%ADD12R,1.500000X1.500000*%
%ADD13C,0.600000*%
%ADD14C,0.200000*%
G04 APERTURE END LIST*
D10*
D11*
X115824000Y-124492000D03*
X116824000Y-126492000D03*
X117824000Y-124492000D03*
X119824000Y-124492000D03*
X120824000Y-126492000D03*
X121824000Y-124492000D03*
D12*
X109728000Y-111760000D03*
X114808000Y-111760000D03*
X119888000Y-111760000D03*
X124968000Y-111760000D03*
X128016000Y-119380000D03*
X112268000Y-111760000D03*
X128016000Y-116840000D03*
X128016000Y-111760000D03*
X128016000Y-114300000D03*
X117348000Y-111760000D03*
X122428000Y-111760000D03*
X109728000Y-126492000D03*
D13*
X113792000Y-119126000D03*
X121158000Y-120904000D03*
X110998000Y-125476000D03*
X117094000Y-124460000D03*
X122682000Y-126492000D03*
X123444000Y-123698000D03*
X123444000Y-126746000D03*
X109728000Y-118364000D03*
X122682000Y-116840000D03*
X121158000Y-111760000D03*
X125984000Y-111760000D03*
X126238000Y-116840000D03*
X120396000Y-114046000D03*
X125476000Y-115824000D03*
X126746000Y-114046000D03*
X125984000Y-115062000D03*
X118618000Y-111760000D03*
X123444000Y-118110000D03*
X125222000Y-118618000D03*
X125476000Y-117348000D03*
X110744000Y-116840000D03*
X117602000Y-116078000D03*
X122936000Y-116078000D03*
X116078000Y-119888000D03*
X116078000Y-117348000D03*
D14*
X116824000Y-126492000D02*
X115824000Y-126492000D01*
X114808000Y-120142000D02*
X113792000Y-119126000D01*
X114808000Y-125476000D02*
X114808000Y-120142000D01*
X115824000Y-126492000D02*
X114808000Y-125476000D01*
X118110000Y-126492000D02*
X116824000Y-126492000D01*
X118618000Y-125984000D02*
X118110000Y-126492000D01*
X118618000Y-122682000D02*
X118618000Y-125984000D01*
X120396000Y-120904000D02*
X118618000Y-122682000D01*
X121158000Y-120904000D02*
X120396000Y-120904000D01*
X109728000Y-126492000D02*
X109982000Y-126492000D01*
X109982000Y-126492000D02*
X110998000Y-125476000D01*
X117824000Y-124492000D02*
X117126000Y-124492000D01*
X117126000Y-124492000D02*
X117094000Y-124460000D01*
X123444000Y-126746000D02*
X123444000Y-123698000D01*
X109728000Y-118364000D02*
X109728000Y-111760000D01*
X122682000Y-116840000D02*
X123190000Y-116840000D01*
X116078000Y-113030000D02*
X114808000Y-111760000D01*
X122682000Y-113030000D02*
X116078000Y-113030000D01*
X123698000Y-114046000D02*
X122682000Y-113030000D01*
X123698000Y-116332000D02*
X123698000Y-114046000D01*
X123190000Y-116840000D02*
X123698000Y-116332000D01*
X115824000Y-124492000D02*
X116046000Y-124492000D01*
X116046000Y-124492000D02*
X122682000Y-117856000D01*
X122682000Y-117856000D02*
X122682000Y-116840000D01*
X121158000Y-111760000D02*
X119888000Y-111760000D01*
X125984000Y-111760000D02*
X124968000Y-111760000D01*
X126238000Y-117602000D02*
X128016000Y-119380000D01*
X126238000Y-116840000D02*
X126238000Y-117602000D01*
X114046000Y-113538000D02*
X112268000Y-111760000D01*
X119888000Y-113538000D02*
X114046000Y-113538000D01*
X120396000Y-114046000D02*
X119888000Y-113538000D01*
X127254000Y-116078000D02*
X128016000Y-116840000D01*
X125730000Y-116078000D02*
X127254000Y-116078000D01*
X125476000Y-115824000D02*
X125730000Y-116078000D01*
X128016000Y-111760000D02*
X126746000Y-113030000D01*
X126746000Y-113030000D02*
X126746000Y-114046000D01*
X127254000Y-115062000D02*
X128016000Y-114300000D01*
X125984000Y-115062000D02*
X127254000Y-115062000D01*
X118618000Y-111760000D02*
X117348000Y-111760000D01*
X123698000Y-113030000D02*
X124206000Y-113538000D01*
X122428000Y-111760000D02*
X123698000Y-113030000D01*
X124206000Y-117348000D02*
X123444000Y-118110000D01*
X124206000Y-113538000D02*
X124206000Y-117348000D01*
X119824000Y-124466312D02*
X124714000Y-119576312D01*
X125222000Y-119068312D02*
X124714000Y-119576312D01*
X125222000Y-118618000D02*
X125222000Y-119068312D01*
X119824000Y-124492000D02*
X119824000Y-124466312D01*
X119824000Y-124492000D02*
X119824000Y-124270000D01*
X125476000Y-119380000D02*
X125984000Y-118872000D01*
X121666000Y-126492000D02*
X120824000Y-126492000D01*
X122682000Y-125476000D02*
X122682000Y-122174000D01*
X121666000Y-126492000D02*
X122682000Y-125476000D01*
X122682000Y-122174000D02*
X125476000Y-119380000D01*
X125476000Y-117856000D02*
X125476000Y-117348000D01*
X125984000Y-118364000D02*
X125476000Y-117856000D01*
X125984000Y-118872000D02*
X125984000Y-118364000D01*
X117602000Y-116078000D02*
X111506000Y-116078000D01*
X111506000Y-116078000D02*
X110744000Y-116840000D01*
X122936000Y-116078000D02*
X117602000Y-116078000D01*
X116078000Y-117348000D02*
X116078000Y-119888000D01*
G36*
X129165000Y-121412000D02*
X129193545Y-121555507D01*
X129274835Y-121677165D01*
X130036835Y-122439165D01*
X130158494Y-122520455D01*
X130302000Y-122549000D01*
X133229000Y-122549000D01*
X133229000Y-131705000D01*
X128899000Y-131705000D01*
X128899000Y-128270000D01*
X128877022Y-128159507D01*
X128870455Y-128126493D01*
X128789165Y-128004835D01*
X128535165Y-127750835D01*
X128413507Y-127669545D01*
X128270000Y-127641000D01*
X121310547Y-127641000D01*
X121385173Y-127626958D01*
X121487279Y-127561255D01*
X121555778Y-127461003D01*
X121579877Y-127342000D01*
X121579877Y-126892000D01*
X121666000Y-126892000D01*
X121819074Y-126861552D01*
X121948843Y-126774843D01*
X122964843Y-125758843D01*
X123044000Y-125640376D01*
X123044000Y-126297513D01*
X122935641Y-126405683D01*
X122844104Y-126626129D01*
X122843896Y-126864824D01*
X122935048Y-127085429D01*
X123103683Y-127254359D01*
X123324129Y-127345896D01*
X123562824Y-127346104D01*
X123783429Y-127254952D01*
X123952359Y-127086317D01*
X124043896Y-126865871D01*
X124044104Y-126627176D01*
X123952952Y-126406571D01*
X123844000Y-126297428D01*
X123844000Y-125670236D01*
X123923844Y-125670236D01*
X124060572Y-126001143D01*
X124313525Y-126254538D01*
X124644194Y-126391843D01*
X125002236Y-126392156D01*
X125333143Y-126255428D01*
X125586538Y-126002475D01*
X125723843Y-125671806D01*
X125724156Y-125313764D01*
X125587428Y-124982857D01*
X125334475Y-124729462D01*
X125003806Y-124592157D01*
X124645764Y-124591844D01*
X124314857Y-124728572D01*
X124061462Y-124981525D01*
X123924157Y-125312194D01*
X123923844Y-125670236D01*
X123844000Y-125670236D01*
X123844000Y-124146487D01*
X123952359Y-124038317D01*
X124043896Y-123817871D01*
X124044104Y-123579176D01*
X123952952Y-123358571D01*
X123784317Y-123189641D01*
X123563871Y-123098104D01*
X123325176Y-123097896D01*
X123104571Y-123189048D01*
X123082000Y-123211580D01*
X123082000Y-122339686D01*
X125758840Y-119662845D01*
X125758843Y-119662843D01*
X126266840Y-119154845D01*
X126266843Y-119154843D01*
X126353552Y-119025073D01*
X126384000Y-118872000D01*
X126384000Y-118364000D01*
X126371507Y-118301193D01*
X126960123Y-118889809D01*
X126960123Y-120130000D01*
X126981042Y-120241173D01*
X127046745Y-120343279D01*
X127146997Y-120411778D01*
X127266000Y-120435877D01*
X128766000Y-120435877D01*
X128877173Y-120414958D01*
X128979279Y-120349255D01*
X129047778Y-120249003D01*
X129071877Y-120130000D01*
X129071877Y-118630000D01*
X129050958Y-118518827D01*
X128985255Y-118416721D01*
X128885003Y-118348222D01*
X128766000Y-118324123D01*
X127525809Y-118324123D01*
X126638000Y-117436314D01*
X126638000Y-117288487D01*
X126746359Y-117180317D01*
X126837896Y-116959871D01*
X126838104Y-116721176D01*
X126746952Y-116500571D01*
X126724420Y-116478000D01*
X126960123Y-116478000D01*
X126960123Y-117590000D01*
X126981042Y-117701173D01*
X127046745Y-117803279D01*
X127146997Y-117871778D01*
X127266000Y-117895877D01*
X128766000Y-117895877D01*
X128877173Y-117874958D01*
X128979279Y-117809255D01*
X129047778Y-117709003D01*
X129071877Y-117590000D01*
X129071877Y-116090000D01*
X129050958Y-115978827D01*
X128985255Y-115876721D01*
X128885003Y-115808222D01*
X128766000Y-115784123D01*
X127520329Y-115784123D01*
X127407074Y-115708448D01*
X127254000Y-115678000D01*
X126064875Y-115678000D01*
X126058291Y-115662065D01*
X126102824Y-115662104D01*
X126323429Y-115570952D01*
X126432572Y-115462000D01*
X127254000Y-115462000D01*
X127407074Y-115431552D01*
X127520329Y-115355877D01*
X128766000Y-115355877D01*
X128877173Y-115334958D01*
X128979279Y-115269255D01*
X129047778Y-115169003D01*
X129071877Y-115050000D01*
X129071877Y-113550000D01*
X129050958Y-113438827D01*
X128985255Y-113336721D01*
X128885003Y-113268222D01*
X128766000Y-113244123D01*
X127266000Y-113244123D01*
X127154827Y-113265042D01*
X127146000Y-113270722D01*
X127146000Y-113195686D01*
X127525809Y-112815877D01*
X128766000Y-112815877D01*
X128877173Y-112794958D01*
X128979279Y-112729255D01*
X129047778Y-112629003D01*
X129071877Y-112510000D01*
X129071877Y-111010000D01*
X129050958Y-110898827D01*
X128985255Y-110796721D01*
X128885003Y-110728222D01*
X128766000Y-110704123D01*
X127266000Y-110704123D01*
X127154827Y-110725042D01*
X127052721Y-110790745D01*
X126984222Y-110890997D01*
X126960123Y-111010000D01*
X126960123Y-112250191D01*
X126463157Y-112747157D01*
X126376448Y-112876926D01*
X126376448Y-112876927D01*
X126346000Y-113030000D01*
X126346000Y-113597513D01*
X126237641Y-113705683D01*
X126146104Y-113926129D01*
X126145896Y-114164824D01*
X126237048Y-114385429D01*
X126405683Y-114554359D01*
X126626129Y-114645896D01*
X126864824Y-114646104D01*
X126960123Y-114606727D01*
X126960123Y-114662000D01*
X126432487Y-114662000D01*
X126324317Y-114553641D01*
X126103871Y-114462104D01*
X125865176Y-114461896D01*
X125644571Y-114553048D01*
X125475641Y-114721683D01*
X125384104Y-114942129D01*
X125383896Y-115180824D01*
X125401709Y-115223935D01*
X125357176Y-115223896D01*
X125136571Y-115315048D01*
X124967641Y-115483683D01*
X124876104Y-115704129D01*
X124875896Y-115942824D01*
X124967048Y-116163429D01*
X125135683Y-116332359D01*
X125356129Y-116423896D01*
X125541764Y-116424058D01*
X125576926Y-116447552D01*
X125730000Y-116478000D01*
X125751362Y-116478000D01*
X125729641Y-116499683D01*
X125638104Y-116720129D01*
X125638064Y-116765624D01*
X125595871Y-116748104D01*
X125357176Y-116747896D01*
X125136571Y-116839048D01*
X124967641Y-117007683D01*
X124876104Y-117228129D01*
X124875896Y-117466824D01*
X124967048Y-117687429D01*
X125076000Y-117796572D01*
X125076000Y-117856000D01*
X125106448Y-118009074D01*
X125112348Y-118017904D01*
X125103176Y-118017896D01*
X124882571Y-118109048D01*
X124713641Y-118277683D01*
X124622104Y-118498129D01*
X124621896Y-118736824D01*
X124713048Y-118957429D01*
X124740099Y-118984527D01*
X124431157Y-119293469D01*
X124431155Y-119293472D01*
X120369220Y-123355406D01*
X120274000Y-123336123D01*
X119374000Y-123336123D01*
X119262827Y-123357042D01*
X119160721Y-123422745D01*
X119092222Y-123522997D01*
X119068123Y-123642000D01*
X119068123Y-125342000D01*
X119089042Y-125453173D01*
X119154745Y-125555279D01*
X119254997Y-125623778D01*
X119374000Y-125647877D01*
X120068123Y-125647877D01*
X120068123Y-127342000D01*
X120089042Y-127453173D01*
X120154745Y-127555279D01*
X120254997Y-127623778D01*
X120340041Y-127641000D01*
X117310547Y-127641000D01*
X117385173Y-127626958D01*
X117487279Y-127561255D01*
X117555778Y-127461003D01*
X117579877Y-127342000D01*
X117579877Y-126892000D01*
X118110000Y-126892000D01*
X118263074Y-126861552D01*
X118392843Y-126774843D01*
X118900840Y-126266845D01*
X118900843Y-126266843D01*
X118987552Y-126137073D01*
X119018000Y-125984000D01*
X119018000Y-122847686D01*
X120561686Y-121304000D01*
X120709513Y-121304000D01*
X120817683Y-121412359D01*
X121038129Y-121503896D01*
X121276824Y-121504104D01*
X121497429Y-121412952D01*
X121666359Y-121244317D01*
X121757896Y-121023871D01*
X121758104Y-120785176D01*
X121666952Y-120564571D01*
X121498317Y-120395641D01*
X121277871Y-120304104D01*
X121039176Y-120303896D01*
X120818571Y-120395048D01*
X120709428Y-120504000D01*
X120599686Y-120504000D01*
X122852950Y-118250736D01*
X122935048Y-118449429D01*
X123103683Y-118618359D01*
X123324129Y-118709896D01*
X123562824Y-118710104D01*
X123783429Y-118618952D01*
X123952359Y-118450317D01*
X124043896Y-118229871D01*
X124044030Y-118075656D01*
X124488843Y-117630843D01*
X124575552Y-117501074D01*
X124606001Y-117348000D01*
X124606000Y-117347995D01*
X124606000Y-113538000D01*
X124575552Y-113384927D01*
X124488843Y-113255157D01*
X124488840Y-113255155D01*
X123980843Y-112747157D01*
X123483877Y-112250191D01*
X123483877Y-111010000D01*
X123912123Y-111010000D01*
X123912123Y-112510000D01*
X123933042Y-112621173D01*
X123998745Y-112723279D01*
X124098997Y-112791778D01*
X124218000Y-112815877D01*
X125718000Y-112815877D01*
X125829173Y-112794958D01*
X125931279Y-112729255D01*
X125999778Y-112629003D01*
X126023877Y-112510000D01*
X126023877Y-112360035D01*
X126102824Y-112360104D01*
X126323429Y-112268952D01*
X126492359Y-112100317D01*
X126583896Y-111879871D01*
X126584104Y-111641176D01*
X126492952Y-111420571D01*
X126324317Y-111251641D01*
X126103871Y-111160104D01*
X126023877Y-111160034D01*
X126023877Y-111010000D01*
X126002958Y-110898827D01*
X125937255Y-110796721D01*
X125837003Y-110728222D01*
X125718000Y-110704123D01*
X124218000Y-110704123D01*
X124106827Y-110725042D01*
X124004721Y-110790745D01*
X123936222Y-110890997D01*
X123912123Y-111010000D01*
X123483877Y-111010000D01*
X123462958Y-110898827D01*
X123397255Y-110796721D01*
X123297003Y-110728222D01*
X123178000Y-110704123D01*
X121678000Y-110704123D01*
X121566827Y-110725042D01*
X121464721Y-110790745D01*
X121396222Y-110890997D01*
X121372123Y-111010000D01*
X121372123Y-111199241D01*
X121277871Y-111160104D01*
X121039176Y-111159896D01*
X120943877Y-111199273D01*
X120943877Y-111010000D01*
X120922958Y-110898827D01*
X120857255Y-110796721D01*
X120757003Y-110728222D01*
X120638000Y-110704123D01*
X119138000Y-110704123D01*
X119026827Y-110725042D01*
X118924721Y-110790745D01*
X118856222Y-110890997D01*
X118832123Y-111010000D01*
X118832123Y-111199241D01*
X118737871Y-111160104D01*
X118499176Y-111159896D01*
X118403877Y-111199273D01*
X118403877Y-111010000D01*
X118382958Y-110898827D01*
X118317255Y-110796721D01*
X118217003Y-110728222D01*
X118098000Y-110704123D01*
X116598000Y-110704123D01*
X116486827Y-110725042D01*
X116384721Y-110790745D01*
X116316222Y-110890997D01*
X116292123Y-111010000D01*
X116292123Y-112510000D01*
X116313042Y-112621173D01*
X116318722Y-112630000D01*
X116243686Y-112630000D01*
X115863877Y-112250191D01*
X115863877Y-111010000D01*
X115842958Y-110898827D01*
X115777255Y-110796721D01*
X115677003Y-110728222D01*
X115558000Y-110704123D01*
X114058000Y-110704123D01*
X113946827Y-110725042D01*
X113844721Y-110790745D01*
X113776222Y-110890997D01*
X113752123Y-111010000D01*
X113752123Y-112510000D01*
X113773042Y-112621173D01*
X113838745Y-112723279D01*
X113938997Y-112791778D01*
X114058000Y-112815877D01*
X115298191Y-112815877D01*
X115620314Y-113138000D01*
X114211686Y-113138000D01*
X113323877Y-112250191D01*
X113323877Y-111010000D01*
X113302958Y-110898827D01*
X113237255Y-110796721D01*
X113137003Y-110728222D01*
X113018000Y-110704123D01*
X111518000Y-110704123D01*
X111406827Y-110725042D01*
X111304721Y-110790745D01*
X111236222Y-110890997D01*
X111212123Y-111010000D01*
X111212123Y-112510000D01*
X111233042Y-112621173D01*
X111298745Y-112723279D01*
X111398997Y-112791778D01*
X111518000Y-112815877D01*
X112758191Y-112815877D01*
X113763157Y-113820843D01*
X113892926Y-113907552D01*
X114046000Y-113938001D01*
X114046005Y-113938000D01*
X119722314Y-113938000D01*
X119796029Y-114011715D01*
X119795896Y-114164824D01*
X119887048Y-114385429D01*
X120055683Y-114554359D01*
X120276129Y-114645896D01*
X120514824Y-114646104D01*
X120735429Y-114554952D01*
X120904359Y-114386317D01*
X120995896Y-114165871D01*
X120996104Y-113927176D01*
X120904952Y-113706571D01*
X120736317Y-113537641D01*
X120515871Y-113446104D01*
X120361655Y-113445970D01*
X120345686Y-113430000D01*
X122516314Y-113430000D01*
X123298000Y-114211686D01*
X123298000Y-115591362D01*
X123276317Y-115569641D01*
X123055871Y-115478104D01*
X122817176Y-115477896D01*
X122596571Y-115569048D01*
X122487428Y-115678000D01*
X118050487Y-115678000D01*
X117942317Y-115569641D01*
X117721871Y-115478104D01*
X117483176Y-115477896D01*
X117262571Y-115569048D01*
X117153428Y-115678000D01*
X111506005Y-115678000D01*
X111506000Y-115677999D01*
X111352926Y-115708448D01*
X111223157Y-115795157D01*
X110778285Y-116240029D01*
X110625176Y-116239896D01*
X110404571Y-116331048D01*
X110235641Y-116499683D01*
X110144104Y-116720129D01*
X110143896Y-116958824D01*
X110235048Y-117179429D01*
X110403683Y-117348359D01*
X110624129Y-117439896D01*
X110862824Y-117440104D01*
X111083429Y-117348952D01*
X111252359Y-117180317D01*
X111343896Y-116959871D01*
X111344030Y-116805656D01*
X111671686Y-116478000D01*
X117153513Y-116478000D01*
X117261683Y-116586359D01*
X117482129Y-116677896D01*
X117720824Y-116678104D01*
X117941429Y-116586952D01*
X118050572Y-116478000D01*
X122195362Y-116478000D01*
X122173641Y-116499683D01*
X122082104Y-116720129D01*
X122081896Y-116958824D01*
X122173048Y-117179429D01*
X122282000Y-117288572D01*
X122282000Y-117690314D01*
X116512964Y-123459350D01*
X116493255Y-123428721D01*
X116393003Y-123360222D01*
X116274000Y-123336123D01*
X115374000Y-123336123D01*
X115262827Y-123357042D01*
X115208000Y-123392322D01*
X115208000Y-120142000D01*
X115205613Y-120130000D01*
X115177552Y-119988926D01*
X115090843Y-119859157D01*
X114391971Y-119160285D01*
X114392104Y-119007176D01*
X114300952Y-118786571D01*
X114132317Y-118617641D01*
X113911871Y-118526104D01*
X113673176Y-118525896D01*
X113452571Y-118617048D01*
X113283641Y-118785683D01*
X113192104Y-119006129D01*
X113191896Y-119244824D01*
X113283048Y-119465429D01*
X113451683Y-119634359D01*
X113672129Y-119725896D01*
X113826344Y-119726030D01*
X114408000Y-120307686D01*
X114408000Y-125476000D01*
X114438448Y-125629074D01*
X114525157Y-125758843D01*
X115541157Y-126774843D01*
X115670926Y-126861552D01*
X115824000Y-126892000D01*
X116068123Y-126892000D01*
X116068123Y-127342000D01*
X116089042Y-127453173D01*
X116154745Y-127555279D01*
X116254997Y-127623778D01*
X116340041Y-127641000D01*
X108579000Y-127641000D01*
X108579000Y-126667000D01*
X108678000Y-126667000D01*
X108678000Y-127301673D01*
X108723672Y-127411936D01*
X108808063Y-127496328D01*
X108918326Y-127542000D01*
X109553000Y-127542000D01*
X109628000Y-127467000D01*
X109628000Y-126592000D01*
X109828000Y-126592000D01*
X109828000Y-127467000D01*
X109903000Y-127542000D01*
X110537674Y-127542000D01*
X110647937Y-127496328D01*
X110732328Y-127411936D01*
X110778000Y-127301673D01*
X110778000Y-126667000D01*
X110703000Y-126592000D01*
X109828000Y-126592000D01*
X109628000Y-126592000D01*
X108753000Y-126592000D01*
X108678000Y-126667000D01*
X108579000Y-126667000D01*
X108579000Y-125682327D01*
X108678000Y-125682327D01*
X108678000Y-126317000D01*
X108753000Y-126392000D01*
X109628000Y-126392000D01*
X109628000Y-125517000D01*
X109828000Y-125517000D01*
X109828000Y-126392000D01*
X110703000Y-126392000D01*
X110778000Y-126317000D01*
X110778000Y-125682327D01*
X110772992Y-125670236D01*
X111923844Y-125670236D01*
X112060572Y-126001143D01*
X112313525Y-126254538D01*
X112644194Y-126391843D01*
X113002236Y-126392156D01*
X113333143Y-126255428D01*
X113586538Y-126002475D01*
X113723843Y-125671806D01*
X113724156Y-125313764D01*
X113587428Y-124982857D01*
X113334475Y-124729462D01*
X113003806Y-124592157D01*
X112645764Y-124591844D01*
X112314857Y-124728572D01*
X112061462Y-124981525D01*
X111924157Y-125312194D01*
X111923844Y-125670236D01*
X110772992Y-125670236D01*
X110732328Y-125572064D01*
X110647937Y-125487672D01*
X110537674Y-125442000D01*
X109903000Y-125442000D01*
X109828000Y-125517000D01*
X109628000Y-125517000D01*
X109553000Y-125442000D01*
X108918326Y-125442000D01*
X108808063Y-125487672D01*
X108723672Y-125572064D01*
X108678000Y-125682327D01*
X108579000Y-125682327D01*
X108579000Y-111010000D01*
X108672123Y-111010000D01*
X108672123Y-112510000D01*
X108693042Y-112621173D01*
X108758745Y-112723279D01*
X108858997Y-112791778D01*
X108978000Y-112815877D01*
X109328000Y-112815877D01*
X109328000Y-117915513D01*
X109219641Y-118023683D01*
X109128104Y-118244129D01*
X109127896Y-118482824D01*
X109219048Y-118703429D01*
X109387683Y-118872359D01*
X109608129Y-118963896D01*
X109846824Y-118964104D01*
X110067429Y-118872952D01*
X110236359Y-118704317D01*
X110327896Y-118483871D01*
X110328104Y-118245176D01*
X110236952Y-118024571D01*
X110128000Y-117915428D01*
X110128000Y-117466824D01*
X115477896Y-117466824D01*
X115569048Y-117687429D01*
X115678000Y-117796572D01*
X115678000Y-119439513D01*
X115569641Y-119547683D01*
X115478104Y-119768129D01*
X115477896Y-120006824D01*
X115569048Y-120227429D01*
X115737683Y-120396359D01*
X115958129Y-120487896D01*
X116196824Y-120488104D01*
X116417429Y-120396952D01*
X116586359Y-120228317D01*
X116677896Y-120007871D01*
X116678104Y-119769176D01*
X116586952Y-119548571D01*
X116478000Y-119439428D01*
X116478000Y-117796487D01*
X116586359Y-117688317D01*
X116677896Y-117467871D01*
X116678104Y-117229176D01*
X116586952Y-117008571D01*
X116418317Y-116839641D01*
X116197871Y-116748104D01*
X115959176Y-116747896D01*
X115738571Y-116839048D01*
X115569641Y-117007683D01*
X115478104Y-117228129D01*
X115477896Y-117466824D01*
X110128000Y-117466824D01*
X110128000Y-112815877D01*
X110478000Y-112815877D01*
X110589173Y-112794958D01*
X110691279Y-112729255D01*
X110759778Y-112629003D01*
X110783877Y-112510000D01*
X110783877Y-111010000D01*
X110762958Y-110898827D01*
X110697255Y-110796721D01*
X110597003Y-110728222D01*
X110478000Y-110704123D01*
X108978000Y-110704123D01*
X108866827Y-110725042D01*
X108764721Y-110790745D01*
X108696222Y-110890997D01*
X108672123Y-111010000D01*
X108579000Y-111010000D01*
X108579000Y-110611000D01*
X129165000Y-110611000D01*
X129165000Y-121412000D01*
X129165000Y-121412000D01*
G37*
X129165000Y-121412000D02*
X129193545Y-121555507D01*
X129274835Y-121677165D01*
X130036835Y-122439165D01*
X130158494Y-122520455D01*
X130302000Y-122549000D01*
X133229000Y-122549000D01*
X133229000Y-131705000D01*
X128899000Y-131705000D01*
X128899000Y-128270000D01*
X128877022Y-128159507D01*
X128870455Y-128126493D01*
X128789165Y-128004835D01*
X128535165Y-127750835D01*
X128413507Y-127669545D01*
X128270000Y-127641000D01*
X121310547Y-127641000D01*
X121385173Y-127626958D01*
X121487279Y-127561255D01*
X121555778Y-127461003D01*
X121579877Y-127342000D01*
X121579877Y-126892000D01*
X121666000Y-126892000D01*
X121819074Y-126861552D01*
X121948843Y-126774843D01*
X122964843Y-125758843D01*
X123044000Y-125640376D01*
X123044000Y-126297513D01*
X122935641Y-126405683D01*
X122844104Y-126626129D01*
X122843896Y-126864824D01*
X122935048Y-127085429D01*
X123103683Y-127254359D01*
X123324129Y-127345896D01*
X123562824Y-127346104D01*
X123783429Y-127254952D01*
X123952359Y-127086317D01*
X124043896Y-126865871D01*
X124044104Y-126627176D01*
X123952952Y-126406571D01*
X123844000Y-126297428D01*
X123844000Y-125670236D01*
X123923844Y-125670236D01*
X124060572Y-126001143D01*
X124313525Y-126254538D01*
X124644194Y-126391843D01*
X125002236Y-126392156D01*
X125333143Y-126255428D01*
X125586538Y-126002475D01*
X125723843Y-125671806D01*
X125724156Y-125313764D01*
X125587428Y-124982857D01*
X125334475Y-124729462D01*
X125003806Y-124592157D01*
X124645764Y-124591844D01*
X124314857Y-124728572D01*
X124061462Y-124981525D01*
X123924157Y-125312194D01*
X123923844Y-125670236D01*
X123844000Y-125670236D01*
X123844000Y-124146487D01*
X123952359Y-124038317D01*
X124043896Y-123817871D01*
X124044104Y-123579176D01*
X123952952Y-123358571D01*
X123784317Y-123189641D01*
X123563871Y-123098104D01*
X123325176Y-123097896D01*
X123104571Y-123189048D01*
X123082000Y-123211580D01*
X123082000Y-122339686D01*
X125758840Y-119662845D01*
X125758843Y-119662843D01*
X126266840Y-119154845D01*
X126266843Y-119154843D01*
X126353552Y-119025073D01*
X126384000Y-118872000D01*
X126384000Y-118364000D01*
X126371507Y-118301193D01*
X126960123Y-118889809D01*
X126960123Y-120130000D01*
X126981042Y-120241173D01*
X127046745Y-120343279D01*
X127146997Y-120411778D01*
X127266000Y-120435877D01*
X128766000Y-120435877D01*
X128877173Y-120414958D01*
X128979279Y-120349255D01*
X129047778Y-120249003D01*
X129071877Y-120130000D01*
X129071877Y-118630000D01*
X129050958Y-118518827D01*
X128985255Y-118416721D01*
X128885003Y-118348222D01*
X128766000Y-118324123D01*
X127525809Y-118324123D01*
X126638000Y-117436314D01*
X126638000Y-117288487D01*
X126746359Y-117180317D01*
X126837896Y-116959871D01*
X126838104Y-116721176D01*
X126746952Y-116500571D01*
X126724420Y-116478000D01*
X126960123Y-116478000D01*
X126960123Y-117590000D01*
X126981042Y-117701173D01*
X127046745Y-117803279D01*
X127146997Y-117871778D01*
X127266000Y-117895877D01*
X128766000Y-117895877D01*
X128877173Y-117874958D01*
X128979279Y-117809255D01*
X129047778Y-117709003D01*
X129071877Y-117590000D01*
X129071877Y-116090000D01*
X129050958Y-115978827D01*
X128985255Y-115876721D01*
X128885003Y-115808222D01*
X128766000Y-115784123D01*
X127520329Y-115784123D01*
X127407074Y-115708448D01*
X127254000Y-115678000D01*
X126064875Y-115678000D01*
X126058291Y-115662065D01*
X126102824Y-115662104D01*
X126323429Y-115570952D01*
X126432572Y-115462000D01*
X127254000Y-115462000D01*
X127407074Y-115431552D01*
X127520329Y-115355877D01*
X128766000Y-115355877D01*
X128877173Y-115334958D01*
X128979279Y-115269255D01*
X129047778Y-115169003D01*
X129071877Y-115050000D01*
X129071877Y-113550000D01*
X129050958Y-113438827D01*
X128985255Y-113336721D01*
X128885003Y-113268222D01*
X128766000Y-113244123D01*
X127266000Y-113244123D01*
X127154827Y-113265042D01*
X127146000Y-113270722D01*
X127146000Y-113195686D01*
X127525809Y-112815877D01*
X128766000Y-112815877D01*
X128877173Y-112794958D01*
X128979279Y-112729255D01*
X129047778Y-112629003D01*
X129071877Y-112510000D01*
X129071877Y-111010000D01*
X129050958Y-110898827D01*
X128985255Y-110796721D01*
X128885003Y-110728222D01*
X128766000Y-110704123D01*
X127266000Y-110704123D01*
X127154827Y-110725042D01*
X127052721Y-110790745D01*
X126984222Y-110890997D01*
X126960123Y-111010000D01*
X126960123Y-112250191D01*
X126463157Y-112747157D01*
X126376448Y-112876926D01*
X126376448Y-112876927D01*
X126346000Y-113030000D01*
X126346000Y-113597513D01*
X126237641Y-113705683D01*
X126146104Y-113926129D01*
X126145896Y-114164824D01*
X126237048Y-114385429D01*
X126405683Y-114554359D01*
X126626129Y-114645896D01*
X126864824Y-114646104D01*
X126960123Y-114606727D01*
X126960123Y-114662000D01*
X126432487Y-114662000D01*
X126324317Y-114553641D01*
X126103871Y-114462104D01*
X125865176Y-114461896D01*
X125644571Y-114553048D01*
X125475641Y-114721683D01*
X125384104Y-114942129D01*
X125383896Y-115180824D01*
X125401709Y-115223935D01*
X125357176Y-115223896D01*
X125136571Y-115315048D01*
X124967641Y-115483683D01*
X124876104Y-115704129D01*
X124875896Y-115942824D01*
X124967048Y-116163429D01*
X125135683Y-116332359D01*
X125356129Y-116423896D01*
X125541764Y-116424058D01*
X125576926Y-116447552D01*
X125730000Y-116478000D01*
X125751362Y-116478000D01*
X125729641Y-116499683D01*
X125638104Y-116720129D01*
X125638064Y-116765624D01*
X125595871Y-116748104D01*
X125357176Y-116747896D01*
X125136571Y-116839048D01*
X124967641Y-117007683D01*
X124876104Y-117228129D01*
X124875896Y-117466824D01*
X124967048Y-117687429D01*
X125076000Y-117796572D01*
X125076000Y-117856000D01*
X125106448Y-118009074D01*
X125112348Y-118017904D01*
X125103176Y-118017896D01*
X124882571Y-118109048D01*
X124713641Y-118277683D01*
X124622104Y-118498129D01*
X124621896Y-118736824D01*
X124713048Y-118957429D01*
X124740099Y-118984527D01*
X124431157Y-119293469D01*
X124431155Y-119293472D01*
X120369220Y-123355406D01*
X120274000Y-123336123D01*
X119374000Y-123336123D01*
X119262827Y-123357042D01*
X119160721Y-123422745D01*
X119092222Y-123522997D01*
X119068123Y-123642000D01*
X119068123Y-125342000D01*
X119089042Y-125453173D01*
X119154745Y-125555279D01*
X119254997Y-125623778D01*
X119374000Y-125647877D01*
X120068123Y-125647877D01*
X120068123Y-127342000D01*
X120089042Y-127453173D01*
X120154745Y-127555279D01*
X120254997Y-127623778D01*
X120340041Y-127641000D01*
X117310547Y-127641000D01*
X117385173Y-127626958D01*
X117487279Y-127561255D01*
X117555778Y-127461003D01*
X117579877Y-127342000D01*
X117579877Y-126892000D01*
X118110000Y-126892000D01*
X118263074Y-126861552D01*
X118392843Y-126774843D01*
X118900840Y-126266845D01*
X118900843Y-126266843D01*
X118987552Y-126137073D01*
X119018000Y-125984000D01*
X119018000Y-122847686D01*
X120561686Y-121304000D01*
X120709513Y-121304000D01*
X120817683Y-121412359D01*
X121038129Y-121503896D01*
X121276824Y-121504104D01*
X121497429Y-121412952D01*
X121666359Y-121244317D01*
X121757896Y-121023871D01*
X121758104Y-120785176D01*
X121666952Y-120564571D01*
X121498317Y-120395641D01*
X121277871Y-120304104D01*
X121039176Y-120303896D01*
X120818571Y-120395048D01*
X120709428Y-120504000D01*
X120599686Y-120504000D01*
X122852950Y-118250736D01*
X122935048Y-118449429D01*
X123103683Y-118618359D01*
X123324129Y-118709896D01*
X123562824Y-118710104D01*
X123783429Y-118618952D01*
X123952359Y-118450317D01*
X124043896Y-118229871D01*
X124044030Y-118075656D01*
X124488843Y-117630843D01*
X124575552Y-117501074D01*
X124606001Y-117348000D01*
X124606000Y-117347995D01*
X124606000Y-113538000D01*
X124575552Y-113384927D01*
X124488843Y-113255157D01*
X124488840Y-113255155D01*
X123980843Y-112747157D01*
X123483877Y-112250191D01*
X123483877Y-111010000D01*
X123912123Y-111010000D01*
X123912123Y-112510000D01*
X123933042Y-112621173D01*
X123998745Y-112723279D01*
X124098997Y-112791778D01*
X124218000Y-112815877D01*
X125718000Y-112815877D01*
X125829173Y-112794958D01*
X125931279Y-112729255D01*
X125999778Y-112629003D01*
X126023877Y-112510000D01*
X126023877Y-112360035D01*
X126102824Y-112360104D01*
X126323429Y-112268952D01*
X126492359Y-112100317D01*
X126583896Y-111879871D01*
X126584104Y-111641176D01*
X126492952Y-111420571D01*
X126324317Y-111251641D01*
X126103871Y-111160104D01*
X126023877Y-111160034D01*
X126023877Y-111010000D01*
X126002958Y-110898827D01*
X125937255Y-110796721D01*
X125837003Y-110728222D01*
X125718000Y-110704123D01*
X124218000Y-110704123D01*
X124106827Y-110725042D01*
X124004721Y-110790745D01*
X123936222Y-110890997D01*
X123912123Y-111010000D01*
X123483877Y-111010000D01*
X123462958Y-110898827D01*
X123397255Y-110796721D01*
X123297003Y-110728222D01*
X123178000Y-110704123D01*
X121678000Y-110704123D01*
X121566827Y-110725042D01*
X121464721Y-110790745D01*
X121396222Y-110890997D01*
X121372123Y-111010000D01*
X121372123Y-111199241D01*
X121277871Y-111160104D01*
X121039176Y-111159896D01*
X120943877Y-111199273D01*
X120943877Y-111010000D01*
X120922958Y-110898827D01*
X120857255Y-110796721D01*
X120757003Y-110728222D01*
X120638000Y-110704123D01*
X119138000Y-110704123D01*
X119026827Y-110725042D01*
X118924721Y-110790745D01*
X118856222Y-110890997D01*
X118832123Y-111010000D01*
X118832123Y-111199241D01*
X118737871Y-111160104D01*
X118499176Y-111159896D01*
X118403877Y-111199273D01*
X118403877Y-111010000D01*
X118382958Y-110898827D01*
X118317255Y-110796721D01*
X118217003Y-110728222D01*
X118098000Y-110704123D01*
X116598000Y-110704123D01*
X116486827Y-110725042D01*
X116384721Y-110790745D01*
X116316222Y-110890997D01*
X116292123Y-111010000D01*
X116292123Y-112510000D01*
X116313042Y-112621173D01*
X116318722Y-112630000D01*
X116243686Y-112630000D01*
X115863877Y-112250191D01*
X115863877Y-111010000D01*
X115842958Y-110898827D01*
X115777255Y-110796721D01*
X115677003Y-110728222D01*
X115558000Y-110704123D01*
X114058000Y-110704123D01*
X113946827Y-110725042D01*
X113844721Y-110790745D01*
X113776222Y-110890997D01*
X113752123Y-111010000D01*
X113752123Y-112510000D01*
X113773042Y-112621173D01*
X113838745Y-112723279D01*
X113938997Y-112791778D01*
X114058000Y-112815877D01*
X115298191Y-112815877D01*
X115620314Y-113138000D01*
X114211686Y-113138000D01*
X113323877Y-112250191D01*
X113323877Y-111010000D01*
X113302958Y-110898827D01*
X113237255Y-110796721D01*
X113137003Y-110728222D01*
X113018000Y-110704123D01*
X111518000Y-110704123D01*
X111406827Y-110725042D01*
X111304721Y-110790745D01*
X111236222Y-110890997D01*
X111212123Y-111010000D01*
X111212123Y-112510000D01*
X111233042Y-112621173D01*
X111298745Y-112723279D01*
X111398997Y-112791778D01*
X111518000Y-112815877D01*
X112758191Y-112815877D01*
X113763157Y-113820843D01*
X113892926Y-113907552D01*
X114046000Y-113938001D01*
X114046005Y-113938000D01*
X119722314Y-113938000D01*
X119796029Y-114011715D01*
X119795896Y-114164824D01*
X119887048Y-114385429D01*
X120055683Y-114554359D01*
X120276129Y-114645896D01*
X120514824Y-114646104D01*
X120735429Y-114554952D01*
X120904359Y-114386317D01*
X120995896Y-114165871D01*
X120996104Y-113927176D01*
X120904952Y-113706571D01*
X120736317Y-113537641D01*
X120515871Y-113446104D01*
X120361655Y-113445970D01*
X120345686Y-113430000D01*
X122516314Y-113430000D01*
X123298000Y-114211686D01*
X123298000Y-115591362D01*
X123276317Y-115569641D01*
X123055871Y-115478104D01*
X122817176Y-115477896D01*
X122596571Y-115569048D01*
X122487428Y-115678000D01*
X118050487Y-115678000D01*
X117942317Y-115569641D01*
X117721871Y-115478104D01*
X117483176Y-115477896D01*
X117262571Y-115569048D01*
X117153428Y-115678000D01*
X111506005Y-115678000D01*
X111506000Y-115677999D01*
X111352926Y-115708448D01*
X111223157Y-115795157D01*
X110778285Y-116240029D01*
X110625176Y-116239896D01*
X110404571Y-116331048D01*
X110235641Y-116499683D01*
X110144104Y-116720129D01*
X110143896Y-116958824D01*
X110235048Y-117179429D01*
X110403683Y-117348359D01*
X110624129Y-117439896D01*
X110862824Y-117440104D01*
X111083429Y-117348952D01*
X111252359Y-117180317D01*
X111343896Y-116959871D01*
X111344030Y-116805656D01*
X111671686Y-116478000D01*
X117153513Y-116478000D01*
X117261683Y-116586359D01*
X117482129Y-116677896D01*
X117720824Y-116678104D01*
X117941429Y-116586952D01*
X118050572Y-116478000D01*
X122195362Y-116478000D01*
X122173641Y-116499683D01*
X122082104Y-116720129D01*
X122081896Y-116958824D01*
X122173048Y-117179429D01*
X122282000Y-117288572D01*
X122282000Y-117690314D01*
X116512964Y-123459350D01*
X116493255Y-123428721D01*
X116393003Y-123360222D01*
X116274000Y-123336123D01*
X115374000Y-123336123D01*
X115262827Y-123357042D01*
X115208000Y-123392322D01*
X115208000Y-120142000D01*
X115205613Y-120130000D01*
X115177552Y-119988926D01*
X115090843Y-119859157D01*
X114391971Y-119160285D01*
X114392104Y-119007176D01*
X114300952Y-118786571D01*
X114132317Y-118617641D01*
X113911871Y-118526104D01*
X113673176Y-118525896D01*
X113452571Y-118617048D01*
X113283641Y-118785683D01*
X113192104Y-119006129D01*
X113191896Y-119244824D01*
X113283048Y-119465429D01*
X113451683Y-119634359D01*
X113672129Y-119725896D01*
X113826344Y-119726030D01*
X114408000Y-120307686D01*
X114408000Y-125476000D01*
X114438448Y-125629074D01*
X114525157Y-125758843D01*
X115541157Y-126774843D01*
X115670926Y-126861552D01*
X115824000Y-126892000D01*
X116068123Y-126892000D01*
X116068123Y-127342000D01*
X116089042Y-127453173D01*
X116154745Y-127555279D01*
X116254997Y-127623778D01*
X116340041Y-127641000D01*
X108579000Y-127641000D01*
X108579000Y-126667000D01*
X108678000Y-126667000D01*
X108678000Y-127301673D01*
X108723672Y-127411936D01*
X108808063Y-127496328D01*
X108918326Y-127542000D01*
X109553000Y-127542000D01*
X109628000Y-127467000D01*
X109628000Y-126592000D01*
X109828000Y-126592000D01*
X109828000Y-127467000D01*
X109903000Y-127542000D01*
X110537674Y-127542000D01*
X110647937Y-127496328D01*
X110732328Y-127411936D01*
X110778000Y-127301673D01*
X110778000Y-126667000D01*
X110703000Y-126592000D01*
X109828000Y-126592000D01*
X109628000Y-126592000D01*
X108753000Y-126592000D01*
X108678000Y-126667000D01*
X108579000Y-126667000D01*
X108579000Y-125682327D01*
X108678000Y-125682327D01*
X108678000Y-126317000D01*
X108753000Y-126392000D01*
X109628000Y-126392000D01*
X109628000Y-125517000D01*
X109828000Y-125517000D01*
X109828000Y-126392000D01*
X110703000Y-126392000D01*
X110778000Y-126317000D01*
X110778000Y-125682327D01*
X110772992Y-125670236D01*
X111923844Y-125670236D01*
X112060572Y-126001143D01*
X112313525Y-126254538D01*
X112644194Y-126391843D01*
X113002236Y-126392156D01*
X113333143Y-126255428D01*
X113586538Y-126002475D01*
X113723843Y-125671806D01*
X113724156Y-125313764D01*
X113587428Y-124982857D01*
X113334475Y-124729462D01*
X113003806Y-124592157D01*
X112645764Y-124591844D01*
X112314857Y-124728572D01*
X112061462Y-124981525D01*
X111924157Y-125312194D01*
X111923844Y-125670236D01*
X110772992Y-125670236D01*
X110732328Y-125572064D01*
X110647937Y-125487672D01*
X110537674Y-125442000D01*
X109903000Y-125442000D01*
X109828000Y-125517000D01*
X109628000Y-125517000D01*
X109553000Y-125442000D01*
X108918326Y-125442000D01*
X108808063Y-125487672D01*
X108723672Y-125572064D01*
X108678000Y-125682327D01*
X108579000Y-125682327D01*
X108579000Y-111010000D01*
X108672123Y-111010000D01*
X108672123Y-112510000D01*
X108693042Y-112621173D01*
X108758745Y-112723279D01*
X108858997Y-112791778D01*
X108978000Y-112815877D01*
X109328000Y-112815877D01*
X109328000Y-117915513D01*
X109219641Y-118023683D01*
X109128104Y-118244129D01*
X109127896Y-118482824D01*
X109219048Y-118703429D01*
X109387683Y-118872359D01*
X109608129Y-118963896D01*
X109846824Y-118964104D01*
X110067429Y-118872952D01*
X110236359Y-118704317D01*
X110327896Y-118483871D01*
X110328104Y-118245176D01*
X110236952Y-118024571D01*
X110128000Y-117915428D01*
X110128000Y-117466824D01*
X115477896Y-117466824D01*
X115569048Y-117687429D01*
X115678000Y-117796572D01*
X115678000Y-119439513D01*
X115569641Y-119547683D01*
X115478104Y-119768129D01*
X115477896Y-120006824D01*
X115569048Y-120227429D01*
X115737683Y-120396359D01*
X115958129Y-120487896D01*
X116196824Y-120488104D01*
X116417429Y-120396952D01*
X116586359Y-120228317D01*
X116677896Y-120007871D01*
X116678104Y-119769176D01*
X116586952Y-119548571D01*
X116478000Y-119439428D01*
X116478000Y-117796487D01*
X116586359Y-117688317D01*
X116677896Y-117467871D01*
X116678104Y-117229176D01*
X116586952Y-117008571D01*
X116418317Y-116839641D01*
X116197871Y-116748104D01*
X115959176Y-116747896D01*
X115738571Y-116839048D01*
X115569641Y-117007683D01*
X115478104Y-117228129D01*
X115477896Y-117466824D01*
X110128000Y-117466824D01*
X110128000Y-112815877D01*
X110478000Y-112815877D01*
X110589173Y-112794958D01*
X110691279Y-112729255D01*
X110759778Y-112629003D01*
X110783877Y-112510000D01*
X110783877Y-111010000D01*
X110762958Y-110898827D01*
X110697255Y-110796721D01*
X110597003Y-110728222D01*
X110478000Y-110704123D01*
X108978000Y-110704123D01*
X108866827Y-110725042D01*
X108764721Y-110790745D01*
X108696222Y-110890997D01*
X108672123Y-111010000D01*
X108579000Y-111010000D01*
X108579000Y-110611000D01*
X129165000Y-110611000D01*
X129165000Y-121412000D01*
G36*
X118218000Y-123342000D02*
X117999000Y-123342000D01*
X117924000Y-123417000D01*
X117924000Y-124392000D01*
X117944000Y-124392000D01*
X117944000Y-124592000D01*
X117924000Y-124592000D01*
X117924000Y-125567000D01*
X117999000Y-125642000D01*
X118218000Y-125642000D01*
X118218000Y-125818315D01*
X117944314Y-126092000D01*
X117579877Y-126092000D01*
X117579877Y-125642000D01*
X117649000Y-125642000D01*
X117724000Y-125567000D01*
X117724000Y-124592000D01*
X117149000Y-124592000D01*
X117074000Y-124667000D01*
X117074000Y-125336123D01*
X116579877Y-125336123D01*
X116579877Y-124523809D01*
X117074000Y-124029686D01*
X117074000Y-124317000D01*
X117149000Y-124392000D01*
X117724000Y-124392000D01*
X117724000Y-123417000D01*
X117705343Y-123398343D01*
X118218000Y-122885686D01*
X118218000Y-123342000D01*
X118218000Y-123342000D01*
G37*
X118218000Y-123342000D02*
X117999000Y-123342000D01*
X117924000Y-123417000D01*
X117924000Y-124392000D01*
X117944000Y-124392000D01*
X117944000Y-124592000D01*
X117924000Y-124592000D01*
X117924000Y-125567000D01*
X117999000Y-125642000D01*
X118218000Y-125642000D01*
X118218000Y-125818315D01*
X117944314Y-126092000D01*
X117579877Y-126092000D01*
X117579877Y-125642000D01*
X117649000Y-125642000D01*
X117724000Y-125567000D01*
X117724000Y-124592000D01*
X117149000Y-124592000D01*
X117074000Y-124667000D01*
X117074000Y-125336123D01*
X116579877Y-125336123D01*
X116579877Y-124523809D01*
X117074000Y-124029686D01*
X117074000Y-124317000D01*
X117149000Y-124392000D01*
X117724000Y-124392000D01*
X117724000Y-123417000D01*
X117705343Y-123398343D01*
X118218000Y-122885686D01*
X118218000Y-123342000D01*
M02*
