<?xml version="1.0" encoding="utf-8"?>
<!-- Generator: Adobe Illustrator 16.2.1, SVG Export Plug-In . SVG Version: 6.00 Build 0)  -->
<svg version="1.2" baseProfile="tiny" id="Layer_1" xmlns="http://www.w3.org/2000/svg" xmlns:xlink="http://www.w3.org/1999/xlink"
	 x="0px" y="0px" width="144.667px" height="44px" viewBox="0 0 144.667 44" xml:space="preserve">
<g>
	<g>
		<path fill="#00B2A9" d="M22.362,42.138c-10.949,0-19.824-8.877-19.824-19.828c0-10.949,8.875-19.824,19.824-19.824
			s19.825,8.875,19.825,19.824C42.188,33.261,33.311,42.138,22.362,42.138"/>
		<path fill="#FFFFFF" d="M19.176,21.331l2.187-3.96l-1.987-3.527c-0.333-0.599-1.02-0.982-1.729-0.982h-5.558
			c-1.125,0-2.034,0.912-2.034,2.034v17.118h4.182v-15.36h2.332L19.176,21.331z M32.638,12.861h-5.559
			c-0.708,0-1.396,0.384-1.727,0.982l-10.087,18.17h4.409l2.689-4.866l2.69,4.866h4.409l-4.908-8.868l3.604-6.492h2.333v15.36h4.181
			V14.895C34.671,13.773,33.763,12.861,32.638,12.861"/>
		<path fill="#6C6F70" d="M52.101,25.859h1.834v9.847h-1.834V25.859z M53.027,23.876c-0.64,0-1.177-0.518-1.177-1.156
			c0-0.641,0.537-1.178,1.177-1.178c0.642,0,1.157,0.537,1.157,1.178C54.185,23.359,53.669,23.876,53.027,23.876"/>
		<path fill="#6C6F70" d="M62.956,35.706v-6.709c0-1.01-0.434-1.692-1.507-1.692c-0.97,0-1.96,0.639-2.849,1.59v6.812h-1.838v-9.848
			h1.467l0.227,1.426c0.929-0.847,2.084-1.632,3.488-1.632c1.858,0,2.85,1.115,2.85,2.891v7.163H62.956z"/>
		<path fill="#6C6F70" d="M70.962,35.871c-1.732,0-2.867-0.619-2.867-2.6v-5.863h-1.671v-1.549h1.671v-3.088h1.796v3.088h2.4
			l-0.001,1.549h-2.399v5.531c0,0.805,0.329,1.301,1.362,1.301c0.33,0,0.803-0.021,1.029-0.062l0.248,1.568
			C72.22,35.809,71.603,35.871,70.962,35.871"/>
		<path fill="#6C6F70" d="M114.454,35.871c-1.732,0-2.867-0.619-2.867-2.6v-5.863h-1.67v-1.549h1.67v-3.088h1.797v3.088h2.4
			l-0.002,1.549h-2.398v5.531c0,0.805,0.329,1.301,1.36,1.301c0.331,0,0.804-0.021,1.03-0.062l0.248,1.568
			C115.713,35.809,115.095,35.871,114.454,35.871"/>
		<path fill="#6C6F70" d="M77.861,27.097c-1.136,0-2.104,0.806-2.395,2.498h4.747C79.986,28.007,79.286,27.097,77.861,27.097
			 M82.071,30.978h-6.688c0.062,2.293,1.156,3.365,2.869,3.365c1.424,0,2.456-0.557,3.529-1.404l0.268,1.652
			c-1.051,0.826-2.311,1.32-3.941,1.32c-2.56,0-4.562-1.547-4.562-5.16c0-3.158,1.858-5.1,4.336-5.1
			c2.869,0,4.189,2.211,4.189,4.935V30.978z"/>
		<path fill="#6C6F70" d="M87.633,26.995c-1.237,0-2.001,0.948-2.001,2.147c0,1.136,0.785,2.022,2.001,2.022
			c1.26,0,2.044-0.929,2.044-2.106C89.677,27.883,88.851,26.995,87.633,26.995 M84.95,36.779c0,0.784,1.012,1.363,2.93,1.363
			c1.921,0,2.994-0.662,2.994-1.488c0-0.598-0.454-1.01-1.858-1.258l-1.175-0.206c-0.538-0.103-0.828-0.166-1.219-0.247
			C85.466,35.519,84.95,36.097,84.95,36.779 M92.671,25.714l0.266,1.652l-1.877,0.187c0.268,0.454,0.392,0.97,0.392,1.525
			c0,2.106-1.774,3.386-3.777,3.386c-0.247,0-0.495-0.02-0.742-0.062c-0.29,0.187-0.496,0.414-0.496,0.6
			c0,0.351,0.351,0.434,2.085,0.742l0.703,0.125c2.083,0.371,3.385,1.032,3.385,2.559c0,2.064-2.25,3.035-4.811,3.035
			c-2.559,0-4.603-0.806-4.603-2.539c0-1.012,0.702-1.795,2.085-2.539c-0.433-0.309-0.619-0.66-0.619-1.032
			c0-0.475,0.371-0.95,1.033-1.341c-1.096-0.537-1.838-1.59-1.838-2.933c0-2.126,1.775-3.427,3.776-3.427
			c0.99,0,1.858,0.289,2.54,0.826L92.671,25.714z"/>
		<path fill="#6C6F70" d="M96.232,29.884v5.821h-1.838v-9.848h1.466l0.309,2.005c0.703-1.115,1.838-2.128,3.447-2.211l0.289,1.756
			C98.274,27.49,96.892,28.585,96.232,29.884"/>
		<path fill="#6C6F70" d="M106.45,30.71c-3.631,0.35-4.395,1.342-4.395,2.354c0,0.805,0.535,1.32,1.464,1.32
			c1.073,0,2.105-0.535,2.931-1.383V30.71z M106.802,35.706l-0.205-1.321c-0.785,0.806-1.858,1.527-3.469,1.527
			c-1.775,0-2.891-1.073-2.891-2.745c0-2.456,2.106-3.426,6.213-3.858v-0.414c0-1.238-0.742-1.672-1.878-1.672
			c-1.196,0-2.331,0.372-3.405,0.846l-0.248-1.59c1.178-0.475,2.292-0.826,3.819-0.826c2.394,0,3.55,0.97,3.55,3.16v6.894H106.802z"
			/>
		<path fill="#6C6F70" d="M121.354,27.097c-1.135,0-2.104,0.806-2.394,2.498h4.748C123.481,28.007,122.779,27.097,121.354,27.097
			 M125.567,30.978h-6.688c0.062,2.293,1.155,3.365,2.869,3.365c1.425,0,2.456-0.557,3.53-1.404l0.267,1.652
			c-1.052,0.826-2.312,1.32-3.942,1.32c-2.559,0-4.561-1.547-4.561-5.16c0-3.158,1.857-5.1,4.336-5.1
			c2.868,0,4.189,2.211,4.189,4.935V30.978z"/>
		<path fill="#6C6F70" d="M134.07,27.842c-0.763-0.394-1.362-0.559-2.415-0.559c-1.547,0-2.662,1.259-2.662,3.696
			c0,2.166,0.971,3.302,2.29,3.302c1.136,0,2.002-0.683,2.787-1.733V27.842z M134.44,35.706l-0.227-1.424
			c-0.742,0.887-1.754,1.63-3.199,1.63c-2.125,0-3.88-1.547-3.88-4.852c0-3.59,2.063-5.325,4.458-5.325
			c0.971,0,1.857,0.186,2.478,0.434v-4.954h1.837v14.491H134.44z"/>
		<path fill="#6C6F70" d="M64.237,18.924v-6.708c0-1.012-0.371-1.692-1.443-1.692c-0.972,0-1.9,0.64-2.787,1.59v6.811H58.17v-6.708
			c0-1.012-0.373-1.692-1.446-1.692c-0.968,0-1.898,0.64-2.785,1.59v6.811h-1.836V9.078h1.465l0.227,1.426
			c0.928-0.847,2.043-1.631,3.426-1.631c1.445,0,2.229,0.619,2.6,1.631c0.889-0.847,2.086-1.631,3.469-1.631
			c1.879,0,2.787,1.114,2.787,2.89v7.161H64.237z"/>
		<path fill="#6C6F70" d="M74.423,13.929c-3.632,0.352-4.395,1.342-4.395,2.354c0,0.807,0.536,1.321,1.463,1.321
			c1.074,0,2.106-0.536,2.932-1.384V13.929z M74.774,18.925l-0.206-1.321c-0.784,0.805-1.858,1.527-3.468,1.527
			c-1.775,0-2.891-1.073-2.891-2.745c0-2.457,2.105-3.426,6.213-3.859v-0.413c0-1.238-0.742-1.673-1.879-1.673
			c-1.195,0-2.33,0.373-3.404,0.847l-0.248-1.589c1.176-0.475,2.293-0.825,3.818-0.825c2.395,0,3.551,0.97,3.551,3.157v6.895H74.774
			z"/>
		<path fill="#6C6F70" d="M88.216,9.078h1.837v9.846h-1.837V9.078z M89.145,7.097c-0.641,0-1.177-0.515-1.177-1.155
			c0-0.64,0.536-1.176,1.177-1.176c0.64,0,1.155,0.537,1.155,1.176C90.3,6.582,89.784,7.097,89.145,7.097"/>
		<path fill="#6C6F70" d="M105.017,18.924v-6.708c0-1.012-0.371-1.692-1.443-1.692c-0.972,0-1.901,0.64-2.787,1.59v6.811h-1.838
			v-6.708c0-1.012-0.371-1.692-1.444-1.692c-0.97,0-1.899,0.64-2.786,1.59v6.811H92.88V9.078h1.467l0.227,1.426
			c0.928-0.847,2.043-1.631,3.426-1.631c1.445,0,2.229,0.619,2.601,1.631c0.888-0.847,2.085-1.631,3.468-1.631
			c1.879,0,2.786,1.114,2.786,2.89v7.161H105.017z"/>
	</g>
	<polygon fill="#6C6F70" points="83.14,13.828 86.415,9.078 84.397,9.078 82.144,12.443 79.876,9.078 77.782,9.078 81.146,13.889 
		77.653,18.925 79.692,18.925 82.121,15.25 84.625,18.925 86.728,18.925 	"/>
	<path fill="#6C6F70" d="M141.653,35.051l0.693-1.812h0.671v2.464h-0.437v-2.003h-0.012l-0.773,2.003h-0.299l-0.772-2.003h-0.011
		v2.003h-0.438V33.24h0.672L141.653,35.051z M140.017,33.597h-0.76v2.106h-0.438v-2.106h-0.759V33.24h1.956V33.597z"/>
</g>
</svg>
