<?xml version="1.0" standalone="no"?>
<!DOCTYPE svg PUBLIC "-//W3C//DTD SVG 20010904//EN"
 "http://www.w3.org/TR/2001/REC-SVG-20010904/DTD/svg10.dtd">
<svg version="1.0" xmlns="http://www.w3.org/2000/svg"
 width="512.000000pt" height="512.000000pt" viewBox="0 0 512.000000 512.000000"
 preserveAspectRatio="xMidYMid meet">
<metadata>
Created by potrace 1.11, written by Peter Selinger 2001-2013
</metadata>
<g transform="translate(0.000000,512.000000) scale(0.100000,-0.100000)"
fill="#000000" stroke="none">
<path d="M2536 4121 c-3 -4 -19 -7 -36 -6 -16 1 -30 -2 -30 -7 0 -4 -7 -8 -15
-8 -8 0 -15 -4 -15 -10 0 -5 -6 -7 -13 -4 -8 3 -20 -2 -27 -11 -7 -8 -19 -15
-27 -15 -8 0 -11 -4 -8 -10 3 -5 0 -10 -7 -10 -7 0 -19 -9 -26 -20 -7 -11 -16
-20 -22 -20 -5 0 -23 -12 -39 -27 -16 -16 -44 -39 -61 -53 -17 -14 -45 -37
-61 -52 -16 -15 -29 -25 -29 -21 0 3 -11 -6 -25 -21 -13 -14 -26 -26 -29 -26
-3 0 -19 -12 -35 -27 -47 -45 -97 -88 -102 -89 -5 -2 -66 -53 -96 -81 -13 -13
-26 -23 -28 -23 -6 0 -50 -36 -82 -67 -13 -12 -23 -20 -23 -17 0 4 -26 -19
-100 -88 -16 -14 -31 -23 -34 -20 -3 3 -6 0 -6 -6 0 -6 -9 -14 -20 -17 -11 -4
-18 -11 -15 -16 4 -5 2 -9 -4 -9 -6 0 -24 -13 -41 -30 -16 -16 -30 -26 -30
-22 0 4 -8 -2 -18 -14 -9 -11 -37 -36 -62 -54 -25 -19 -52 -42 -60 -51 -8 -8
-22 -20 -32 -25 -9 -5 -35 -26 -57 -47 -23 -21 -41 -35 -41 -31 0 4 -9 -5 -21
-20 -11 -14 -25 -23 -31 -20 -6 4 -8 2 -5 -3 4 -6 -12 -23 -36 -39 -23 -15
-59 -45 -80 -65 -20 -21 -37 -36 -37 -34 0 3 -14 -7 -31 -22 -17 -16 -36 -27
-41 -25 -5 1 -8 -1 -5 -5 2 -5 -4 -16 -15 -25 -10 -10 -18 -16 -18 -14 0 5
-49 -36 -91 -76 -16 -15 -29 -24 -29 -20 0 4 -5 -1 -11 -11 -6 -9 -14 -15 -20
-12 -5 4 -9 -1 -9 -9 0 -9 -5 -16 -11 -16 -7 0 -21 -10 -33 -23 -11 -13 -37
-35 -56 -49 -19 -15 -51 -40 -70 -57 -19 -17 -43 -37 -52 -46 -10 -8 -21 -15
-24 -14 -8 1 -54 -54 -54 -64 0 -5 -5 -5 -11 -1 -8 4 -8 0 0 -15 9 -16 9 -21
0 -21 -8 0 -7 -5 2 -17 12 -14 12 -16 0 -8 -17 10 35 -63 58 -82 8 -7 12 -13
9 -13 -4 0 9 -16 28 -35 19 -20 34 -40 34 -45 0 -6 7 -10 15 -10 8 0 15 -7 15
-15 0 -7 8 -19 18 -24 9 -6 13 -11 7 -11 -5 0 1 -7 15 -15 37 -21 79 -18 115
10 18 13 35 21 39 18 3 -4 6 1 6 10 0 10 6 17 13 17 6 0 30 18 51 40 21 22 41
39 43 36 2 -2 16 8 32 23 15 14 43 40 63 58 l35 32 12 -25 c8 -18 8 -31 0 -45
-7 -14 -7 -24 0 -32 6 -8 6 -18 1 -27 -5 -9 -5 -19 2 -27 7 -9 7 -13 -2 -13
-9 0 -9 -4 -2 -13 7 -8 7 -18 2 -27 -5 -9 -5 -19 2 -27 8 -10 7 -13 -3 -13
-11 0 -11 -2 1 -10 8 -5 11 -10 6 -10 -5 0 -3 -7 4 -15 7 -9 8 -15 2 -15 -12
0 -10 -33 3 -42 6 -5 5 -8 -4 -8 -11 0 -11 -3 -1 -15 7 -9 8 -15 2 -15 -6 0
-7 -13 -2 -35 4 -20 4 -35 -1 -35 -5 0 -9 -5 -9 -11 0 -5 4 -8 8 -5 12 7 9
-38 -3 -46 -6 -5 -6 -8 2 -8 8 0 9 -9 3 -28 -4 -17 -4 -36 2 -47 8 -12 7 -20
-3 -26 -12 -7 -11 -9 1 -9 13 0 13 -1 0 -10 -13 -9 -13 -11 0 -20 13 -9 13
-10 0 -10 -13 0 -13 -1 0 -10 9 -6 10 -10 3 -10 -8 0 -9 -9 -3 -29 6 -21 5
-31 -3 -35 -9 -3 -9 -5 0 -5 8 -1 9 -10 3 -29 -4 -17 -4 -36 2 -47 8 -12 7
-20 -3 -26 -12 -7 -11 -9 1 -9 13 0 13 -1 0 -10 -13 -9 -13 -11 0 -20 13 -9
13 -10 0 -10 -13 0 -13 -1 0 -10 9 -6 10 -10 3 -10 -8 0 -9 -9 -3 -29 6 -21 5
-31 -3 -35 -9 -3 -9 -5 0 -5 8 -1 9 -10 4 -28 -9 -35 -3 -65 12 -57 7 3 3 -2
-7 -10 -15 -12 -16 -16 -5 -16 12 0 12 -2 -1 -10 -13 -9 -13 -11 0 -20 13 -9
13 -10 0 -10 -13 0 -13 -1 0 -10 9 -6 10 -10 3 -10 -8 0 -9 -9 -3 -29 6 -21 5
-31 -3 -35 -9 -3 -9 -5 0 -5 8 -1 9 -10 3 -29 -4 -17 -4 -36 2 -47 8 -12 7
-20 -3 -26 -12 -7 -11 -9 1 -9 12 0 12 -2 1 -9 -10 -7 -11 -13 -1 -31 10 -18
9 -24 -1 -31 -11 -7 -11 -9 1 -9 13 0 13 -1 0 -10 -13 -9 -13 -11 0 -20 13 -9
13 -10 0 -10 -13 0 -13 -1 0 -10 9 -6 10 -10 3 -10 -8 0 -9 -9 -3 -31 5 -16 6
-37 3 -45 -3 -8 -1 -14 5 -14 5 0 15 -13 22 -30 7 -16 21 -32 31 -35 10 -4 19
-10 19 -15 0 -8 29 -22 40 -18 3 1 14 -4 26 -10 14 -8 24 -8 31 -1 8 8 13 7
17 0 5 -8 13 -8 27 -1 10 6 19 7 19 3 0 -9 167 -9 176 0 4 4 15 2 25 -3 12 -7
20 -7 24 0 4 6 11 7 17 4 14 -9 166 -9 174 -1 4 3 15 2 25 -3 12 -7 20 -7 24
0 4 6 11 7 17 4 14 -9 189 -10 211 -1 9 3 17 2 17 -4 0 -6 7 -6 20 1 14 8 20
8 20 0 0 -8 6 -8 20 0 14 8 20 8 20 0 0 -8 6 -8 20 0 14 8 20 8 20 0 0 -8 6
-8 20 0 14 8 20 8 20 0 0 -8 6 -8 20 0 14 8 20 8 20 0 0 -8 6 -8 20 0 14 8 20
8 20 0 0 -8 6 -8 20 0 14 8 20 8 20 0 0 -8 6 -8 20 0 14 8 20 8 20 0 0 -8 6
-8 20 0 14 8 20 8 20 0 0 -8 6 -8 20 0 14 8 20 8 20 0 0 -8 6 -8 20 0 14 8 20
8 20 0 0 -8 6 -8 20 0 14 8 20 8 20 0 0 -8 6 -8 20 0 14 8 20 8 20 0 0 -8 6
-8 20 0 14 8 20 8 20 0 0 -6 5 -8 11 -5 13 9 79 12 79 5 0 -3 14 -5 30 -5 17
0 30 3 30 7 0 4 11 3 25 -2 17 -6 25 -6 25 1 0 6 6 7 17 0 10 -5 26 -5 40 0
14 5 23 5 23 -1 0 -6 9 -6 25 0 14 5 25 6 25 2 0 -4 14 -7 30 -7 17 0 30 4 30
8 0 4 9 3 19 -3 13 -7 22 -7 26 0 4 6 12 7 23 1 9 -5 26 -5 39 0 14 5 23 5 23
-1 0 -6 9 -6 25 0 14 5 25 6 25 2 0 -4 13 -7 29 -7 16 0 27 3 24 7 -2 5 7 4
21 -2 16 -6 26 -6 26 0 0 6 9 6 25 0 16 -6 25 -6 25 0 0 6 9 6 23 1 13 -5 30
-5 39 0 11 6 19 5 23 -1 4 -7 12 -7 24 0 10 5 21 6 25 3 9 -9 56 -10 56 -1 0
4 11 3 25 -2 16 -6 25 -6 25 0 0 6 9 6 23 1 13 -5 30 -5 39 0 11 6 19 5 23 -1
4 -7 12 -7 24 0 10 5 21 6 25 3 9 -9 56 -10 56 -1 0 4 11 3 25 -2 16 -6 25 -6
25 0 0 6 9 6 25 0 15 -6 26 -6 30 0 4 6 14 7 23 2 19 -9 54 -8 71 2 6 4 11 2
11 -4 0 -8 6 -8 20 0 14 8 20 8 20 0 0 -8 6 -8 20 0 14 8 20 8 20 0 0 -7 6 -8
18 -2 9 5 27 8 39 7 12 -1 20 2 17 7 -3 4 2 8 10 8 19 0 67 40 61 50 -3 5 2
11 11 14 8 3 12 10 9 16 -3 5 -1 10 5 10 7 0 9 8 5 20 -3 11 -2 20 3 20 6 0 7
14 2 35 -5 21 -4 35 1 35 6 0 5 9 -1 20 -6 11 -7 20 -3 20 4 0 6 171 3 380 -3
209 -1 380 3 380 4 0 3 9 -3 20 -6 11 -7 20 -2 20 5 0 6 18 2 40 -4 22 -3 40
2 40 5 0 4 9 -2 20 -6 11 -7 20 -2 20 5 0 6 18 2 40 -4 22 -3 40 2 40 5 0 4 9
-2 20 -6 11 -7 20 -2 20 5 0 6 18 2 40 -4 22 -3 40 2 40 5 0 4 9 -2 20 -6 11
-7 20 -2 20 5 0 6 18 2 40 -4 22 -3 40 2 40 5 0 4 9 -2 20 -6 11 -7 20 -3 20
4 0 7 36 5 80 -4 82 2 93 29 63 9 -10 31 -29 49 -43 18 -14 43 -35 56 -47 13
-13 30 -23 39 -23 8 0 14 -4 13 -9 -2 -5 14 -22 34 -39 21 -16 34 -33 30 -36
-4 -4 -2 -6 3 -4 6 1 26 -9 45 -23 36 -27 90 -43 90 -27 0 5 4 7 9 4 4 -3 19
3 31 14 13 11 20 20 16 20 -3 0 10 16 30 35 19 19 33 35 30 35 -3 0 7 13 22
30 15 16 39 44 55 60 15 17 27 35 27 41 0 6 3 8 8 6 4 -3 7 12 8 34 0 21 -4
39 -8 39 -5 0 -7 4 -4 9 3 4 -3 16 -14 26 -11 10 -20 14 -20 9 -1 -5 -7 2 -15
16 -8 14 -14 21 -15 15 0 -5 -14 6 -30 25 -16 19 -30 32 -30 28 0 -5 -8 0 -19
10 -10 9 -37 34 -60 56 -22 21 -41 36 -41 33 0 -6 -45 31 -95 80 -19 17 -36
29 -39 25 -3 -3 -6 0 -6 6 0 6 -9 14 -20 17 -11 3 -20 14 -20 22 0 9 -3 14 -6
10 -6 -6 -27 10 -83 63 -20 19 -38 35 -41 35 -3 0 -4 4 -2 8 1 5 -1 6 -5 4
-15 -10 -41 19 -51 56 -6 20 -7 37 -3 37 5 0 5 18 1 40 -4 22 -3 40 2 40 5 0
4 9 -2 20 -6 11 -7 20 -2 20 5 0 6 18 2 40 -4 22 -3 40 2 40 5 0 4 9 -2 20 -6
11 -7 20 -2 20 5 0 6 18 2 40 -4 22 -3 40 2 40 5 0 4 9 -2 20 -6 11 -7 20 -2
20 5 0 6 18 2 40 -4 22 -3 40 2 40 5 0 4 9 -2 20 -6 11 -7 20 -3 20 9 0 7 556
-2 570 -3 5 0 12 5 15 7 5 5 12 -7 21 -10 7 -14 14 -8 14 5 0 -1 7 -13 16 -12
8 -27 12 -32 9 -6 -3 -10 -1 -10 5 0 8 -9 10 -23 7 -12 -4 -29 -2 -37 3 -8 5
-18 6 -24 3 -19 -12 -76 -11 -76 1 0 7 -3 8 -8 1 -4 -6 -18 -10 -32 -10 -14 1
-31 -4 -39 -9 -11 -8 -13 -8 -8 0 4 7 0 14 -7 17 -8 3 -16 1 -18 -5 -3 -8 -10
-8 -25 0 -11 6 -23 8 -27 5 -11 -11 -126 -11 -119 0 4 6 1 7 -8 1 -19 -11 -90
-14 -83 -2 3 4 -11 -1 -30 -12 -20 -11 -36 -16 -37 -12 -1 20 -23 -48 -25 -79
-1 -20 -5 -42 -8 -48 -4 -6 -2 -11 4 -11 6 0 8 -5 5 -11 -10 -15 -12 -79 -3
-79 3 0 3 -13 -2 -30 -5 -16 -5 -30 -2 -30 9 0 7 -64 -3 -79 -3 -6 -1 -11 5
-11 8 0 8 -6 0 -20 -8 -14 -8 -26 0 -40 6 -11 7 -20 2 -20 -4 0 -7 -15 -5 -32
5 -44 4 -91 -3 -97 -3 -3 -10 2 -15 12 -6 9 -14 15 -20 12 -5 -4 -9 -2 -9 3 0
5 -25 30 -55 55 -30 24 -51 48 -47 52 4 5 2 5 -4 2 -6 -4 -30 11 -54 33 -24
22 -46 37 -50 35 -4 -3 -10 4 -13 15 -3 11 -12 20 -21 20 -9 0 -16 7 -16 16 0
8 -4 12 -10 9 -5 -3 -15 3 -22 15 -7 11 -18 20 -24 20 -6 0 -19 11 -30 24 -10
14 -21 23 -25 20 -4 -2 -11 5 -14 17 -6 17 -9 19 -16 8 -7 -11 -9 -10 -9 4 0
9 -3 17 -8 17 -9 0 -70 50 -118 98 -19 18 -34 29 -34 25 0 -4 -5 0 -11 10 -5
9 -17 17 -24 17 -8 0 -15 4 -15 9 0 11 -81 52 -91 46 -4 -3 -9 1 -12 9 -4 11
-14 12 -41 6 -19 -4 -37 -6 -39 -4 -9 9 -47 12 -51 5z m-484 -1283 c16 -15 27
-32 23 -38 -3 -5 0 -10 9 -10 9 0 13 -8 12 -25 -2 -14 1 -22 7 -18 6 3 8 -8 5
-30 -2 -20 0 -33 5 -30 5 3 7 0 5 -8 -3 -8 -1 -22 3 -31 5 -9 5 -19 1 -22 -5
-3 -8 -23 -6 -46 1 -22 -2 -38 -7 -34 -5 3 -9 1 -9 -5 0 -5 6 -11 13 -14 10
-4 10 -7 0 -18 -7 -7 -13 -23 -13 -36 0 -13 -5 -23 -11 -23 -6 0 -9 -6 -6 -12
2 -7 -7 -23 -20 -35 -13 -13 -20 -23 -16 -24 4 0 -3 -5 -17 -11 -14 -6 -28
-10 -32 -10 -5 1 -8 -3 -8 -9 0 -5 -4 -8 -9 -4 -5 3 -12 1 -16 -5 -4 -6 -11
-7 -18 -3 -6 3 -29 7 -51 7 -22 1 -41 7 -44 14 -2 7 -7 10 -12 7 -12 -7 -42
24 -34 36 3 5 1 8 -4 7 -6 -2 -10 1 -11 5 0 4 -7 14 -15 22 -8 9 -13 24 -11
35 2 11 1 20 -3 20 -4 0 -9 11 -10 25 -1 14 4 25 10 25 7 0 3 7 -8 15 -11 8
-14 14 -6 15 10 0 10 5 2 20 -8 15 -8 20 2 20 9 0 9 3 -2 10 -8 5 -10 10 -3
10 6 0 9 9 5 22 -4 16 -2 19 9 13 12 -7 12 -6 1 7 -9 12 -10 22 -4 35 5 10 8
26 6 36 -1 10 4 21 11 23 8 3 11 12 9 19 -3 7 4 19 15 27 12 8 18 18 14 22 -4
3 8 12 25 18 18 7 32 15 32 19 0 3 10 6 23 5 12 -1 30 1 41 4 27 9 85 -11 118
-42z m904 24 c-3 -2 10 -31 27 -65 17 -34 30 -68 28 -76 -1 -7 2 -10 8 -6 7 3
11 -2 11 -14 0 -11 5 -23 10 -26 6 -3 10 -15 10 -26 0 -11 4 -18 9 -15 5 4 11
3 14 -1 2 -5 3 -3 1 2 -1 6 4 19 12 30 8 10 14 27 14 37 0 10 6 21 13 24 13 5
15 10 19 53 1 11 5 18 9 15 9 -5 23 27 20 45 -1 7 2 10 8 6 6 -3 11 2 11 13 0
21 36 37 46 21 3 -5 9 -7 14 -4 5 3 11 1 15 -5 3 -5 1 -10 -5 -10 -6 0 -9 -4
-5 -9 3 -5 1 -12 -5 -16 -6 -4 -8 -11 -5 -16 4 -5 2 -9 -4 -9 -5 0 -12 -13
-16 -30 -4 -16 -11 -30 -16 -30 -5 0 -9 -7 -9 -15 0 -8 -5 -15 -11 -15 -8 0
-8 -5 1 -15 10 -12 10 -15 -2 -15 -10 0 -40 -53 -38 -68 1 -1 -6 -10 -15 -19
-9 -8 -14 -21 -11 -28 3 -8 -2 -16 -11 -19 -12 -5 -13 -9 -4 -20 8 -9 8 -16 2
-20 -7 -5 -7 -15 -1 -31 5 -14 6 -25 2 -25 -8 0 -8 -68 1 -76 16 -16 -14 -43
-46 -41 -26 1 -32 6 -33 24 -1 13 2 20 8 17 7 -5 7 -1 1 11 -6 10 -8 26 -6 36
3 11 0 26 -7 34 -11 13 -10 14 6 8 17 -6 18 -5 5 11 -12 14 -12 19 -2 26 9 5
10 9 2 14 -6 4 -9 11 -6 16 7 12 -16 71 -26 64 -5 -3 -6 2 -3 10 3 9 1 16 -6
16 -6 0 -8 5 -5 10 3 6 1 10 -5 10 -6 0 -8 5 -5 10 3 6 1 10 -5 10 -6 0 -8 5
-5 10 3 6 1 10 -5 10 -6 0 -9 4 -6 9 3 5 -1 14 -9 21 -8 7 -12 16 -9 21 3 5 0
9 -6 9 -6 0 -9 4 -5 9 3 5 -1 16 -9 24 -8 8 -12 17 -9 21 4 3 1 6 -6 6 -7 0
-10 4 -6 9 3 5 -2 16 -10 25 -21 20 -20 29 1 36 17 6 78 -10 70 -18z m-736
-652 c0 5 15 4 32 -1 40 -11 41 -11 33 0 -3 6 6 6 25 1 16 -5 30 -6 30 -2 0 4
11 7 24 7 13 0 22 -3 19 -7 -2 -5 1 -8 6 -8 6 0 11 6 11 13 0 8 4 7 10 -3 9
-13 10 -13 10 0 0 13 1 13 10 0 9 -13 10 -13 10 0 0 13 1 13 10 0 6 -9 10 -10
10 -3 0 8 9 9 32 2 41 -11 41 -11 33 1 -4 7 3 7 19 0 19 -7 26 -6 26 3 0 8 4
7 10 -3 9 -13 10 -13 10 0 0 11 4 10 12 -4 10 -18 12 -18 24 -2 10 14 16 15
33 6 15 -7 21 -7 21 0 0 7 7 7 21 -1 17 -9 23 -8 30 2 7 11 9 11 9 -1 0 -12 2
-12 9 -2 6 11 10 10 15 -5 7 -17 8 -17 21 0 11 15 17 16 34 7 15 -8 21 -8 21
0 0 6 5 8 11 5 16 -10 99 -11 99 -1 0 5 7 3 15 -4 12 -10 15 -10 15 1 0 11 2
11 10 -1 9 -13 10 -13 11 0 0 10 3 8 9 -5 5 -11 9 -14 9 -8 1 13 51 15 51 2 0
-3 14 -5 30 -3 17 2 30 -1 30 -6 0 -5 6 -7 14 -4 8 3 25 0 38 -7 13 -7 29 -12
36 -11 6 2 12 -2 12 -8 0 -6 5 -8 10 -5 6 3 13 -1 16 -9 3 -9 10 -14 14 -11
14 9 40 -6 33 -19 -3 -6 -3 -8 2 -4 4 4 14 3 22 -3 7 -6 13 -9 13 -5 0 8 43
-29 112 -96 32 -31 58 -62 58 -68 0 -5 5 -10 11 -10 5 0 7 -4 4 -10 -3 -5 2
-10 11 -10 10 0 14 -3 11 -7 -4 -3 1 -12 11 -20 9 -8 12 -12 6 -9 -6 3 0 -18
14 -47 14 -29 28 -53 32 -55 4 -2 6 -12 3 -22 -3 -11 -1 -20 4 -20 5 0 10 -11
11 -25 3 -47 5 -55 15 -55 5 0 4 -7 -3 -15 -10 -12 -10 -15 0 -15 10 0 10 -3
1 -14 -8 -9 -8 -16 -2 -20 5 -4 8 -16 6 -28 -3 -12 1 -26 8 -30 9 -6 9 -8 0
-8 -7 0 -10 -7 -6 -17 4 -10 2 -14 -4 -10 -11 7 -11 -22 0 -40 4 -6 3 -14 -3
-18 -6 -4 -8 -11 -5 -16 4 -5 1 -9 -6 -9 -7 0 -9 -10 -7 -25 3 -14 1 -28 -4
-31 -4 -3 -6 -10 -3 -15 4 -5 2 -9 -3 -9 -6 0 -13 -7 -16 -16 -4 -10 -2 -13 6
-8 7 4 1 -8 -12 -26 -13 -19 -18 -30 -9 -26 7 4 6 1 -3 -7 -10 -8 -15 -17 -11
-20 3 -4 1 -7 -5 -7 -7 0 -12 -7 -12 -15 0 -9 -7 -18 -15 -21 -8 -4 -12 -10
-9 -15 3 -5 0 -9 -6 -9 -6 0 -9 -4 -5 -9 3 -6 -4 -15 -15 -21 -11 -6 -18 -15
-15 -21 4 -5 -1 -9 -10 -9 -9 0 -14 -3 -12 -7 2 -5 -7 -18 -20 -30 -13 -12
-23 -20 -23 -16 0 3 -11 -5 -24 -18 -37 -37 -53 -48 -60 -42 -3 4 -6 1 -6 -6
0 -7 -4 -10 -9 -7 -5 3 -12 -1 -15 -10 -3 -8 -10 -12 -16 -9 -6 3 -17 -1 -26
-9 -8 -9 -23 -16 -33 -16 -9 0 -23 -6 -30 -12 -11 -11 -13 -10 -7 2 7 13 6 13
-6 0 -7 -8 -20 -16 -28 -18 -23 -5 -72 -13 -106 -16 -17 -1 -36 -6 -42 -10 -7
-4 -12 -2 -12 4 0 6 -5 8 -11 5 -16 -10 -79 -12 -79 -2 0 4 -8 4 -17 -2 -11
-6 -24 -6 -35 0 -12 7 -18 6 -18 -1 0 -6 -5 -8 -11 -5 -17 11 -59 13 -59 3 0
-5 -9 -4 -20 2 -12 7 -20 7 -20 1 0 -5 -10 -7 -22 -5 -23 6 -28 6 -63 4 -11 0
-36 0 -55 2 -20 1 -43 -1 -53 -5 -9 -3 -17 -2 -17 4 0 6 -5 7 -11 4 -15 -10
-79 -12 -79 -3 0 3 -13 3 -30 -2 -16 -5 -30 -5 -30 -2 0 9 -64 7 -79 -3 -6 -3
-11 -1 -11 5 0 8 -6 8 -20 0 -14 -8 -20 -8 -20 0 0 8 -6 8 -20 0 -14 -8 -20
-8 -20 0 0 7 -7 8 -17 3 -16 -8 -41 -9 -53 -3 -3 1 -14 4 -25 6 -19 3 -61 10
-96 17 -10 1 -25 9 -35 17 -10 8 -15 10 -11 3 4 -6 -12 -2 -35 10 -24 11 -46
20 -50 19 -5 -1 -8 3 -8 9 0 5 -4 7 -10 4 -5 -3 -10 -2 -10 3 0 6 -11 13 -25
16 -14 4 -24 10 -21 14 3 5 -10 16 -29 26 -19 10 -36 25 -39 32 -3 8 -13 14
-22 14 -10 0 -14 3 -11 7 4 3 -5 17 -19 30 -14 12 -23 23 -20 23 3 0 -4 12
-17 26 -12 14 -22 30 -22 35 0 5 -7 14 -15 19 -8 5 -10 10 -5 10 6 0 4 4 -3 8
-7 5 -15 19 -17 33 -3 13 -9 25 -15 27 -6 2 -8 8 -4 13 3 5 2 9 -3 9 -4 0 -9
12 -10 27 0 15 -6 29 -12 31 -5 2 -7 10 -4 18 3 8 0 21 -7 29 -9 11 -9 15 -1
15 8 0 9 5 2 19 -6 10 -7 21 -4 25 3 3 1 6 -7 6 -10 0 -10 3 1 17 14 17 14 20
-2 40 -7 7 -6 14 1 18 7 4 7 12 0 25 -6 12 -6 21 -1 25 6 3 8 14 6 25 -2 11 1
20 7 20 6 0 5 7 -3 17 -8 9 -9 14 -3 10 8 -4 14 10 18 43 4 28 10 50 15 50 5
0 11 13 14 29 3 16 13 36 22 44 9 9 16 19 15 22 -1 17 2 23 20 43 12 12 18 22
15 22 -6 0 2 10 52 65 17 19 37 35 43 35 6 0 9 4 6 8 -3 5 8 16 25 26 16 9 29
22 29 27 0 6 5 7 10 4 6 -3 10 -1 10 5 0 6 5 8 10 5 6 -3 10 -1 10 4 0 6 7 11
15 11 8 0 15 5 15 12 0 6 3 8 6 5 4 -4 20 3 37 15 17 12 27 17 23 10 -5 -8 -2
-10 8 -6 9 3 16 9 16 13 0 4 12 8 27 9 15 1 30 8 35 15 6 9 8 9 8 0 0 -7 7
-10 15 -7 8 4 13 9 11 13 -6 9 67 7 83 -3 9 -6 12 -5 7 2 -9 15 14 20 47 11
15 -4 27 -4 27 1z"/>
<path d="M1904 2817 c-31 -9 -81 -77 -67 -91 3 -3 1 -6 -5 -6 -6 0 -9 -7 -5
-16 3 -9 0 -20 -8 -25 -9 -5 -9 -9 -2 -9 12 0 12 -17 0 -37 -4 -6 -3 -14 3
-18 5 -3 10 -11 10 -16 0 -6 -4 -8 -9 -4 -6 3 -6 -9 0 -29 5 -19 9 -38 8 -43
-4 -18 14 -73 23 -73 6 0 8 -6 5 -14 -6 -14 51 -36 88 -34 20 1 78 28 61 28
-6 0 -1 7 10 16 10 8 13 12 6 9 -11 -6 -11 -3 0 16 7 13 18 27 23 31 6 5 5 8
-3 8 -7 0 -10 4 -7 10 12 20 14 50 2 50 -8 0 -8 3 -2 8 11 8 14 112 3 112 -4
0 -5 8 -3 19 2 10 -3 30 -10 44 -7 14 -11 28 -7 31 3 3 0 6 -7 6 -7 0 -21 10
-32 23 -11 14 -18 17 -19 8 0 -9 -4 -10 -12 -4 -8 6 -24 6 -44 0z"/>
<path d="M2904 2076 c-3 -8 -12 -12 -20 -9 -8 3 -14 1 -14 -5 0 -5 -11 -8 -24
-7 -14 2 -40 -5 -59 -15 -19 -11 -38 -16 -43 -12 -4 4 -4 2 -1 -4 3 -6 -9 -16
-29 -23 -18 -7 -34 -17 -34 -22 0 -5 -4 -8 -9 -6 -5 1 -20 -10 -34 -25 -14
-16 -32 -28 -38 -28 -7 0 -10 -3 -7 -6 3 -3 -9 -22 -27 -42 -19 -20 -32 -40
-29 -44 3 -4 1 -8 -4 -8 -10 0 -38 -60 -34 -72 1 -5 -3 -8 -10 -8 -6 0 -9 -3
-5 -6 3 -3 -3 -21 -13 -40 -12 -20 -15 -36 -9 -39 5 -4 6 -12 2 -18 -4 -7 -8
-20 -9 -29 -1 -10 -2 -21 -4 -25 -3 -14 0 -77 6 -108 3 -16 5 -38 5 -47 0 -10
4 -20 9 -23 5 -3 7 -12 3 -20 -3 -8 0 -15 7 -15 6 0 8 -4 5 -10 -3 -5 -1 -10
4 -10 6 0 10 -3 9 -7 -4 -16 14 -53 25 -53 7 0 6 -4 -3 -10 -13 -8 -12 -10 4
-10 11 0 16 -3 13 -7 -4 -4 5 -19 20 -35 15 -15 24 -28 20 -28 -4 0 12 -17 35
-37 24 -21 45 -41 46 -45 2 -5 10 -8 17 -8 8 0 26 -11 40 -25 14 -15 25 -20
25 -13 0 10 2 10 9 -1 5 -7 13 -11 19 -7 5 3 13 -1 16 -10 4 -10 14 -14 26
-11 13 3 18 1 13 -6 -4 -6 0 -8 10 -4 10 3 17 3 17 -2 0 -8 15 -11 68 -11 18
0 32 -6 32 -13 0 -8 3 -8 8 -2 4 6 27 11 52 11 56 2 115 11 138 23 36 18 92
41 97 38 2 -1 11 7 20 18 9 11 13 13 9 5 -4 -8 5 -3 21 13 15 15 32 27 36 27
5 0 9 8 9 17 0 9 3 14 6 11 7 -8 44 28 44 42 0 6 7 10 16 10 8 0 13 3 10 8 -2
4 9 26 25 50 16 23 29 49 29 57 0 7 5 17 10 20 6 4 8 11 5 16 -4 5 -2 9 3 9 5
0 8 11 7 25 -2 14 1 25 5 25 5 0 7 9 5 20 -2 11 0 22 6 25 5 4 9 11 9 16 0 6
-4 7 -10 4 -6 -4 -7 2 -1 17 4 13 6 29 4 36 -3 6 1 12 9 12 10 0 10 2 -1 9 -7
5 -15 28 -16 52 -2 24 -4 44 -5 44 -2 0 -11 37 -12 53 -1 6 -5 12 -10 12 -5 0
-6 5 -3 10 3 6 2 10 -3 10 -6 0 -13 7 -16 16 -3 9 -2 12 5 8 6 -3 5 3 -3 15
-7 12 -16 21 -21 21 -4 0 -6 4 -3 9 3 5 -1 12 -10 15 -8 3 -12 10 -9 16 3 6
-1 13 -9 16 -9 3 -16 11 -16 18 -1 6 -15 22 -32 36 -17 14 -38 33 -47 43 -8 9
-21 17 -28 17 -6 0 -16 7 -21 16 -5 9 -11 15 -13 15 -12 -4 -68 22 -63 30 3 5
-2 6 -10 3 -8 -3 -25 0 -38 7 -13 7 -30 12 -40 11 -9 -2 -19 2 -23 8 -5 8 -12
5 -21 -7 -12 -16 -13 -16 -8 -1 4 13 1 16 -15 13 -11 -2 -23 1 -27 6 -4 6 -10
6 -19 -1 -13 -11 -42 -10 -63 3 -7 5 -14 2 -18 -7z"/>
</g>
</svg>
