G04 #@! TF.FileFunction,Legend,Bot*
%FSLAX46Y46*%
G04 Gerber Fmt 4.6, Leading zero omitted, Abs format (unit mm)*
G04 Created by KiCad (PCBNEW 4.0.7) date 05/04/18 14:25:58*
%MOMM*%
%LPD*%
G01*
G04 APERTURE LIST*
%ADD10C,0.150000*%
%ADD11C,0.120000*%
G04 APERTURE END LIST*
D10*
D11*
X141670000Y-109170000D02*
X144330000Y-109170000D01*
X141670000Y-109230000D02*
X141670000Y-109170000D01*
X144330000Y-109230000D02*
X144330000Y-109170000D01*
X141670000Y-109230000D02*
X144330000Y-109230000D01*
X141670000Y-110500000D02*
X141670000Y-111830000D01*
X141670000Y-111830000D02*
X143000000Y-111830000D01*
X141670000Y-119170000D02*
X144330000Y-119170000D01*
X141670000Y-119230000D02*
X141670000Y-119170000D01*
X144330000Y-119230000D02*
X144330000Y-119170000D01*
X141670000Y-119230000D02*
X144330000Y-119230000D01*
X141670000Y-120500000D02*
X141670000Y-121830000D01*
X141670000Y-121830000D02*
X143000000Y-121830000D01*
X149420000Y-120670000D02*
X152080000Y-120670000D01*
X149420000Y-120730000D02*
X149420000Y-120670000D01*
X152080000Y-120730000D02*
X152080000Y-120670000D01*
X149420000Y-120730000D02*
X152080000Y-120730000D01*
X149420000Y-122000000D02*
X149420000Y-123330000D01*
X149420000Y-123330000D02*
X150750000Y-123330000D01*
X149420000Y-107670000D02*
X152080000Y-107670000D01*
X149420000Y-107730000D02*
X149420000Y-107670000D01*
X152080000Y-107730000D02*
X152080000Y-107670000D01*
X149420000Y-107730000D02*
X152080000Y-107730000D01*
X149420000Y-109000000D02*
X149420000Y-110330000D01*
X149420000Y-110330000D02*
X150750000Y-110330000D01*
X145670000Y-120170000D02*
X148330000Y-120170000D01*
X145670000Y-120230000D02*
X145670000Y-120170000D01*
X148330000Y-120230000D02*
X148330000Y-120170000D01*
X145670000Y-120230000D02*
X148330000Y-120230000D01*
X145670000Y-121500000D02*
X145670000Y-122830000D01*
X145670000Y-122830000D02*
X147000000Y-122830000D01*
D10*
X148100000Y-111900000D02*
X148500000Y-112300000D01*
X148500000Y-111900000D02*
X145600000Y-111900000D01*
X145600000Y-111900000D02*
X145600000Y-119100000D01*
X145600000Y-119100000D02*
X148500000Y-119100000D01*
X148500000Y-119100000D02*
X148500000Y-111900000D01*
D11*
X145670000Y-108170000D02*
X148330000Y-108170000D01*
X145670000Y-108230000D02*
X145670000Y-108170000D01*
X148330000Y-108230000D02*
X148330000Y-108170000D01*
X145670000Y-108230000D02*
X148330000Y-108230000D01*
X145670000Y-109500000D02*
X145670000Y-110830000D01*
X145670000Y-110830000D02*
X147000000Y-110830000D01*
D10*
X144500000Y-112900000D02*
X144500000Y-118100000D01*
X141600000Y-118100000D02*
X141600000Y-112900000D01*
X144100000Y-112900000D02*
X144500000Y-113300000D01*
X144500000Y-112900000D02*
X141600000Y-112900000D01*
X141600000Y-118100000D02*
X144500000Y-118100000D01*
X152250000Y-110900000D02*
X152250000Y-120100000D01*
X149350000Y-120100000D02*
X149350000Y-110900000D01*
X151850000Y-110900000D02*
X152250000Y-111300000D01*
X152250000Y-110900000D02*
X149350000Y-110900000D01*
X149350000Y-120100000D02*
X152250000Y-120100000D01*
X140202381Y-115666667D02*
X140916667Y-115666667D01*
X141059524Y-115619047D01*
X141154762Y-115523809D01*
X141202381Y-115380952D01*
X141202381Y-115285714D01*
X140297619Y-116095238D02*
X140250000Y-116142857D01*
X140202381Y-116238095D01*
X140202381Y-116476191D01*
X140250000Y-116571429D01*
X140297619Y-116619048D01*
X140392857Y-116666667D01*
X140488095Y-116666667D01*
X140630952Y-116619048D01*
X141202381Y-116047619D01*
X141202381Y-116666667D01*
X147952381Y-115666667D02*
X148666667Y-115666667D01*
X148809524Y-115619047D01*
X148904762Y-115523809D01*
X148952381Y-115380952D01*
X148952381Y-115285714D01*
X147952381Y-116047619D02*
X147952381Y-116666667D01*
X148333333Y-116333333D01*
X148333333Y-116476191D01*
X148380952Y-116571429D01*
X148428571Y-116619048D01*
X148523810Y-116666667D01*
X148761905Y-116666667D01*
X148857143Y-116619048D01*
X148904762Y-116571429D01*
X148952381Y-116476191D01*
X148952381Y-116190476D01*
X148904762Y-116095238D01*
X148857143Y-116047619D01*
M02*
