M48
;DRILL file {KiCad 4.0.7} date 05/04/18 14:26:00
;FORMAT={-:-/ absolute / metric / decimal}
FMAT,2
METRIC,TZ
T1C0.400
T2C1.000
%
G90
G05
M71
T1
X127.Y-117.856
X127.Y-120.904
X128.778Y-109.22
X131.064Y-109.22
X131.064Y-112.014
X131.064Y-117.856
X131.064Y-120.904
X134.62Y-109.22
X134.62Y-112.014
X134.62Y-116.078
X134.62Y-120.904
X138.43Y-119.126
X140.716Y-109.22
X140.716Y-112.776
X140.716Y-115.57
X140.716Y-120.904
X145.288Y-115.316
X153.416Y-109.22
X153.416Y-115.57
X153.416Y-121.92
X157.48Y-109.22
X157.48Y-115.57
X157.48Y-121.92
X160.782Y-109.22
X160.782Y-115.57
X160.782Y-121.92
T2
X123.952Y-106.68
X123.952Y-109.22
X123.952Y-111.76
X123.952Y-114.3
X123.952Y-116.84
X123.952Y-119.38
X123.952Y-121.92
X123.952Y-124.46
X143.Y-110.5
X143.Y-120.5
X147.Y-109.5
X147.Y-121.5
X150.75Y-109.
X150.75Y-122.
T0
M30
