G04 #@! TF.FileFunction,Copper,L2,Bot,Signal*
%FSLAX46Y46*%
G04 Gerber Fmt 4.6, Leading zero omitted, Abs format (unit mm)*
G04 Created by KiCad (PCBNEW 4.0.7) date 04/27/18 14:39:09*
%MOMM*%
%LPD*%
G01*
G04 APERTURE LIST*
%ADD10C,0.150000*%
%ADD11O,1.700000X1.700000*%
%ADD12R,1.700000X1.700000*%
%ADD13R,1.000000X0.600000*%
%ADD14C,0.600000*%
%ADD15C,0.600000*%
%ADD16C,0.254000*%
G04 APERTURE END LIST*
D10*
D11*
X123952000Y-121920000D03*
X123952000Y-119380000D03*
X123952000Y-116840000D03*
X123952000Y-114300000D03*
X123952000Y-111760000D03*
D12*
X123952000Y-109220000D03*
X147000000Y-121500000D03*
D13*
X148000000Y-112500000D03*
X146100000Y-113500000D03*
X148000000Y-114500000D03*
X148000000Y-116500000D03*
X146100000Y-117500000D03*
X148000000Y-118500000D03*
D12*
X147000000Y-109500000D03*
D14*
X157480000Y-121920000D03*
X157480000Y-109220000D03*
X149860000Y-109220000D03*
X149860000Y-121920000D03*
X134620000Y-121920000D03*
X134620000Y-109220000D03*
X142240000Y-109220000D03*
X142240000Y-121920000D03*
X127000000Y-121920000D03*
X127000000Y-109220000D03*
D15*
X123952000Y-109220000D02*
X127232000Y-112500000D01*
X127232000Y-112500000D02*
X148000000Y-112500000D01*
X123952000Y-111760000D02*
X125692000Y-113500000D01*
X125692000Y-113500000D02*
X146100000Y-113500000D01*
X123952000Y-114300000D02*
X124152000Y-114500000D01*
X124152000Y-114500000D02*
X148000000Y-114500000D01*
X123952000Y-116840000D02*
X124292000Y-116500000D01*
X124292000Y-116500000D02*
X148000000Y-116500000D01*
X123952000Y-119380000D02*
X125832000Y-117500000D01*
X125832000Y-117500000D02*
X146100000Y-117500000D01*
X123952000Y-121920000D02*
X127372000Y-118500000D01*
X127372000Y-118500000D02*
X148000000Y-118500000D01*
D16*
G36*
X161925000Y-124333000D02*
X122047000Y-124333000D01*
X122047000Y-109220000D01*
X122437907Y-109220000D01*
X122550946Y-109788285D01*
X122872853Y-110270054D01*
X123202026Y-110490000D01*
X122872853Y-110709946D01*
X122550946Y-111191715D01*
X122437907Y-111760000D01*
X122550946Y-112328285D01*
X122872853Y-112810054D01*
X123213553Y-113037702D01*
X123070642Y-113104817D01*
X122680355Y-113533076D01*
X122510524Y-113943110D01*
X122631845Y-114173000D01*
X123825000Y-114173000D01*
X123825000Y-114153000D01*
X124079000Y-114153000D01*
X124079000Y-114173000D01*
X124099000Y-114173000D01*
X124099000Y-114427000D01*
X124079000Y-114427000D01*
X124079000Y-114447000D01*
X123825000Y-114447000D01*
X123825000Y-114427000D01*
X122631845Y-114427000D01*
X122510524Y-114656890D01*
X122680355Y-115066924D01*
X123070642Y-115495183D01*
X123213553Y-115562298D01*
X122872853Y-115789946D01*
X122550946Y-116271715D01*
X122437907Y-116840000D01*
X122550946Y-117408285D01*
X122872853Y-117890054D01*
X123202026Y-118110000D01*
X122872853Y-118329946D01*
X122550946Y-118811715D01*
X122437907Y-119380000D01*
X122550946Y-119948285D01*
X122872853Y-120430054D01*
X122914452Y-120457850D01*
X122866683Y-120466838D01*
X122650559Y-120605910D01*
X122505569Y-120818110D01*
X122454560Y-121070000D01*
X122454560Y-122770000D01*
X122498838Y-123005317D01*
X122637910Y-123221441D01*
X122850110Y-123366431D01*
X123102000Y-123417440D01*
X124802000Y-123417440D01*
X125037317Y-123373162D01*
X125253441Y-123234090D01*
X125398431Y-123021890D01*
X125449440Y-122770000D01*
X125449440Y-121744850D01*
X126544290Y-120650000D01*
X145502560Y-120650000D01*
X145502560Y-122350000D01*
X145546838Y-122585317D01*
X145685910Y-122801441D01*
X145898110Y-122946431D01*
X146150000Y-122997440D01*
X147850000Y-122997440D01*
X148085317Y-122953162D01*
X148301441Y-122814090D01*
X148446431Y-122601890D01*
X148497440Y-122350000D01*
X148497440Y-120650000D01*
X148453162Y-120414683D01*
X148314090Y-120198559D01*
X148101890Y-120053569D01*
X147850000Y-120002560D01*
X146150000Y-120002560D01*
X145914683Y-120046838D01*
X145698559Y-120185910D01*
X145553569Y-120398110D01*
X145502560Y-120650000D01*
X126544290Y-120650000D01*
X127759290Y-119435000D01*
X147438569Y-119435000D01*
X147500000Y-119447440D01*
X148500000Y-119447440D01*
X148735317Y-119403162D01*
X148951441Y-119264090D01*
X149096431Y-119051890D01*
X149147440Y-118800000D01*
X149147440Y-118200000D01*
X149103162Y-117964683D01*
X148964090Y-117748559D01*
X148751890Y-117603569D01*
X148500000Y-117552560D01*
X147500000Y-117552560D01*
X147433887Y-117565000D01*
X147247440Y-117565000D01*
X147247440Y-117435000D01*
X147438569Y-117435000D01*
X147500000Y-117447440D01*
X148500000Y-117447440D01*
X148735317Y-117403162D01*
X148951441Y-117264090D01*
X149096431Y-117051890D01*
X149147440Y-116800000D01*
X149147440Y-116200000D01*
X149103162Y-115964683D01*
X148964090Y-115748559D01*
X148751890Y-115603569D01*
X148500000Y-115552560D01*
X147500000Y-115552560D01*
X147433887Y-115565000D01*
X124694491Y-115565000D01*
X124690447Y-115562298D01*
X124833358Y-115495183D01*
X125223645Y-115066924D01*
X125340103Y-114785750D01*
X146865000Y-114785750D01*
X146865000Y-114926309D01*
X146961673Y-115159698D01*
X147140301Y-115338327D01*
X147373690Y-115435000D01*
X147714250Y-115435000D01*
X147873000Y-115276250D01*
X147873000Y-114627000D01*
X148127000Y-114627000D01*
X148127000Y-115276250D01*
X148285750Y-115435000D01*
X148626310Y-115435000D01*
X148859699Y-115338327D01*
X149038327Y-115159698D01*
X149135000Y-114926309D01*
X149135000Y-114785750D01*
X148976250Y-114627000D01*
X148127000Y-114627000D01*
X147873000Y-114627000D01*
X147023750Y-114627000D01*
X146865000Y-114785750D01*
X125340103Y-114785750D01*
X125393476Y-114656890D01*
X125272156Y-114427002D01*
X125437000Y-114427002D01*
X125437000Y-114384277D01*
X125692000Y-114435001D01*
X125692005Y-114435000D01*
X145538569Y-114435000D01*
X145600000Y-114447440D01*
X146600000Y-114447440D01*
X146835317Y-114403162D01*
X146968324Y-114317574D01*
X147023750Y-114373000D01*
X147873000Y-114373000D01*
X147873000Y-113723750D01*
X148127000Y-113723750D01*
X148127000Y-114373000D01*
X148976250Y-114373000D01*
X149135000Y-114214250D01*
X149135000Y-114073691D01*
X149038327Y-113840302D01*
X148859699Y-113661673D01*
X148626310Y-113565000D01*
X148285750Y-113565000D01*
X148127000Y-113723750D01*
X147873000Y-113723750D01*
X147714250Y-113565000D01*
X147373690Y-113565000D01*
X147247440Y-113617295D01*
X147247440Y-113435000D01*
X147438569Y-113435000D01*
X147500000Y-113447440D01*
X148500000Y-113447440D01*
X148735317Y-113403162D01*
X148951441Y-113264090D01*
X149096431Y-113051890D01*
X149147440Y-112800000D01*
X149147440Y-112200000D01*
X149103162Y-111964683D01*
X148964090Y-111748559D01*
X148751890Y-111603569D01*
X148500000Y-111552560D01*
X147500000Y-111552560D01*
X147433887Y-111565000D01*
X127619289Y-111565000D01*
X125434271Y-109379981D01*
X125466093Y-109220000D01*
X125353054Y-108651715D01*
X125351909Y-108650000D01*
X145502560Y-108650000D01*
X145502560Y-110350000D01*
X145546838Y-110585317D01*
X145685910Y-110801441D01*
X145898110Y-110946431D01*
X146150000Y-110997440D01*
X147850000Y-110997440D01*
X148085317Y-110953162D01*
X148301441Y-110814090D01*
X148446431Y-110601890D01*
X148497440Y-110350000D01*
X148497440Y-108650000D01*
X148453162Y-108414683D01*
X148314090Y-108198559D01*
X148101890Y-108053569D01*
X147850000Y-108002560D01*
X146150000Y-108002560D01*
X145914683Y-108046838D01*
X145698559Y-108185910D01*
X145553569Y-108398110D01*
X145502560Y-108650000D01*
X125351909Y-108650000D01*
X125031147Y-108169946D01*
X124549378Y-107848039D01*
X123981093Y-107735000D01*
X123922907Y-107735000D01*
X123354622Y-107848039D01*
X122872853Y-108169946D01*
X122550946Y-108651715D01*
X122437907Y-109220000D01*
X122047000Y-109220000D01*
X122047000Y-106807000D01*
X161925000Y-106807000D01*
X161925000Y-124333000D01*
X161925000Y-124333000D01*
G37*
X161925000Y-124333000D02*
X122047000Y-124333000D01*
X122047000Y-109220000D01*
X122437907Y-109220000D01*
X122550946Y-109788285D01*
X122872853Y-110270054D01*
X123202026Y-110490000D01*
X122872853Y-110709946D01*
X122550946Y-111191715D01*
X122437907Y-111760000D01*
X122550946Y-112328285D01*
X122872853Y-112810054D01*
X123213553Y-113037702D01*
X123070642Y-113104817D01*
X122680355Y-113533076D01*
X122510524Y-113943110D01*
X122631845Y-114173000D01*
X123825000Y-114173000D01*
X123825000Y-114153000D01*
X124079000Y-114153000D01*
X124079000Y-114173000D01*
X124099000Y-114173000D01*
X124099000Y-114427000D01*
X124079000Y-114427000D01*
X124079000Y-114447000D01*
X123825000Y-114447000D01*
X123825000Y-114427000D01*
X122631845Y-114427000D01*
X122510524Y-114656890D01*
X122680355Y-115066924D01*
X123070642Y-115495183D01*
X123213553Y-115562298D01*
X122872853Y-115789946D01*
X122550946Y-116271715D01*
X122437907Y-116840000D01*
X122550946Y-117408285D01*
X122872853Y-117890054D01*
X123202026Y-118110000D01*
X122872853Y-118329946D01*
X122550946Y-118811715D01*
X122437907Y-119380000D01*
X122550946Y-119948285D01*
X122872853Y-120430054D01*
X122914452Y-120457850D01*
X122866683Y-120466838D01*
X122650559Y-120605910D01*
X122505569Y-120818110D01*
X122454560Y-121070000D01*
X122454560Y-122770000D01*
X122498838Y-123005317D01*
X122637910Y-123221441D01*
X122850110Y-123366431D01*
X123102000Y-123417440D01*
X124802000Y-123417440D01*
X125037317Y-123373162D01*
X125253441Y-123234090D01*
X125398431Y-123021890D01*
X125449440Y-122770000D01*
X125449440Y-121744850D01*
X126544290Y-120650000D01*
X145502560Y-120650000D01*
X145502560Y-122350000D01*
X145546838Y-122585317D01*
X145685910Y-122801441D01*
X145898110Y-122946431D01*
X146150000Y-122997440D01*
X147850000Y-122997440D01*
X148085317Y-122953162D01*
X148301441Y-122814090D01*
X148446431Y-122601890D01*
X148497440Y-122350000D01*
X148497440Y-120650000D01*
X148453162Y-120414683D01*
X148314090Y-120198559D01*
X148101890Y-120053569D01*
X147850000Y-120002560D01*
X146150000Y-120002560D01*
X145914683Y-120046838D01*
X145698559Y-120185910D01*
X145553569Y-120398110D01*
X145502560Y-120650000D01*
X126544290Y-120650000D01*
X127759290Y-119435000D01*
X147438569Y-119435000D01*
X147500000Y-119447440D01*
X148500000Y-119447440D01*
X148735317Y-119403162D01*
X148951441Y-119264090D01*
X149096431Y-119051890D01*
X149147440Y-118800000D01*
X149147440Y-118200000D01*
X149103162Y-117964683D01*
X148964090Y-117748559D01*
X148751890Y-117603569D01*
X148500000Y-117552560D01*
X147500000Y-117552560D01*
X147433887Y-117565000D01*
X147247440Y-117565000D01*
X147247440Y-117435000D01*
X147438569Y-117435000D01*
X147500000Y-117447440D01*
X148500000Y-117447440D01*
X148735317Y-117403162D01*
X148951441Y-117264090D01*
X149096431Y-117051890D01*
X149147440Y-116800000D01*
X149147440Y-116200000D01*
X149103162Y-115964683D01*
X148964090Y-115748559D01*
X148751890Y-115603569D01*
X148500000Y-115552560D01*
X147500000Y-115552560D01*
X147433887Y-115565000D01*
X124694491Y-115565000D01*
X124690447Y-115562298D01*
X124833358Y-115495183D01*
X125223645Y-115066924D01*
X125340103Y-114785750D01*
X146865000Y-114785750D01*
X146865000Y-114926309D01*
X146961673Y-115159698D01*
X147140301Y-115338327D01*
X147373690Y-115435000D01*
X147714250Y-115435000D01*
X147873000Y-115276250D01*
X147873000Y-114627000D01*
X148127000Y-114627000D01*
X148127000Y-115276250D01*
X148285750Y-115435000D01*
X148626310Y-115435000D01*
X148859699Y-115338327D01*
X149038327Y-115159698D01*
X149135000Y-114926309D01*
X149135000Y-114785750D01*
X148976250Y-114627000D01*
X148127000Y-114627000D01*
X147873000Y-114627000D01*
X147023750Y-114627000D01*
X146865000Y-114785750D01*
X125340103Y-114785750D01*
X125393476Y-114656890D01*
X125272156Y-114427002D01*
X125437000Y-114427002D01*
X125437000Y-114384277D01*
X125692000Y-114435001D01*
X125692005Y-114435000D01*
X145538569Y-114435000D01*
X145600000Y-114447440D01*
X146600000Y-114447440D01*
X146835317Y-114403162D01*
X146968324Y-114317574D01*
X147023750Y-114373000D01*
X147873000Y-114373000D01*
X147873000Y-113723750D01*
X148127000Y-113723750D01*
X148127000Y-114373000D01*
X148976250Y-114373000D01*
X149135000Y-114214250D01*
X149135000Y-114073691D01*
X149038327Y-113840302D01*
X148859699Y-113661673D01*
X148626310Y-113565000D01*
X148285750Y-113565000D01*
X148127000Y-113723750D01*
X147873000Y-113723750D01*
X147714250Y-113565000D01*
X147373690Y-113565000D01*
X147247440Y-113617295D01*
X147247440Y-113435000D01*
X147438569Y-113435000D01*
X147500000Y-113447440D01*
X148500000Y-113447440D01*
X148735317Y-113403162D01*
X148951441Y-113264090D01*
X149096431Y-113051890D01*
X149147440Y-112800000D01*
X149147440Y-112200000D01*
X149103162Y-111964683D01*
X148964090Y-111748559D01*
X148751890Y-111603569D01*
X148500000Y-111552560D01*
X147500000Y-111552560D01*
X147433887Y-111565000D01*
X127619289Y-111565000D01*
X125434271Y-109379981D01*
X125466093Y-109220000D01*
X125353054Y-108651715D01*
X125351909Y-108650000D01*
X145502560Y-108650000D01*
X145502560Y-110350000D01*
X145546838Y-110585317D01*
X145685910Y-110801441D01*
X145898110Y-110946431D01*
X146150000Y-110997440D01*
X147850000Y-110997440D01*
X148085317Y-110953162D01*
X148301441Y-110814090D01*
X148446431Y-110601890D01*
X148497440Y-110350000D01*
X148497440Y-108650000D01*
X148453162Y-108414683D01*
X148314090Y-108198559D01*
X148101890Y-108053569D01*
X147850000Y-108002560D01*
X146150000Y-108002560D01*
X145914683Y-108046838D01*
X145698559Y-108185910D01*
X145553569Y-108398110D01*
X145502560Y-108650000D01*
X125351909Y-108650000D01*
X125031147Y-108169946D01*
X124549378Y-107848039D01*
X123981093Y-107735000D01*
X123922907Y-107735000D01*
X123354622Y-107848039D01*
X122872853Y-108169946D01*
X122550946Y-108651715D01*
X122437907Y-109220000D01*
X122047000Y-109220000D01*
X122047000Y-106807000D01*
X161925000Y-106807000D01*
X161925000Y-124333000D01*
M02*
