G04 #@! TF.FileFunction,Copper,L1,Top,Signal*
%FSLAX46Y46*%
G04 Gerber Fmt 4.6, Leading zero omitted, Abs format (unit mm)*
G04 Created by KiCad (PCBNEW 4.0.7) date 04/27/18 14:39:09*
%MOMM*%
%LPD*%
G01*
G04 APERTURE LIST*
%ADD10C,0.150000*%
%ADD11O,1.700000X1.700000*%
%ADD12R,1.700000X1.700000*%
%ADD13C,0.600000*%
%ADD14C,0.254000*%
G04 APERTURE END LIST*
D10*
D11*
X123952000Y-121920000D03*
X123952000Y-119380000D03*
X123952000Y-116840000D03*
X123952000Y-114300000D03*
X123952000Y-111760000D03*
D12*
X123952000Y-109220000D03*
X147000000Y-121500000D03*
X147000000Y-109500000D03*
D13*
X157480000Y-121920000D03*
X157480000Y-109220000D03*
X149860000Y-109220000D03*
X149860000Y-121920000D03*
X134620000Y-121920000D03*
X134620000Y-109220000D03*
X142240000Y-109220000D03*
X142240000Y-121920000D03*
X127000000Y-121920000D03*
X127000000Y-109220000D03*
D14*
G36*
X161925000Y-124333000D02*
X122047000Y-124333000D01*
X122047000Y-116840000D01*
X122437907Y-116840000D01*
X122550946Y-117408285D01*
X122872853Y-117890054D01*
X123202026Y-118110000D01*
X122872853Y-118329946D01*
X122550946Y-118811715D01*
X122437907Y-119380000D01*
X122550946Y-119948285D01*
X122872853Y-120430054D01*
X122914452Y-120457850D01*
X122866683Y-120466838D01*
X122650559Y-120605910D01*
X122505569Y-120818110D01*
X122454560Y-121070000D01*
X122454560Y-122770000D01*
X122498838Y-123005317D01*
X122637910Y-123221441D01*
X122850110Y-123366431D01*
X123102000Y-123417440D01*
X124802000Y-123417440D01*
X125037317Y-123373162D01*
X125253441Y-123234090D01*
X125398431Y-123021890D01*
X125449440Y-122770000D01*
X125449440Y-121070000D01*
X125405162Y-120834683D01*
X125286322Y-120650000D01*
X145502560Y-120650000D01*
X145502560Y-122350000D01*
X145546838Y-122585317D01*
X145685910Y-122801441D01*
X145898110Y-122946431D01*
X146150000Y-122997440D01*
X147850000Y-122997440D01*
X148085317Y-122953162D01*
X148301441Y-122814090D01*
X148446431Y-122601890D01*
X148497440Y-122350000D01*
X148497440Y-120650000D01*
X148453162Y-120414683D01*
X148314090Y-120198559D01*
X148101890Y-120053569D01*
X147850000Y-120002560D01*
X146150000Y-120002560D01*
X145914683Y-120046838D01*
X145698559Y-120185910D01*
X145553569Y-120398110D01*
X145502560Y-120650000D01*
X125286322Y-120650000D01*
X125266090Y-120618559D01*
X125053890Y-120473569D01*
X124986459Y-120459914D01*
X125031147Y-120430054D01*
X125353054Y-119948285D01*
X125466093Y-119380000D01*
X125353054Y-118811715D01*
X125031147Y-118329946D01*
X124701974Y-118110000D01*
X125031147Y-117890054D01*
X125353054Y-117408285D01*
X125466093Y-116840000D01*
X125353054Y-116271715D01*
X125031147Y-115789946D01*
X124690447Y-115562298D01*
X124833358Y-115495183D01*
X125223645Y-115066924D01*
X125393476Y-114656890D01*
X125272155Y-114427000D01*
X124079000Y-114427000D01*
X124079000Y-114447000D01*
X123825000Y-114447000D01*
X123825000Y-114427000D01*
X122631845Y-114427000D01*
X122510524Y-114656890D01*
X122680355Y-115066924D01*
X123070642Y-115495183D01*
X123213553Y-115562298D01*
X122872853Y-115789946D01*
X122550946Y-116271715D01*
X122437907Y-116840000D01*
X122047000Y-116840000D01*
X122047000Y-109220000D01*
X122437907Y-109220000D01*
X122550946Y-109788285D01*
X122872853Y-110270054D01*
X123202026Y-110490000D01*
X122872853Y-110709946D01*
X122550946Y-111191715D01*
X122437907Y-111760000D01*
X122550946Y-112328285D01*
X122872853Y-112810054D01*
X123213553Y-113037702D01*
X123070642Y-113104817D01*
X122680355Y-113533076D01*
X122510524Y-113943110D01*
X122631845Y-114173000D01*
X123825000Y-114173000D01*
X123825000Y-114153000D01*
X124079000Y-114153000D01*
X124079000Y-114173000D01*
X125272155Y-114173000D01*
X125393476Y-113943110D01*
X125223645Y-113533076D01*
X124833358Y-113104817D01*
X124690447Y-113037702D01*
X125031147Y-112810054D01*
X125353054Y-112328285D01*
X125466093Y-111760000D01*
X125353054Y-111191715D01*
X125031147Y-110709946D01*
X124701974Y-110490000D01*
X125031147Y-110270054D01*
X125353054Y-109788285D01*
X125466093Y-109220000D01*
X125353054Y-108651715D01*
X125351909Y-108650000D01*
X145502560Y-108650000D01*
X145502560Y-110350000D01*
X145546838Y-110585317D01*
X145685910Y-110801441D01*
X145898110Y-110946431D01*
X146150000Y-110997440D01*
X147850000Y-110997440D01*
X148085317Y-110953162D01*
X148301441Y-110814090D01*
X148446431Y-110601890D01*
X148497440Y-110350000D01*
X148497440Y-108650000D01*
X148453162Y-108414683D01*
X148314090Y-108198559D01*
X148101890Y-108053569D01*
X147850000Y-108002560D01*
X146150000Y-108002560D01*
X145914683Y-108046838D01*
X145698559Y-108185910D01*
X145553569Y-108398110D01*
X145502560Y-108650000D01*
X125351909Y-108650000D01*
X125031147Y-108169946D01*
X124549378Y-107848039D01*
X123981093Y-107735000D01*
X123922907Y-107735000D01*
X123354622Y-107848039D01*
X122872853Y-108169946D01*
X122550946Y-108651715D01*
X122437907Y-109220000D01*
X122047000Y-109220000D01*
X122047000Y-106807000D01*
X161925000Y-106807000D01*
X161925000Y-124333000D01*
X161925000Y-124333000D01*
G37*
X161925000Y-124333000D02*
X122047000Y-124333000D01*
X122047000Y-116840000D01*
X122437907Y-116840000D01*
X122550946Y-117408285D01*
X122872853Y-117890054D01*
X123202026Y-118110000D01*
X122872853Y-118329946D01*
X122550946Y-118811715D01*
X122437907Y-119380000D01*
X122550946Y-119948285D01*
X122872853Y-120430054D01*
X122914452Y-120457850D01*
X122866683Y-120466838D01*
X122650559Y-120605910D01*
X122505569Y-120818110D01*
X122454560Y-121070000D01*
X122454560Y-122770000D01*
X122498838Y-123005317D01*
X122637910Y-123221441D01*
X122850110Y-123366431D01*
X123102000Y-123417440D01*
X124802000Y-123417440D01*
X125037317Y-123373162D01*
X125253441Y-123234090D01*
X125398431Y-123021890D01*
X125449440Y-122770000D01*
X125449440Y-121070000D01*
X125405162Y-120834683D01*
X125286322Y-120650000D01*
X145502560Y-120650000D01*
X145502560Y-122350000D01*
X145546838Y-122585317D01*
X145685910Y-122801441D01*
X145898110Y-122946431D01*
X146150000Y-122997440D01*
X147850000Y-122997440D01*
X148085317Y-122953162D01*
X148301441Y-122814090D01*
X148446431Y-122601890D01*
X148497440Y-122350000D01*
X148497440Y-120650000D01*
X148453162Y-120414683D01*
X148314090Y-120198559D01*
X148101890Y-120053569D01*
X147850000Y-120002560D01*
X146150000Y-120002560D01*
X145914683Y-120046838D01*
X145698559Y-120185910D01*
X145553569Y-120398110D01*
X145502560Y-120650000D01*
X125286322Y-120650000D01*
X125266090Y-120618559D01*
X125053890Y-120473569D01*
X124986459Y-120459914D01*
X125031147Y-120430054D01*
X125353054Y-119948285D01*
X125466093Y-119380000D01*
X125353054Y-118811715D01*
X125031147Y-118329946D01*
X124701974Y-118110000D01*
X125031147Y-117890054D01*
X125353054Y-117408285D01*
X125466093Y-116840000D01*
X125353054Y-116271715D01*
X125031147Y-115789946D01*
X124690447Y-115562298D01*
X124833358Y-115495183D01*
X125223645Y-115066924D01*
X125393476Y-114656890D01*
X125272155Y-114427000D01*
X124079000Y-114427000D01*
X124079000Y-114447000D01*
X123825000Y-114447000D01*
X123825000Y-114427000D01*
X122631845Y-114427000D01*
X122510524Y-114656890D01*
X122680355Y-115066924D01*
X123070642Y-115495183D01*
X123213553Y-115562298D01*
X122872853Y-115789946D01*
X122550946Y-116271715D01*
X122437907Y-116840000D01*
X122047000Y-116840000D01*
X122047000Y-109220000D01*
X122437907Y-109220000D01*
X122550946Y-109788285D01*
X122872853Y-110270054D01*
X123202026Y-110490000D01*
X122872853Y-110709946D01*
X122550946Y-111191715D01*
X122437907Y-111760000D01*
X122550946Y-112328285D01*
X122872853Y-112810054D01*
X123213553Y-113037702D01*
X123070642Y-113104817D01*
X122680355Y-113533076D01*
X122510524Y-113943110D01*
X122631845Y-114173000D01*
X123825000Y-114173000D01*
X123825000Y-114153000D01*
X124079000Y-114153000D01*
X124079000Y-114173000D01*
X125272155Y-114173000D01*
X125393476Y-113943110D01*
X125223645Y-113533076D01*
X124833358Y-113104817D01*
X124690447Y-113037702D01*
X125031147Y-112810054D01*
X125353054Y-112328285D01*
X125466093Y-111760000D01*
X125353054Y-111191715D01*
X125031147Y-110709946D01*
X124701974Y-110490000D01*
X125031147Y-110270054D01*
X125353054Y-109788285D01*
X125466093Y-109220000D01*
X125353054Y-108651715D01*
X125351909Y-108650000D01*
X145502560Y-108650000D01*
X145502560Y-110350000D01*
X145546838Y-110585317D01*
X145685910Y-110801441D01*
X145898110Y-110946431D01*
X146150000Y-110997440D01*
X147850000Y-110997440D01*
X148085317Y-110953162D01*
X148301441Y-110814090D01*
X148446431Y-110601890D01*
X148497440Y-110350000D01*
X148497440Y-108650000D01*
X148453162Y-108414683D01*
X148314090Y-108198559D01*
X148101890Y-108053569D01*
X147850000Y-108002560D01*
X146150000Y-108002560D01*
X145914683Y-108046838D01*
X145698559Y-108185910D01*
X145553569Y-108398110D01*
X145502560Y-108650000D01*
X125351909Y-108650000D01*
X125031147Y-108169946D01*
X124549378Y-107848039D01*
X123981093Y-107735000D01*
X123922907Y-107735000D01*
X123354622Y-107848039D01*
X122872853Y-108169946D01*
X122550946Y-108651715D01*
X122437907Y-109220000D01*
X122047000Y-109220000D01*
X122047000Y-106807000D01*
X161925000Y-106807000D01*
X161925000Y-124333000D01*
M02*
